AnekTamil-SemiExpandedLight.ufo
<glyph name="exclam" format="2">
  <advance width="498.62"/>
  <unicode hex="0021"/>
  <outline>
    <contour>
      <point x="303.265" y="384.11" type="line"/>
      <point x="317.805" y="1278.0" type="line"/>
      <point x="180.345" y="1278.0" type="line"/>
      <point x="195.38500000000002" y="384.11" type="line"/>
    </contour>
    <contour>
      <point x="248.84" y="-18.035" type="curve" smooth="yes"/>
      <point x="310.93" y="-18.035"/>
      <point x="341.385" y="15.040000000000001"/>
      <point x="341.385" y="73.27000000000001" type="curve" smooth="yes"/>
      <point x="341.385" y="80.27000000000001" type="line" smooth="yes"/>
      <point x="341.385" y="137.765"/>
      <point x="310.93" y="170.37"/>
      <point x="248.84" y="170.37" type="curve" smooth="yes"/>
      <point x="188.19" y="170.37"/>
      <point x="157.5" y="137.765"/>
      <point x="157.5" y="80.27000000000001" type="curve" smooth="yes"/>
      <point x="157.5" y="73.27000000000001" type="line" smooth="yes"/>
      <point x="157.5" y="15.040000000000001"/>
      <point x="188.19" y="-18.035"/>
    </contour>
  </outline>
</glyph>
<glyph name="numbersign" format="2">
  <advance width="1359.335"/>
  <unicode hex="0023"/>
  <outline>
    <contour>
      <point x="275.59999999999997" y="0.0" type="line"/>
      <point x="382.85499999999996" y="0.0" type="line"/>
      <point x="566.505" y="1278.0" type="line"/>
      <point x="459.25" y="1278.0" type="line"/>
    </contour>
    <contour>
      <point x="80.045" y="341.49" type="line"/>
      <point x="1211.35" y="341.49" type="line"/>
      <point x="1211.35" y="435.765" type="line"/>
      <point x="80.045" y="435.765" type="line"/>
    </contour>
    <contour>
      <point x="797.45" y="0.0" type="line"/>
      <point x="905.7049999999999" y="0.0" type="line"/>
      <point x="1084.795" y="1278.0" type="line"/>
      <point x="977.01" y="1278.0" type="line"/>
    </contour>
    <contour>
      <point x="150.955" y="847.465" type="line"/>
      <point x="1279.5549999999998" y="847.465" type="line"/>
      <point x="1279.5549999999998" y="942.005" type="line"/>
      <point x="150.955" y="942.005" type="line"/>
    </contour>
  </outline>
</glyph>
<glyph name="dollar" format="2">
  <advance width="1245.1000000000001"/>
  <unicode hex="0024"/>
  <anchor x="616.535" y="0.0" name="bottom"/>
  <anchor x="616.535" y="1278.0" name="top"/>
  <outline>
    <contour>
      <point x="672.405" y="1232.42" type="line"/>
      <point x="672.405" y="1515.08" type="line"/>
      <point x="554.7850000000001" y="1515.08" type="line"/>
      <point x="554.7850000000001" y="1232.42" type="line"/>
    </contour>
    <contour>
      <point x="672.405" y="-240.78500000000003" type="line"/>
      <point x="672.405" y="56.445" type="line"/>
      <point x="554.7850000000001" y="56.445" type="line"/>
      <point x="554.7850000000001" y="-240.78500000000003" type="line"/>
    </contour>
    <component base="S"/>
  </outline>
</glyph>
<glyph name="percent" format="2">
  <advance width="1626.625"/>
  <unicode hex="0025"/>
  <outline>
    <contour>
      <point x="304.13" y="0.0" type="line"/>
      <point x="431.345" y="0.0" type="line"/>
      <point x="1324.35" y="1278.0" type="line"/>
      <point x="1197.3999999999999" y="1278.0" type="line"/>
    </contour>
    <contour>
      <point x="1229.935" y="-25.330000000000002" type="curve" smooth="yes"/>
      <point x="1415.075" y="-25.330000000000002"/>
      <point x="1522.115" y="85.585"/>
      <point x="1522.115" y="269.57" type="curve" smooth="yes"/>
      <point x="1522.115" y="319.92" type="line" smooth="yes"/>
      <point x="1522.115" y="503.87500000000006"/>
      <point x="1415.045" y="613.76"/>
      <point x="1229.935" y="613.76" type="curve" smooth="yes"/>
      <point x="1045.56" y="613.76"/>
      <point x="938.5799999999999" y="502.54999999999995"/>
      <point x="938.5799999999999" y="319.92" type="curve" smooth="yes"/>
      <point x="938.5799999999999" y="269.57" type="line" smooth="yes"/>
      <point x="938.5799999999999" y="85.585"/>
      <point x="1044.325" y="-25.330000000000002"/>
    </contour>
    <contour>
      <point x="1229.935" y="63.91" type="curve" smooth="yes"/>
      <point x="1112.55" y="63.91"/>
      <point x="1042.715" y="136.98"/>
      <point x="1042.715" y="268.27500000000003" type="curve" smooth="yes"/>
      <point x="1042.715" y="320.42" type="line" smooth="yes"/>
      <point x="1042.715" y="451.21500000000003"/>
      <point x="1111.3149999999998" y="525.0500000000001"/>
      <point x="1229.935" y="525.0500000000001" type="curve" smooth="yes"/>
      <point x="1347.615" y="525.0500000000001"/>
      <point x="1416.9199999999998" y="451.21500000000003"/>
      <point x="1416.9199999999998" y="320.42" type="curve" smooth="yes"/>
      <point x="1416.9199999999998" y="268.27500000000003" type="line" smooth="yes"/>
      <point x="1416.9199999999998" y="136.98"/>
      <point x="1348.85" y="63.91"/>
    </contour>
    <contour>
      <point x="395.83500000000004" y="664.77" type="curve" smooth="yes"/>
      <point x="580.24" y="664.77"/>
      <point x="688.015" y="776.215"/>
      <point x="688.015" y="958.875" type="curve" smooth="yes"/>
      <point x="688.015" y="1009.4899999999999" type="line" smooth="yes"/>
      <point x="688.015" y="1192.915"/>
      <point x="581.2099999999999" y="1303.33"/>
      <point x="395.83500000000004" y="1303.33" type="curve" smooth="yes"/>
      <point x="209.99" y="1303.33"/>
      <point x="104.215" y="1192.915"/>
      <point x="104.215" y="1009.4899999999999" type="curve" smooth="yes"/>
      <point x="104.215" y="958.875" type="line" smooth="yes"/>
      <point x="104.215" y="775.4200000000001"/>
      <point x="209.99" y="664.77"/>
    </contour>
    <contour>
      <point x="395.83500000000004" y="753.4799999999999" type="curve" smooth="yes"/>
      <point x="278.21500000000003" y="753.4799999999999"/>
      <point x="208.115" y="826.315"/>
      <point x="208.115" y="957.58" type="curve" smooth="yes"/>
      <point x="208.115" y="1010.5200000000001" type="line" smooth="yes"/>
      <point x="208.115" y="1140.7849999999999"/>
      <point x="277.21500000000003" y="1214.885"/>
      <point x="395.83500000000004" y="1214.885" type="curve" smooth="yes"/>
      <point x="513.515" y="1214.885"/>
      <point x="582.8199999999999" y="1140.7849999999999"/>
      <point x="582.8199999999999" y="1010.5200000000001" type="curve" smooth="yes"/>
      <point x="582.8199999999999" y="957.58" type="line" smooth="yes"/>
      <point x="582.8199999999999" y="826.315"/>
      <point x="514.485" y="753.4799999999999"/>
    </contour>
  </outline>
</glyph>
<glyph name="ampersand" format="2">
  <advance width="1442.3899999999999"/>
  <unicode hex="0026"/>
  <outline>
    <contour>
      <point x="1285.3549999999998" y="0.0" type="curve"/>
      <point x="1442.82" y="0.0" type="line"/>
      <point x="1442.82" y="11.715" type="line"/>
      <point x="1333.55" y="108.315"/>
      <point x="1236.1299999999999" y="194.23499999999999"/>
      <point x="1125.005" y="287.71500000000003" type="curve"/>
      <point x="1086.12" y="321.89" type="line"/>
      <point x="514.0899999999999" y="779.095" type="line" smooth="yes"/>
      <point x="430.03000000000003" y="847.6850000000001"/>
      <point x="374.97999999999996" y="907.175"/>
      <point x="374.97999999999996" y="995.89" type="curve" smooth="yes"/>
      <point x="374.97999999999996" y="999.8599999999999" type="line" smooth="yes"/>
      <point x="374.97999999999996" y="1114.68"/>
      <point x="452.02" y="1188.745"/>
      <point x="657.885" y="1188.745" type="curve" smooth="yes"/>
      <point x="828.13" y="1188.745"/>
      <point x="963.105" y="1141.165"/>
      <point x="1061.055" y="1085.79" type="curve"/>
      <point x="1046.28" y="1203.3149999999998" type="line"/>
      <point x="966.535" y="1250.78"/>
      <point x="832.155" y="1300.24"/>
      <point x="640.54" y="1300.24" type="curve" smooth="yes"/>
      <point x="361.065" y="1300.24"/>
      <point x="239.345" y="1187.53"/>
      <point x="239.345" y="1006.78" type="curve" smooth="yes"/>
      <point x="239.345" y="1000.985" type="line" smooth="yes"/>
      <point x="239.345" y="889.925"/>
      <point x="290.84000000000003" y="814.9549999999999"/>
      <point x="386.935" y="735.535" type="curve"/>
      <point x="407.125" y="713.135" type="line"/>
      <point x="1011.3549999999999" y="233.41500000000002" type="line"/>
      <point x="1032.575" y="215.905" type="line"/>
      <point x="1083.06" y="172.74"/>
      <point x="1235.51" y="44.11"/>
    </contour>
    <contour>
      <point x="597.245" y="-23.475" type="curve" smooth="yes"/>
      <point x="828.87" y="-23.475"/>
      <point x="987.19" y="60.370000000000005"/>
      <point x="1108.635" y="204.71" type="curve"/>
      <point x="1140.7800000000002" y="237.295" type="line"/>
      <point x="1240.8500000000001" y="370.62"/>
      <point x="1308.0349999999999" y="552.5649999999999"/>
      <point x="1338.0649999999998" y="772.92" type="curve"/>
      <point x="1209.3799999999999" y="772.92" type="line"/>
      <point x="1183.705" y="585.7349999999999"/>
      <point x="1131.415" y="432.99"/>
      <point x="1050.625" y="313.47" type="curve"/>
      <point x="1020.6899999999999" y="277.12" type="line"/>
      <point x="922.44" y="154.03"/>
      <point x="788.165" y="85.9"/>
      <point x="607.4300000000001" y="85.9" type="curve" smooth="yes"/>
      <point x="375.62" y="85.9"/>
      <point x="250.175" y="190.50000000000003"/>
      <point x="250.175" y="376.34000000000003" type="curve" smooth="yes"/>
      <point x="250.175" y="401.685" type="line" smooth="yes"/>
      <point x="250.175" y="548.2149999999999"/>
      <point x="315.605" y="635.5749999999999"/>
      <point x="461.305" y="695.59" type="curve"/>
      <point x="387.105" y="778.71" type="line"/>
      <point x="194.66" y="694.7950000000001"/>
      <point x="115.6" y="573.475"/>
      <point x="115.6" y="389.38" type="curve" smooth="yes"/>
      <point x="115.6" y="363.945" type="line" smooth="yes"/>
      <point x="115.6" y="120.21000000000001"/>
      <point x="281.015" y="-23.475"/>
    </contour>
  </outline>
</glyph>
<glyph name="quotesingle" format="2">
  <advance width="379.895"/>
  <unicode hex="0027"/>
  <outline>
    <contour>
      <point x="240.0" y="827.42" type="line"/>
      <point x="253.54000000000005" y="1323.85" type="line"/>
      <point x="126.35499999999999" y="1323.85" type="line"/>
      <point x="139.335" y="827.42" type="line"/>
    </contour>
  </outline>
</glyph>
<glyph name="parenleft" format="2">
  <advance width="654.715"/>
  <unicode hex="0028"/>
  <outline>
    <contour>
      <point x="296.27500000000003" y="596.87" type="line" smooth="yes"/>
      <point x="296.27500000000003" y="896.065"/>
      <point x="387.185" y="1140.43"/>
      <point x="574.865" y="1349.03" type="curve"/>
      <point x="437.94" y="1349.03" type="line"/>
      <point x="259.17499999999995" y="1146.14"/>
      <point x="170.85500000000002" y="905.425"/>
      <point x="170.85500000000002" y="598.9" type="curve" smooth="yes"/>
      <point x="170.85500000000002" y="515.36" type="line" smooth="yes"/>
      <point x="170.85500000000002" y="203.45000000000002"/>
      <point x="257.055" y="-36.94"/>
      <point x="436.34999999999997" y="-240.125" type="curve"/>
      <point x="574.865" y="-240.125" type="line"/>
      <point x="386.92" y="-29.025000000000002"/>
      <point x="296.27500000000003" y="215.9"/>
      <point x="296.27500000000003" y="517.655" type="curve" smooth="yes"/>
    </contour>
  </outline>
</glyph>
<glyph name="parenright" format="2">
  <advance width="655.245"/>
  <unicode hex="0029"/>
  <outline>
    <contour>
      <point x="358.97" y="596.87" type="curve" smooth="yes"/>
      <point x="358.97" y="517.655" type="line" smooth="yes"/>
      <point x="358.97" y="215.9"/>
      <point x="268.325" y="-29.025000000000002"/>
      <point x="80.38" y="-240.125" type="curve"/>
      <point x="218.895" y="-240.125" type="line"/>
      <point x="398.19" y="-36.94"/>
      <point x="484.39" y="203.45000000000002"/>
      <point x="484.39" y="515.36" type="curve" smooth="yes"/>
      <point x="484.39" y="598.9" type="line" smooth="yes"/>
      <point x="484.39" y="905.425"/>
      <point x="396.07" y="1146.14"/>
      <point x="217.305" y="1349.03" type="curve"/>
      <point x="80.38" y="1349.03" type="line"/>
      <point x="268.06" y="1140.43"/>
      <point x="358.97" y="896.065"/>
    </contour>
  </outline>
</glyph>
<glyph name="asterisk" format="2">
  <advance width="828.785"/>
  <unicode hex="002A"/>
  <outline>
    <contour>
      <point x="240.885" y="652.3000000000001" type="line"/>
      <point x="416.095" y="889.34" type="line"/>
      <point x="412.65999999999997" y="889.34" type="line"/>
      <point x="588.195" y="652.3000000000001" type="line"/>
      <point x="676.76" y="717.8149999999999" type="line"/>
      <point x="479.33" y="936.5200000000001" type="line"/>
      <point x="478.92" y="932.145" type="line"/>
      <point x="757.7449999999999" y="996.6850000000001" type="line"/>
      <point x="730.49" y="1100.525" type="line"/>
      <point x="454.4" y="1005.5500000000001" type="line"/>
      <point x="457.13" y="1002.055" type="line"/>
      <point x="472.435" y="1278.0" type="line"/>
      <point x="356.82" y="1278.0" type="line"/>
      <point x="372.625" y="1002.055" type="line"/>
      <point x="374.15" y="1005.5500000000001" type="line"/>
      <point x="98.06" y="1100.525" type="line"/>
      <point x="71.03999999999999" y="996.6850000000001" type="line"/>
      <point x="349.835" y="932.145" type="line"/>
      <point x="348.925" y="936.5200000000001" type="line"/>
      <point x="151.73" y="717.8149999999999" type="line"/>
    </contour>
  </outline>
</glyph>
<glyph name="plus" format="2">
  <advance width="1170.97"/>
  <unicode hex="002B"/>
  <outline>
    <contour>
      <point x="641.305" y="149.55" type="line"/>
      <point x="641.305" y="1083.3249999999998" type="line"/>
      <point x="530.135" y="1083.3249999999998" type="line"/>
      <point x="530.135" y="149.55" type="line"/>
    </contour>
    <contour>
      <point x="130.81" y="565.105" type="line"/>
      <point x="1040.16" y="565.105" type="line"/>
      <point x="1040.16" y="667.77" type="line"/>
      <point x="130.81" y="667.77" type="line"/>
    </contour>
  </outline>
</glyph>
<glyph name="comma" format="2">
  <advance width="388.74"/>
  <unicode hex="002C"/>
  <outline>
    <contour>
      <point x="261.165" y="261.18000000000006" type="curve"/>
      <point x="137.835" y="261.18000000000006" type="line"/>
      <point x="143.305" y="223.235"/>
      <point x="145.775" y="185.94"/>
      <point x="145.775" y="144.555" type="curve" smooth="yes"/>
      <point x="145.775" y="-8.799999999999997"/>
      <point x="112.57" y="-128.215"/>
      <point x="30.314999999999998" y="-245.42000000000002" type="curve"/>
      <point x="120.095" y="-277.22499999999997" type="line"/>
      <point x="230.45499999999998" y="-147.515"/>
      <point x="270.695" y="-14.36"/>
      <point x="270.695" y="149.5" type="curve" smooth="yes"/>
      <point x="270.695" y="195.44"/>
      <point x="264.96" y="237.47"/>
    </contour>
  </outline>
</glyph>
<glyph name="hyphen" format="2">
  <advance width="955.355"/>
  <unicode hex="002D"/>
  <outline>
    <contour>
      <point x="147.44500000000002" y="475.25" type="line"/>
      <point x="808.145" y="475.25" type="line"/>
      <point x="808.145" y="579.2099999999999" type="line"/>
      <point x="147.44500000000002" y="579.2099999999999" type="line"/>
    </contour>
  </outline>
</glyph>
<glyph name="period" format="2">
  <advance width="406.855"/>
  <unicode hex="002E"/>
  <outline>
    <contour>
      <point x="202.825" y="-18.035" type="curve" smooth="yes"/>
      <point x="264.91499999999996" y="-18.035"/>
      <point x="295.37" y="15.040000000000001"/>
      <point x="295.37" y="73.27000000000001" type="curve" smooth="yes"/>
      <point x="295.37" y="80.27000000000001" type="line" smooth="yes"/>
      <point x="295.37" y="137.765"/>
      <point x="264.91499999999996" y="170.37"/>
      <point x="202.825" y="170.37" type="curve" smooth="yes"/>
      <point x="142.17499999999998" y="170.37"/>
      <point x="111.485" y="137.765"/>
      <point x="111.485" y="80.27000000000001" type="curve" smooth="yes"/>
      <point x="111.485" y="73.27000000000001" type="line" smooth="yes"/>
      <point x="111.485" y="15.040000000000001"/>
      <point x="142.17499999999998" y="-18.035"/>
    </contour>
  </outline>
</glyph>
<glyph name="slash" format="2">
  <advance width="961.9399999999999"/>
  <unicode hex="002F"/>
  <outline>
    <contour>
      <point x="46.26" y="-234.745" type="line"/>
      <point x="172.26500000000001" y="-234.745" type="line"/>
      <point x="915.68" y="1332.36" type="line"/>
      <point x="790.205" y="1332.36" type="line"/>
    </contour>
  </outline>
</glyph>
<glyph name="zero" format="2">
  <advance width="1311.395"/>
  <unicode hex="0030"/>
  <outline>
    <contour>
      <point x="655.315" y="-24.8" type="curve" smooth="yes"/>
      <point x="1007.545" y="-24.8"/>
      <point x="1187.53" y="179.145"/>
      <point x="1187.53" y="545.425" type="curve"/>
      <point x="1187.53" y="731.135" type="line"/>
      <point x="1187.53" y="1096.62"/>
      <point x="1007.545" y="1302.3"/>
      <point x="655.315" y="1302.3" type="curve" smooth="yes"/>
      <point x="303.58500000000004" y="1302.3"/>
      <point x="123.865" y="1096.62"/>
      <point x="123.865" y="731.135" type="curve"/>
      <point x="123.865" y="545.425" type="line"/>
      <point x="123.865" y="179.145"/>
      <point x="304.115" y="-24.8"/>
    </contour>
    <contour>
      <point x="655.315" y="85.105" type="curve" smooth="yes"/>
      <point x="388.24" y="85.105"/>
      <point x="257.40999999999997" y="250.815"/>
      <point x="257.40999999999997" y="542.54" type="curve" smooth="yes"/>
      <point x="257.40999999999997" y="733.725" type="line" smooth="yes"/>
      <point x="257.40999999999997" y="1026.4199999999998"/>
      <point x="387.445" y="1192.395"/>
      <point x="655.315" y="1192.395" type="curve" smooth="yes"/>
      <point x="923.6850000000001" y="1192.395"/>
      <point x="1053.9850000000001" y="1026.685"/>
      <point x="1053.9850000000001" y="733.725" type="curve" smooth="yes"/>
      <point x="1053.9850000000001" y="542.54" type="line" smooth="yes"/>
      <point x="1053.9850000000001" y="250.815"/>
      <point x="923.6850000000001" y="85.105"/>
    </contour>
  </outline>
</glyph>
<glyph name="one" format="2">
  <advance width="750.4150000000001"/>
  <unicode hex="0031"/>
  <outline>
    <contour>
      <point x="436.90000000000003" y="0.0" type="line"/>
      <point x="567.0600000000001" y="0.0" type="line"/>
      <point x="567.0600000000001" y="1278.0" type="line"/>
      <point x="428.89" y="1278.0" type="line"/>
      <point x="70.99000000000001" y="1081.675" type="line"/>
      <point x="65.84" y="958.38" type="line"/>
      <point x="423.34" y="1152.635" type="line"/>
      <point x="436.90000000000003" y="1152.635" type="line"/>
    </contour>
  </outline>
</glyph>
<glyph name="two" format="2">
  <advance width="1110.49"/>
  <unicode hex="0032"/>
  <outline>
    <contour>
      <point x="86.605" y="0.0" type="line"/>
      <point x="1014.24" y="0.0" type="line"/>
      <point x="1014.24" y="110.70000000000002" type="line"/>
      <point x="205.945" y="110.70000000000002" type="line"/>
      <point x="260.01500000000004" y="84.54" type="line"/>
      <point x="260.01500000000004" y="119.26" type="line"/>
      <point x="595.075" y="379.435" type="line" smooth="yes"/>
      <point x="833.275" y="564.035"/>
      <point x="988.95" y="700.235"/>
      <point x="988.95" y="919.8399999999999" type="curve" smooth="yes"/>
      <point x="988.95" y="931.1650000000001" type="line" smooth="yes"/>
      <point x="988.95" y="1168.82"/>
      <point x="834.41" y="1299.9450000000002"/>
      <point x="542.6800000000001" y="1299.9450000000002" type="curve" smooth="yes"/>
      <point x="344.45" y="1299.9450000000002"/>
      <point x="198.415" y="1233.78"/>
      <point x="105.47" y="1175.55" type="curve"/>
      <point x="91.255" y="1053.9050000000002" type="line"/>
      <point x="201.93" y="1124.19"/>
      <point x="348.02000000000004" y="1187.655"/>
      <point x="522.1" y="1187.655" type="curve" smooth="yes"/>
      <point x="746.2800000000001" y="1187.655"/>
      <point x="855.405" y="1089.76"/>
      <point x="855.405" y="919.24" type="curve" smooth="yes"/>
      <point x="855.405" y="911.005" type="line" smooth="yes"/>
      <point x="855.405" y="727.72"/>
      <point x="705.025" y="609.475"/>
      <point x="491.015" y="440.56" type="curve" smooth="yes"/>
      <point x="86.605" y="128.73000000000002" type="line"/>
    </contour>
  </outline>
</glyph>
<glyph name="three" format="2">
  <advance width="1173.2749999999999"/>
  <unicode hex="0033"/>
  <outline>
    <contour>
      <point x="555.2249999999999" y="-22.945" type="curve" smooth="yes"/>
      <point x="899.87" y="-22.945"/>
      <point x="1063.56" y="116.94"/>
      <point x="1063.56" y="341.335" type="curve" smooth="yes"/>
      <point x="1063.56" y="368.595" type="line" smooth="yes"/>
      <point x="1063.56" y="549.645"/>
      <point x="965.8149999999999" y="652.19"/>
      <point x="737.4549999999999" y="670.47" type="curve"/>
      <point x="735.465" y="655.785" type="line"/>
      <point x="736.875" y="669.6" type="line"/>
      <point x="958.49" y="684.76"/>
      <point x="1050.15" y="795.3"/>
      <point x="1050.15" y="954.4699999999999" type="curve" smooth="yes"/>
      <point x="1050.15" y="973.3199999999999" type="line" smooth="yes"/>
      <point x="1050.15" y="1180.005"/>
      <point x="902.81" y="1299.9750000000001"/>
      <point x="580.7" y="1299.9750000000001" type="curve" smooth="yes"/>
      <point x="367.17499999999995" y="1299.9750000000001"/>
      <point x="211.825" y="1243.69"/>
      <point x="121.05" y="1189.84" type="curve"/>
      <point x="107.6" y="1073.875" type="line"/>
      <point x="215.01500000000001" y="1134.72"/>
      <point x="373.35" y="1189.5400000000002"/>
      <point x="563.83" y="1189.5400000000002" type="curve" smooth="yes"/>
      <point x="814.92" y="1189.5400000000002"/>
      <point x="916.87" y="1107.68"/>
      <point x="916.87" y="958.215" type="curve" smooth="yes"/>
      <point x="916.87" y="942.0450000000001" type="line" smooth="yes"/>
      <point x="916.87" y="807.895"/>
      <point x="832.855" y="718.2750000000001"/>
      <point x="592.3050000000001" y="715.4499999999999" type="curve" smooth="yes"/>
      <point x="306.735" y="711.8299999999999" type="line"/>
      <point x="306.735" y="608.7800000000001" type="line"/>
      <point x="589.69" y="606.19" type="line" smooth="yes"/>
      <point x="839.56" y="603.865"/>
      <point x="928.6899999999999" y="521.3900000000001"/>
      <point x="928.6899999999999" y="369.215" type="curve" smooth="yes"/>
      <point x="928.6899999999999" y="347.87" type="line" smooth="yes"/>
      <point x="928.6899999999999" y="189.35"/>
      <point x="814.335" y="91.20000000000002"/>
      <point x="548.0699999999999" y="91.20000000000002" type="curve" smooth="yes"/>
      <point x="364.1" y="91.20000000000002"/>
      <point x="205.57500000000002" y="143.02"/>
      <point x="100.07" y="200.37" type="curve"/>
      <point x="114.05" y="72.955" type="line"/>
      <point x="192.82" y="34.339999999999996"/>
      <point x="351.73" y="-22.945"/>
    </contour>
  </outline>
</glyph>
<glyph name="four" format="2">
  <advance width="1204.845"/>
  <unicode hex="0034"/>
  <outline>
    <contour>
      <point x="834.505" y="0.0" type="line"/>
      <point x="960.6899999999999" y="0.0" type="line"/>
      <point x="960.6899999999999" y="1278.0" type="line"/>
      <point x="731.1899999999999" y="1278.0" type="line"/>
      <point x="66.25999999999999" y="407.795" type="line"/>
      <point x="66.25999999999999" y="269.825" type="line"/>
      <point x="1172.7549999999999" y="269.825" type="line"/>
      <point x="1172.7549999999999" y="379.26" type="line"/>
      <point x="151.76999999999998" y="379.26" type="line"/>
      <point x="202.72" y="324.225" type="line"/>
      <point x="202.72" y="394.84999999999997" type="line"/>
      <point x="804.5999999999999" y="1184.08" type="line"/>
      <point x="837.625" y="1184.08" type="line"/>
      <point x="834.505" y="923.125" type="line"/>
    </contour>
  </outline>
</glyph>
<glyph name="five" format="2">
  <advance width="1231.9"/>
  <unicode hex="0035"/>
  <outline>
    <contour>
      <point x="616.49" y="-20.974999999999998" type="curve" smooth="yes"/>
      <point x="962.7099999999999" y="-20.974999999999998"/>
      <point x="1123.565" y="139.82999999999998"/>
      <point x="1123.565" y="386.78" type="curve" smooth="yes"/>
      <point x="1123.565" y="433.29999999999995" type="line" smooth="yes"/>
      <point x="1123.565" y="675.3050000000001"/>
      <point x="986.04" y="817.545"/>
      <point x="709.4849999999999" y="817.545" type="curve" smooth="yes"/>
      <point x="495.59" y="817.545"/>
      <point x="362.6" y="731.495"/>
      <point x="286.79" y="619.74" type="curve"/>
      <point x="287.485" y="618.095" type="line"/>
      <point x="289.985" y="836.37" type="line"/>
      <point x="289.985" y="1168.535" type="line"/>
      <point x="1080.795" y="1168.535" type="line"/>
      <point x="1080.795" y="1278.0" type="line"/>
      <point x="163.97500000000002" y="1278.0" type="line"/>
      <point x="163.97500000000002" y="551.3100000000001" type="line"/>
      <point x="275.83" y="529.0" type="line"/>
      <point x="365.96000000000004" y="644.8249999999999"/>
      <point x="491.61999999999995" y="709.9649999999999"/>
      <point x="670.295" y="709.9649999999999" type="curve" smooth="yes"/>
      <point x="889.43" y="709.9649999999999"/>
      <point x="992.67" y="605.785"/>
      <point x="992.67" y="430.24" type="curve" smooth="yes"/>
      <point x="992.67" y="389.07500000000005" type="line" smooth="yes"/>
      <point x="992.67" y="205.06"/>
      <point x="872.2" y="93.43500000000002"/>
      <point x="608.54" y="93.43500000000002" type="curve" smooth="yes"/>
      <point x="413.84" y="93.43500000000002"/>
      <point x="261.77" y="147.14000000000001"/>
      <point x="156.68" y="204.93" type="curve"/>
      <point x="171.63" y="78.545" type="line"/>
      <point x="254.72" y="34.02"/>
      <point x="402.995" y="-20.974999999999998"/>
    </contour>
  </outline>
</glyph>
<glyph name="six" format="2">
  <advance width="1260.77"/>
  <unicode hex="0036"/>
  <outline>
    <contour>
      <point x="662.015" y="-23.095000000000002" type="curve" smooth="yes"/>
      <point x="981.685" y="-23.095000000000002"/>
      <point x="1153.08" y="131.82"/>
      <point x="1153.08" y="382.625" type="curve" smooth="yes"/>
      <point x="1153.08" y="427.145" type="line" smooth="yes"/>
      <point x="1153.08" y="671.155"/>
      <point x="1005.49" y="812.6300000000001"/>
      <point x="723.6949999999999" y="812.6300000000001" type="curve" smooth="yes"/>
      <point x="454.13" y="812.6300000000001"/>
      <point x="304.415" y="674.9"/>
      <point x="254.38500000000002" y="510.57500000000005" type="curve"/>
      <point x="231.96" y="510.57500000000005" type="line"/>
      <point x="253.255" y="415.09000000000003" type="line"/>
      <point x="313.045" y="585.29"/>
      <point x="460.97" y="708.73"/>
      <point x="687.5699999999999" y="708.73" type="curve" smooth="yes"/>
      <point x="920.245" y="708.73"/>
      <point x="1022.715" y="599.7199999999999"/>
      <point x="1022.715" y="424.82" type="curve" smooth="yes"/>
      <point x="1022.715" y="385.15500000000003" type="line" smooth="yes"/>
      <point x="1022.715" y="204.02"/>
      <point x="901.0050000000001" y="86.81"/>
      <point x="664.4" y="86.81" type="curve" smooth="yes"/>
      <point x="408.375" y="86.81"/>
      <point x="249.465" y="237.57999999999998"/>
      <point x="249.465" y="525.455" type="curve"/>
      <point x="249.465" y="710.505" type="line" smooth="yes"/>
      <point x="249.465" y="1018.36"/>
      <point x="396.01500000000004" y="1188.215"/>
      <point x="689.3100000000001" y="1188.215" type="curve" smooth="yes"/>
      <point x="875.34" y="1188.215"/>
      <point x="983.11" y="1145.805"/>
      <point x="1088.1999999999998" y="1087.6899999999998" type="curve"/>
      <point x="1073.925" y="1207.57" type="line"/>
      <point x="985.535" y="1253.48"/>
      <point x="864.965" y="1299.4450000000002"/>
      <point x="673.94" y="1299.4450000000002" type="curve" smooth="yes"/>
      <point x="308.09" y="1299.4450000000002"/>
      <point x="118.57000000000001" y="1082.23"/>
      <point x="118.57000000000001" y="712.095" type="curve" smooth="yes"/>
      <point x="118.57000000000001" y="531.2850000000001" type="line" smooth="yes"/>
      <point x="118.57000000000001" y="174.295"/>
      <point x="325.02000000000004" y="-23.095000000000002"/>
    </contour>
  </outline>
</glyph>
<glyph name="seven" format="2">
  <advance width="1084.47"/>
  <unicode hex="0037"/>
  <outline>
    <contour>
      <point x="278.43" y="0.0" type="line"/>
      <point x="424.95500000000004" y="0.0" type="line"/>
      <point x="1013.005" y="1166.945" type="line"/>
      <point x="1013.005" y="1278.0" type="line"/>
      <point x="73.99000000000001" y="1278.0" type="line"/>
      <point x="73.99000000000001" y="1168.535" type="line"/>
      <point x="872.865" y="1168.535" type="line"/>
    </contour>
  </outline>
</glyph>
<glyph name="eight" format="2">
  <advance width="1313.605"/>
  <unicode hex="0038"/>
  <outline>
    <contour>
      <point x="656.39" y="-28.505000000000003" type="curve" smooth="yes"/>
      <point x="1038.115" y="-28.505000000000003"/>
      <point x="1197.7450000000001" y="109.425"/>
      <point x="1197.7450000000001" y="326.21" type="curve" smooth="yes"/>
      <point x="1197.7450000000001" y="349.09" type="line" smooth="yes"/>
      <point x="1197.7450000000001" y="539.87"/>
      <point x="1060.93" y="644.0749999999999"/>
      <point x="869.6700000000001" y="668.5" type="curve"/>
      <point x="869.6700000000001" y="673.0949999999999" type="line"/>
      <point x="1046.1699999999998" y="686.725"/>
      <point x="1179.1" y="784.0749999999999"/>
      <point x="1179.1" y="954.94" type="curve" smooth="yes"/>
      <point x="1179.1" y="978.055" type="line" smooth="yes"/>
      <point x="1179.1" y="1185.76"/>
      <point x="1006.01" y="1303.71"/>
      <point x="656.39" y="1303.71" type="curve" smooth="yes"/>
      <point x="307.86" y="1303.71"/>
      <point x="135.005" y="1185.76"/>
      <point x="135.005" y="978.055" type="curve" smooth="yes"/>
      <point x="135.005" y="954.94" type="line" smooth="yes"/>
      <point x="135.005" y="783.5749999999999"/>
      <point x="267.465" y="686.725"/>
      <point x="444.2" y="673.0949999999999" type="curve"/>
      <point x="444.2" y="668.5" type="line"/>
      <point x="253.705" y="644.34"/>
      <point x="116.125" y="540.4"/>
      <point x="116.125" y="349.09" type="curve" smooth="yes"/>
      <point x="116.125" y="326.21" type="line" smooth="yes"/>
      <point x="116.125" y="104.92"/>
      <point x="282.615" y="-28.505000000000003"/>
    </contour>
    <contour>
      <point x="658.51" y="79.015" type="curve" smooth="yes"/>
      <point x="383.02" y="79.015"/>
      <point x="249.67000000000002" y="172.97"/>
      <point x="249.67000000000002" y="335.635" type="curve" smooth="yes"/>
      <point x="249.67000000000002" y="358.305" type="line" smooth="yes"/>
      <point x="249.67000000000002" y="515.94"/>
      <point x="383.405" y="607.1"/>
      <point x="652.945" y="616.11" type="curve"/>
      <point x="927.0200000000001" y="607.1"/>
      <point x="1064.2" y="517.53"/>
      <point x="1064.2" y="358.305" type="curve" smooth="yes"/>
      <point x="1064.2" y="335.635" type="line" smooth="yes"/>
      <point x="1064.2" y="174.03"/>
      <point x="932.4399999999999" y="79.015"/>
    </contour>
    <contour>
      <point x="660.63" y="710.765" type="curve"/>
      <point x="399.40999999999997" y="715.8000000000001"/>
      <point x="265.93" y="798.755"/>
      <point x="265.93" y="946.96" type="curve" smooth="yes"/>
      <point x="265.93" y="966.335" type="line" smooth="yes"/>
      <point x="265.93" y="1116.09"/>
      <point x="394.225" y="1199.105"/>
      <point x="656.39" y="1199.105" type="curve" smooth="yes"/>
      <point x="919.91" y="1199.105"/>
      <point x="1048.175" y="1116.09"/>
      <point x="1048.175" y="965.8050000000001" type="curve" smooth="yes"/>
      <point x="1048.175" y="946.43" type="line" smooth="yes"/>
      <point x="1048.175" y="797.9599999999999"/>
      <point x="911.0450000000001" y="715.8000000000001"/>
    </contour>
  </outline>
</glyph>
<glyph name="nine" format="2">
  <advance width="1257.86"/>
  <unicode hex="0039"/>
  <outline>
    <contour>
      <point x="604.255" y="1300.24" type="curve" smooth="yes"/>
      <point x="279.175" y="1300.24"/>
      <point x="107.69" y="1144.3549999999998"/>
      <point x="107.69" y="894.755" type="curve" smooth="yes"/>
      <point x="107.69" y="849.7" type="line" smooth="yes"/>
      <point x="107.69" y="605.9"/>
      <point x="255.92999999999998" y="462.985"/>
      <point x="543.545" y="462.985" type="curve" smooth="yes"/>
      <point x="804.465" y="462.985"/>
      <point x="954.565" y="594.605"/>
      <point x="1004.9749999999999" y="752.585" type="curve"/>
      <point x="1030.5800000000002" y="752.585" type="line"/>
      <point x="1006.605" y="847.8050000000001" type="line"/>
      <point x="944.61" y="683.36"/>
      <point x="798.655" y="566.885"/>
      <point x="581.79" y="566.885" type="curve" smooth="yes"/>
      <point x="346.475" y="566.885"/>
      <point x="238.32" y="674.2149999999999"/>
      <point x="238.32" y="854.35" type="curve" smooth="yes"/>
      <point x="238.32" y="893.49" type="line" smooth="yes"/>
      <point x="238.32" y="1072.6850000000002"/>
      <point x="358.68" y="1190.3349999999998"/>
      <point x="602.135" y="1190.3349999999998" type="curve" smooth="yes"/>
      <point x="870.805" y="1190.3349999999998"/>
      <point x="1008.455" y="1041.185"/>
      <point x="1008.455" y="737.0799999999999" type="curve"/>
      <point x="1008.455" y="548.52" type="line" smooth="yes"/>
      <point x="1008.455" y="248.905"/>
      <point x="862.995" y="88.93"/>
      <point x="548.725" y="88.93" type="curve" smooth="yes"/>
      <point x="376.90500000000003" y="88.93"/>
      <point x="265.90000000000003" y="131.37"/>
      <point x="165.16500000000002" y="185.34" type="curve"/>
      <point x="180.175" y="61.279999999999994" type="line"/>
      <point x="262.445" y="20.604999999999997"/>
      <point x="377.83500000000004" y="-22.565"/>
      <point x="560.6500000000001" y="-22.565" type="curve" smooth="yes"/>
      <point x="947.65" y="-22.565"/>
      <point x="1139.3799999999999" y="182.385"/>
      <point x="1139.3799999999999" y="545.0749999999999" type="curve" smooth="yes"/>
      <point x="1139.3799999999999" y="731.1899999999999" type="line" smooth="yes"/>
      <point x="1139.3799999999999" y="1102.8799999999999"/>
      <point x="955.87" y="1300.24"/>
    </contour>
  </outline>
</glyph>
<glyph name="less" format="2">
  <advance width="1207.72"/>
  <unicode hex="003C"/>
  <outline>
    <contour>
      <point x="227.115" y="626.1999999999999" type="line"/>
      <point x="1040.16" y="859.53" type="line"/>
      <point x="1040.16" y="973.525" type="line"/>
      <point x="130.81" y="705.0250000000001" type="line"/>
      <point x="130.81" y="525.465" type="line"/>
      <point x="1040.16" y="256.435" type="line"/>
      <point x="1040.16" y="370.695" type="line"/>
      <point x="227.115" y="604.82" type="line"/>
    </contour>
  </outline>
</glyph>
<glyph name="equal" format="2">
  <advance width="1201.6950000000002"/>
  <unicode hex="003D"/>
  <outline>
    <contour>
      <point x="147.63" y="340.315" type="line"/>
      <point x="1054.065" y="340.315" type="line"/>
      <point x="1054.065" y="443.21500000000003" type="line"/>
      <point x="147.63" y="443.21500000000003" type="line"/>
    </contour>
    <contour>
      <point x="147.63" y="789.485" type="line"/>
      <point x="1054.065" y="789.485" type="line"/>
      <point x="1054.065" y="892.385" type="line"/>
      <point x="147.63" y="892.385" type="line"/>
    </contour>
  </outline>
</glyph>
<glyph name="greater" format="2">
  <advance width="1207.72"/>
  <unicode hex="003E"/>
  <outline>
    <contour>
      <point x="980.6049999999999" y="626.1999999999999" type="line"/>
      <point x="980.6049999999999" y="604.82" type="line"/>
      <point x="167.56" y="370.695" type="line"/>
      <point x="167.56" y="256.435" type="line"/>
      <point x="1076.91" y="525.465" type="line"/>
      <point x="1076.91" y="705.0250000000001" type="line"/>
      <point x="167.56" y="973.525" type="line"/>
      <point x="167.56" y="859.53" type="line"/>
    </contour>
  </outline>
</glyph>
<glyph name="question" format="2">
  <advance width="1078.2250000000001"/>
  <unicode hex="003F"/>
  <outline>
    <contour>
      <point x="334.34000000000003" y="319.65000000000003" type="line"/>
      <point x="450.43" y="319.65000000000003" type="line"/>
      <point x="450.43" y="574.11" type="line"/>
      <point x="399.14" y="531.47" type="line"/>
      <point x="523.86" y="536.44" type="line"/>
      <point x="831.03" y="552.73"/>
      <point x="970.775" y="673.605"/>
      <point x="970.775" y="903.2900000000001" type="curve" smooth="yes"/>
      <point x="970.775" y="953.785" type="line" smooth="yes"/>
      <point x="970.775" y="1175.855"/>
      <point x="833.995" y="1298.4750000000001"/>
      <point x="525.66" y="1298.4750000000001" type="curve" smooth="yes"/>
      <point x="323.61" y="1298.4750000000001"/>
      <point x="169.14" y="1231.985"/>
      <point x="85.845" y="1177.875" type="curve"/>
      <point x="70.80499999999999" y="1066.12" type="line"/>
      <point x="180.52" y="1132.17"/>
      <point x="333.395" y="1189.835"/>
      <point x="508.17" y="1189.835" type="curve" smooth="yes"/>
      <point x="750.78" y="1189.835"/>
      <point x="841.025" y="1103.24"/>
      <point x="841.025" y="944.54" type="curve" smooth="yes"/>
      <point x="841.025" y="900.375" type="line" smooth="yes"/>
      <point x="841.025" y="731.74"/>
      <point x="736.49" y="636.73"/>
      <point x="480.34499999999997" y="623.705" type="curve" smooth="yes"/>
      <point x="334.34000000000003" y="618.735" type="line"/>
    </contour>
    <contour>
      <point x="391.885" y="-18.565" type="curve" smooth="yes"/>
      <point x="453.18" y="-18.565"/>
      <point x="483.635" y="13.715"/>
      <point x="483.635" y="70.355" type="curve" smooth="yes"/>
      <point x="483.635" y="77.09" type="line" smooth="yes"/>
      <point x="483.635" y="133.26"/>
      <point x="453.18" y="164.805"/>
      <point x="391.885" y="164.805" type="curve" smooth="yes"/>
      <point x="332.03" y="164.805"/>
      <point x="301.87" y="133.26"/>
      <point x="301.87" y="77.09" type="curve" smooth="yes"/>
      <point x="301.87" y="70.355" type="line" smooth="yes"/>
      <point x="301.87" y="13.715"/>
      <point x="332.03" y="-18.565"/>
    </contour>
  </outline>
</glyph>
<glyph name="at" format="2">
  <advance width="1855.21"/>
  <unicode hex="0040"/>
  <outline>
    <contour>
      <point x="845.2149999999999" y="75.375" type="curve" smooth="yes"/>
      <point x="1022.495" y="75.375"/>
      <point x="1125.1450000000002" y="172.415"/>
      <point x="1161.8" y="301.01" type="curve"/>
      <point x="1192.795" y="301.01" type="line"/>
      <point x="1173.05" y="397.185" type="line"/>
      <point x="1138.26" y="268.335"/>
      <point x="1031.52" y="176.98"/>
      <point x="898.025" y="176.98" type="curve" smooth="yes"/>
      <point x="761.62" y="176.98"/>
      <point x="685.14" y="247.08"/>
      <point x="685.14" y="389.105" type="curve" smooth="yes"/>
      <point x="685.14" y="404.775"/>
      <point x="686.7850000000001" y="428.08500000000004"/>
      <point x="693.58" y="492.88500000000005" type="curve" smooth="yes"/>
      <point x="703.49" y="679.605"/>
      <point x="788.32" y="800.55"/>
      <point x="960.8100000000001" y="800.55" type="curve" smooth="yes"/>
      <point x="1091.4950000000001" y="800.55"/>
      <point x="1188.375" y="724.0899999999999"/>
      <point x="1188.345" y="568.21" type="curve" smooth="yes"/>
      <point x="1188.345" y="560.71"/>
      <point x="1188.345" y="552.6800000000001"/>
      <point x="1188.0800000000002" y="544.65" type="curve"/>
      <point x="1230.895" y="659.065" type="line"/>
      <point x="1196.87" y="659.065" type="line"/>
      <point x="1191.5249999999999" y="807.73"/>
      <point x="1097.4650000000001" y="898.74"/>
      <point x="928.745" y="898.74" type="curve" smooth="yes"/>
      <point x="699.92" y="898.74"/>
      <point x="583.4849999999999" y="736.255"/>
      <point x="570.1899999999999" y="478.02" type="curve" smooth="yes"/>
      <point x="563.6300000000001" y="413.425"/>
      <point x="561.7500000000001" y="388.90999999999997"/>
      <point x="561.7500000000001" y="371.18" type="curve" smooth="yes"/>
      <point x="561.7500000000001" y="179.23"/>
      <point x="670.16" y="75.375"/>
    </contour>
    <contour>
      <point x="1136.815" y="91.255" type="line"/>
      <point x="1253.05" y="108.98" type="line"/>
      <point x="1332.845" y="879.4449999999999" type="line"/>
      <point x="1217.11" y="879.4449999999999" type="line"/>
      <point x="1216.345" y="871.705" type="line"/>
      <point x="1197.405" y="655.745" type="line"/>
      <point x="1195.405" y="632.62" type="line"/>
      <point x="1164.5500000000002" y="347.35499999999996" type="line"/>
      <point x="1165.315" y="323.665" type="line"/>
    </contour>
    <contour>
      <point x="1223.5049999999999" y="183.70499999999998" type="curve"/>
      <point x="1136.815" y="91.255" type="line"/>
      <point x="1176.265" y="84.725"/>
      <point x="1206.69" y="83.99"/>
      <point x="1253.3400000000001" y="84.255" type="curve" smooth="yes"/>
      <point x="1552.48" y="85.05"/>
      <point x="1716.2849999999999" y="220.965"/>
      <point x="1732.64" y="546.1400000000001" type="curve" smooth="yes"/>
      <point x="1739.76" y="605.475"/>
      <point x="1742.76" y="644.645"/>
      <point x="1743.9950000000001" y="666.885" type="curve" smooth="yes"/>
      <point x="1755.08" y="1088.775"/>
      <point x="1479.5700000000002" y="1321.69"/>
      <point x="995.635" y="1321.69" type="curve" smooth="yes"/>
      <point x="452.15" y="1321.69"/>
      <point x="159.53500000000003" y="1022.0950000000001"/>
      <point x="134.855" y="490.085" type="curve" smooth="yes"/>
      <point x="128.23499999999999" y="423.47999999999996"/>
      <point x="123.855" y="370.705"/>
      <point x="122.21000000000001" y="324.44500000000005" type="curve" smooth="yes"/>
      <point x="115.865" y="-118.39000000000001"/>
      <point x="393.04999999999995" y="-356.68"/>
      <point x="891.725" y="-356.68" type="curve" smooth="yes"/>
      <point x="1178.9599999999998" y="-356.68"/>
      <point x="1389.3600000000001" y="-297.04"/>
      <point x="1543.2250000000001" y="-197.59" type="curve"/>
      <point x="1563.15" y="-85.61000000000001" type="line"/>
      <point x="1411.545" y="-196.415"/>
      <point x="1188.955" y="-264.025"/>
      <point x="904.0" y="-264.025" type="curve" smooth="yes"/>
      <point x="461.515" y="-264.025"/>
      <point x="225.21" y="-56.904999999999994"/>
      <point x="231.32000000000002" y="327.39" type="curve" smooth="yes"/>
      <point x="232.965" y="370.06"/>
      <point x="237.57999999999998" y="419.685"/>
      <point x="244.73000000000002" y="492.88000000000005" type="curve" smooth="yes"/>
      <point x="264.82" y="961.1049999999999"/>
      <point x="510.66" y="1230.655"/>
      <point x="990.22" y="1230.655" type="curve" smooth="yes"/>
      <point x="1417.995" y="1230.655"/>
      <point x="1645.9099999999999" y="1028.29"/>
      <point x="1635.12" y="666.5600000000001" type="curve" smooth="yes"/>
      <point x="1633.8850000000002" y="646.88"/>
      <point x="1630.12" y="602.5"/>
      <point x="1623.265" y="547.995" type="curve" smooth="yes"/>
      <point x="1610.295" y="285.99"/>
      <point x="1494.675" y="179.0"/>
      <point x="1295.655" y="179.0" type="curve" smooth="yes"/>
      <point x="1260.095" y="179.0"/>
      <point x="1244.39" y="180.47"/>
    </contour>
  </outline>
</glyph>
<glyph name="A" format="2">
  <advance width="1355.9"/>
  <unicode hex="0041"/>
  <anchor x="678.2" y="0.0" name="bottom"/>
  <anchor x="1338.1200000000001" y="1.3250000000000002" name="ogonek"/>
  <anchor x="678.2" y="1278.0" name="top"/>
  <outline>
    <contour>
      <point x="60.714999999999996" y="0.0" type="line"/>
      <point x="195.23000000000002" y="0.0" type="line"/>
      <point x="663.525" y="1190.3500000000001" type="line"/>
      <point x="692.965" y="1190.3500000000001" type="line"/>
      <point x="1160.6699999999998" y="0.0" type="line"/>
      <point x="1295.185" y="0.0" type="line"/>
      <point x="783.595" y="1278.0" type="line"/>
      <point x="572.8949999999999" y="1278.0" type="line"/>
    </contour>
    <contour>
      <point x="321.295" y="399.67999999999995" type="line"/>
      <point x="1033.8400000000001" y="399.67999999999995" type="line"/>
      <point x="1033.8400000000001" y="507.585" type="line"/>
      <point x="321.295" y="507.585" type="line"/>
    </contour>
  </outline>
</glyph>
<glyph name="B" format="2">
  <advance width="1375.695"/>
  <unicode hex="0042"/>
  <anchor x="688.775" y="0.0" name="bottom"/>
  <anchor x="688.775" y="1278.0" name="top"/>
  <outline>
    <contour>
      <point x="273.285" y="0.0" type="line"/>
      <point x="866.85" y="0.0" type="line" smooth="yes"/>
      <point x="1145.32" y="0.0"/>
      <point x="1264.98" y="130.23499999999999"/>
      <point x="1264.98" y="335.575" type="curve" smooth="yes"/>
      <point x="1264.98" y="367.51" type="line" smooth="yes"/>
      <point x="1264.98" y="553.3000000000001"/>
      <point x="1168.9299999999998" y="662.375"/>
      <point x="961.1999999999999" y="679.655" type="curve"/>
      <point x="958.38" y="678.815" type="line"/>
      <point x="1144.315" y="690.41"/>
      <point x="1231.5400000000002" y="792.865"/>
      <point x="1231.5400000000002" y="951.735" type="curve" smooth="yes"/>
      <point x="1231.5400000000002" y="970.8199999999999" type="line" smooth="yes"/>
      <point x="1231.5400000000002" y="1161.565"/>
      <point x="1118.235" y="1278.0"/>
      <point x="844.4699999999999" y="1278.0" type="curve" smooth="yes"/>
      <point x="272.225" y="1278.0" type="line"/>
      <point x="272.225" y="1171.1550000000002" type="line"/>
      <point x="836.0500000000001" y="1171.1550000000002" type="line" smooth="yes"/>
      <point x="1026.1" y="1171.1550000000002"/>
      <point x="1100.35" y="1086.62"/>
      <point x="1100.35" y="950.74" type="curve" smooth="yes"/>
      <point x="1100.35" y="933.6850000000001" type="line" smooth="yes"/>
      <point x="1100.35" y="799.3050000000001"/>
      <point x="1023.3950000000001" y="711.8"/>
      <point x="841.485" y="711.8" type="curve" smooth="yes"/>
      <point x="274.43" y="711.8" type="line"/>
      <point x="274.43" y="607.84" type="line"/>
      <point x="848.285" y="607.84" type="line" smooth="yes"/>
      <point x="1053.3600000000001" y="607.84"/>
      <point x="1131.4050000000002" y="518.6"/>
      <point x="1131.4050000000002" y="371.34000000000003" type="curve" smooth="yes"/>
      <point x="1131.4050000000002" y="343.465" type="line" smooth="yes"/>
      <point x="1131.4050000000002" y="199.38000000000002"/>
      <point x="1052.125" y="107.905"/>
      <point x="856.84" y="107.905" type="curve" smooth="yes"/>
      <point x="273.285" y="107.905" type="line"/>
    </contour>
    <contour>
      <point x="185.59" y="0.0" type="line"/>
      <point x="314.425" y="0.0" type="line"/>
      <point x="314.425" y="1278.0" type="line"/>
      <point x="185.59" y="1278.0" type="line"/>
    </contour>
  </outline>
</glyph>
<glyph name="C" format="2">
  <advance width="1259.585"/>
  <unicode hex="0043"/>
  <anchor x="680.185" y="0.0" name="bottom"/>
  <anchor x="680.185" y="1278.0" name="top"/>
  <outline>
    <contour>
      <point x="706.5749999999999" y="-24.535" type="curve" smooth="yes"/>
      <point x="907.475" y="-24.535"/>
      <point x="1054.56" y="41.715"/>
      <point x="1139.565" y="102.56" type="curve"/>
      <point x="1151.19" y="226.32500000000002" type="line"/>
      <point x="1047.955" y="151.63"/>
      <point x="907.34" y="89.84500000000001"/>
      <point x="719.885" y="89.84500000000001" type="curve" smooth="yes"/>
      <point x="411.33" y="89.84500000000001"/>
      <point x="253.20500000000004" y="259.50000000000006"/>
      <point x="253.20500000000004" y="555.8399999999999" type="curve" smooth="yes"/>
      <point x="253.20500000000004" y="726.075" type="line" smooth="yes"/>
      <point x="253.20500000000004" y="1022.3250000000002"/>
      <point x="411.36" y="1190.245"/>
      <point x="707.885" y="1190.245" type="curve" smooth="yes"/>
      <point x="899.11" y="1190.245"/>
      <point x="1038.19" y="1125.755"/>
      <point x="1139.455" y="1054.2649999999999" type="curve"/>
      <point x="1127.095" y="1176.47" type="line"/>
      <point x="1043.265" y="1235.875"/>
      <point x="897.8000000000001" y="1302.535"/>
      <point x="697.52" y="1302.535" type="curve" smooth="yes"/>
      <point x="318.78499999999997" y="1302.535"/>
      <point x="118.865" y="1093.115"/>
      <point x="118.865" y="726.6049999999999" type="curve" smooth="yes"/>
      <point x="118.865" y="553.72" type="line" smooth="yes"/>
      <point x="118.865" y="185.59"/>
      <point x="319.315" y="-24.535"/>
    </contour>
  </outline>
</glyph>
<glyph name="D" format="2">
  <advance width="1396.905"/>
  <unicode hex="0044"/>
  <anchor x="686.685" y="0.0" name="bottom"/>
  <anchor x="702.835" y="639.0" name="center"/>
  <anchor x="686.685" y="1278.0" name="top"/>
  <outline>
    <contour>
      <point x="277.13500000000005" y="0.0" type="line"/>
      <point x="690.08" y="0.0" type="line" smooth="yes"/>
      <point x="1073.715" y="0.0"/>
      <point x="1279.395" y="200.82500000000002"/>
      <point x="1279.395" y="561.035" type="curve" smooth="yes"/>
      <point x="1279.395" y="718.79" type="line" smooth="yes"/>
      <point x="1279.395" y="1078.4399999999998"/>
      <point x="1073.45" y="1278.0"/>
      <point x="690.08" y="1278.0" type="curve" smooth="yes"/>
      <point x="272.225" y="1278.0" type="line"/>
      <point x="272.225" y="1169.565" type="line"/>
      <point x="686.135" y="1169.565" type="line" smooth="yes"/>
      <point x="986.82" y="1169.565"/>
      <point x="1145.85" y="1009.15"/>
      <point x="1145.85" y="718.025" type="curve" smooth="yes"/>
      <point x="1145.85" y="561.535" type="line" smooth="yes"/>
      <point x="1145.85" y="271.37999999999994"/>
      <point x="986.82" y="108.965"/>
      <point x="686.135" y="108.965" type="curve" smooth="yes"/>
      <point x="277.13500000000005" y="108.965" type="line"/>
    </contour>
    <contour>
      <point x="185.59" y="0.0" type="line"/>
      <point x="315.72" y="0.0" type="line"/>
      <point x="315.72" y="1278.0" type="line"/>
      <point x="185.59" y="1278.0" type="line"/>
    </contour>
  </outline>
</glyph>
<glyph name="E" format="2">
  <advance width="1251.78"/>
  <unicode hex="0045"/>
  <anchor x="664.265" y="0.0" name="bottom"/>
  <anchor x="1164.66" y="1.3250000000000002" name="ogonek"/>
  <anchor x="664.265" y="1278.0" name="top"/>
  <anchor x="21.41" y="1278.0" name="topleft"/>
  <outline>
    <contour>
      <point x="185.59" y="0.0" type="line"/>
      <point x="314.425" y="0.0" type="line"/>
      <point x="314.425" y="1278.0" type="line"/>
      <point x="185.59" y="1278.0" type="line"/>
    </contour>
    <contour>
      <point x="212.365" y="0.0" type="line"/>
      <point x="1130.03" y="0.0" type="line"/>
      <point x="1130.03" y="108.7" type="line"/>
      <point x="212.365" y="108.7" type="line"/>
    </contour>
    <contour>
      <point x="255.88" y="598.31" type="line"/>
      <point x="1101.705" y="598.31" type="line"/>
      <point x="1101.705" y="705.6850000000001" type="line"/>
      <point x="255.88" y="705.6850000000001" type="line"/>
    </contour>
    <contour>
      <point x="211.63" y="1169.565" type="line"/>
      <point x="1120.94" y="1169.565" type="line"/>
      <point x="1120.94" y="1278.0" type="line"/>
      <point x="211.63" y="1278.0" type="line"/>
    </contour>
  </outline>
</glyph>
<glyph name="F" format="2">
  <advance width="1200.1599999999999"/>
  <unicode hex="0046"/>
  <anchor x="600.5949999999999" y="0.0" name="bottom"/>
  <anchor x="600.5949999999999" y="1278.0" name="top"/>
  <outline>
    <contour>
      <point x="185.59" y="0.0" type="line"/>
      <point x="315.45500000000004" y="0.0" type="line"/>
      <point x="315.45500000000004" y="1278.0" type="line"/>
      <point x="185.59" y="1278.0" type="line"/>
    </contour>
    <contour>
      <point x="255.88" y="554.645" type="line"/>
      <point x="1078.79" y="554.645" type="line"/>
      <point x="1078.79" y="663.3449999999999" type="line"/>
      <point x="255.88" y="663.3449999999999" type="line"/>
    </contour>
    <contour>
      <point x="211.63" y="1169.3" type="line"/>
      <point x="1095.8200000000002" y="1169.3" type="line"/>
      <point x="1095.8200000000002" y="1278.0" type="line"/>
      <point x="211.63" y="1278.0" type="line"/>
    </contour>
  </outline>
</glyph>
<glyph name="G" format="2">
  <advance width="1418.9650000000001"/>
  <unicode hex="0047"/>
  <anchor x="707.1899999999999" y="0.0" name="bottom"/>
  <anchor x="707.1899999999999" y="1278.0" name="top"/>
  <outline>
    <contour>
      <point x="682.3050000000001" y="-24.8" type="curve" smooth="yes"/>
      <point x="960.17" y="-24.8"/>
      <point x="1090.325" y="111.765"/>
      <point x="1130.03" y="250.995" type="curve"/>
      <point x="1255.105" y="250.26" type="line"/>
      <point x="1255.105" y="696.47" type="line"/>
      <point x="733.22" y="696.47" type="line"/>
      <point x="733.22" y="589.565" type="line"/>
      <point x="1151.515" y="590.095" type="line"/>
      <point x="1128.625" y="638.095" type="line"/>
      <point x="1128.625" y="341.195" type="line"/>
      <point x="1083.245" y="203.07999999999998"/>
      <point x="947.65" y="86.69500000000001"/>
      <point x="718.725" y="86.69500000000001" type="curve" smooth="yes"/>
      <point x="413.59" y="86.69500000000001"/>
      <point x="253.20500000000004" y="254.23000000000002"/>
      <point x="253.20500000000004" y="549.36" type="curve" smooth="yes"/>
      <point x="253.20500000000004" y="716.6049999999999" type="line" smooth="yes"/>
      <point x="253.20500000000004" y="1020.8000000000001"/>
      <point x="420.21500000000003" y="1190.775"/>
      <point x="743.4599999999999" y="1190.775" type="curve" smooth="yes"/>
      <point x="954.95" y="1190.775"/>
      <point x="1111.065" y="1125.755"/>
      <point x="1224.925" y="1053.0300000000002" type="curve"/>
      <point x="1211.505" y="1171.85" type="line"/>
      <point x="1115.375" y="1234.315"/>
      <point x="954.375" y="1302.535"/>
      <point x="729.06" y="1302.535" type="curve" smooth="yes"/>
      <point x="330.085" y="1302.535"/>
      <point x="118.865" y="1089.205"/>
      <point x="118.865" y="716.87" type="curve" smooth="yes"/>
      <point x="118.865" y="548.33" type="line" smooth="yes"/>
      <point x="118.865" y="182.5"/>
      <point x="320.45500000000004" y="-24.8"/>
    </contour>
    <contour>
      <point x="1134.215" y="285.545" type="line"/>
      <point x="1127.565" y="0.0" type="line"/>
      <point x="1255.105" y="0.0" type="line"/>
      <point x="1255.105" y="285.545" type="line"/>
    </contour>
  </outline>
</glyph>
<glyph name="H" format="2">
  <advance width="1448.675"/>
  <unicode hex="0048"/>
  <anchor x="724.455" y="0.0" name="bottom"/>
  <anchor x="724.455" y="639.0" name="center"/>
  <anchor x="724.455" y="1278.0" name="top"/>
  <anchor x="21.41" y="1278.0" name="topleft"/>
  <outline>
    <contour>
      <point x="316.515" y="0.0" type="line"/>
      <point x="316.515" y="1278.0" type="line"/>
      <point x="185.59" y="1278.0" type="line"/>
      <point x="185.59" y="0.0" type="line"/>
    </contour>
    <contour>
      <point x="1263.085" y="0.0" type="line"/>
      <point x="1263.085" y="1278.0" type="line"/>
      <point x="1132.16" y="1278.0" type="line"/>
      <point x="1132.16" y="0.0" type="line"/>
    </contour>
    <contour>
      <point x="257.115" y="714.95" type="line"/>
      <point x="257.115" y="606.015" type="line"/>
      <point x="1189.1399999999999" y="606.015" type="line"/>
      <point x="1189.1399999999999" y="714.95" type="line"/>
    </contour>
  </outline>
</glyph>
<glyph name="I" format="2">
  <advance width="506.985"/>
  <unicode hex="0049"/>
  <anchor x="253.61" y="0.0" name="bottom"/>
  <anchor x="363.125" y="1.3250000000000002" name="ogonek"/>
  <anchor x="253.61" y="1278.0" name="top"/>
  <anchor x="21.41" y="1278.0" name="topleft"/>
  <outline>
    <contour>
      <point x="318.955" y="0.0" type="line"/>
      <point x="318.955" y="1278.0" type="line"/>
      <point x="188.03" y="1278.0" type="line"/>
      <point x="188.03" y="0.0" type="line"/>
    </contour>
  </outline>
</glyph>
<glyph name="J" format="2">
  <advance width="994.805"/>
  <unicode hex="004A"/>
  <anchor x="498.78499999999997" y="0.0" name="bottom"/>
  <anchor x="752.575" y="1278.0" name="top"/>
  <outline>
    <contour>
      <point x="390.245" y="-13.915000000000001" type="curve" smooth="yes"/>
      <point x="702.35" y="-13.915000000000001"/>
      <point x="819.4499999999999" y="133.26999999999998"/>
      <point x="819.4499999999999" y="417.085" type="curve" smooth="yes"/>
      <point x="819.4499999999999" y="1278.0" type="line"/>
      <point x="688.5250000000001" y="1278.0" type="line"/>
      <point x="688.5250000000001" y="423.15000000000003" type="line" smooth="yes"/>
      <point x="688.5250000000001" y="204.86"/>
      <point x="605.7149999999999" y="99.935"/>
      <point x="372.96000000000004" y="99.935" type="curve" smooth="yes"/>
      <point x="270.555" y="99.935"/>
      <point x="169.73999999999998" y="121.14"/>
      <point x="78.66" y="162.015" type="curve"/>
      <point x="91.345" y="43.165" type="line"/>
      <point x="174.99" y="6.875"/>
      <point x="282.075" y="-13.915000000000001"/>
    </contour>
  </outline>
</glyph>
<glyph name="K" format="2">
  <advance width="1319.0900000000001"/>
  <unicode hex="004B"/>
  <anchor x="665.0749999999999" y="0.0" name="bottom"/>
  <anchor x="665.0749999999999" y="1278.0" name="top"/>
  <outline>
    <contour>
      <point x="1091.055" y="0.0" type="line"/>
      <point x="1259.265" y="0.0" type="line"/>
      <point x="599.3100000000001" y="677.1899999999999" type="line"/>
      <point x="599.8100000000001" y="639.025" type="line"/>
      <point x="1245.0" y="1278.0" type="line"/>
      <point x="1083.1750000000002" y="1278.0" type="line"/>
      <point x="503.32" y="706.1" type="line"/>
      <point x="302.71500000000003" y="706.1" type="line"/>
      <point x="302.71500000000003" y="598.7249999999999" type="line"/>
      <point x="502.055" y="598.7249999999999" type="line"/>
    </contour>
    <contour>
      <point x="185.59" y="0.0" type="line"/>
      <point x="315.71999999999997" y="0.0" type="line"/>
      <point x="315.71999999999997" y="1278.0" type="line"/>
      <point x="185.59" y="1278.0" type="line"/>
    </contour>
  </outline>
</glyph>
<glyph name="L" format="2">
  <advance width="1165.74"/>
  <unicode hex="004C"/>
  <anchor x="631.73" y="0.0" name="bottom"/>
  <anchor x="575.495" y="644.145" name="center"/>
  <anchor x="251.43499999999997" y="1278.0" name="top"/>
  <anchor x="803.71" y="1278.0" name="topright"/>
  <outline>
    <contour>
      <point x="316.515" y="0.0" type="line"/>
      <point x="316.515" y="1278.0" type="line"/>
      <point x="185.59" y="1278.0" type="line"/>
      <point x="185.59" y="0.0" type="line"/>
    </contour>
    <contour>
      <point x="253.175" y="109.76" type="line"/>
      <point x="253.175" y="0.0" type="line"/>
      <point x="1088.72" y="0.0" type="line"/>
      <point x="1088.72" y="109.76" type="line"/>
    </contour>
  </outline>
</glyph>
<glyph name="M" format="2">
  <advance width="1716.74"/>
  <unicode hex="004D"/>
  <anchor x="858.87" y="0.0" name="bottom"/>
  <anchor x="858.87" y="1278.0" name="top"/>
  <outline>
    <contour>
      <point x="152.685" y="0.0" type="line"/>
      <point x="281.725" y="0.0" type="line"/>
      <point x="313.215" y="583.4949999999999" type="line"/>
      <point x="342.44" y="1146.98" type="line"/>
      <point x="365.78999999999996" y="1146.98" type="line"/>
      <point x="784.21" y="152.5" type="line"/>
      <point x="932.795" y="152.5" type="line"/>
      <point x="1350.685" y="1146.98" type="line"/>
      <point x="1374.005" y="1146.98" type="line"/>
      <point x="1403.23" y="583.4949999999999" type="line"/>
      <point x="1435.25" y="0.0" type="line"/>
      <point x="1564.0549999999998" y="0.0" type="line"/>
      <point x="1488.83" y="1278.0" type="line"/>
      <point x="1281.46" y="1278.0" type="line"/>
      <point x="866.7800000000001" y="291.735" type="line"/>
      <point x="849.695" y="291.735" type="line"/>
      <point x="435.545" y="1278.0" type="line"/>
      <point x="228.145" y="1278.0" type="line"/>
    </contour>
  </outline>
</glyph>
<glyph name="N" format="2">
  <advance width="1448.675"/>
  <unicode hex="004E"/>
  <anchor x="725.25" y="0.0" name="bottom"/>
  <anchor x="725.25" y="1278.0" name="top"/>
  <outline>
    <contour>
      <point x="387.17" y="1278.0" type="line"/>
      <point x="185.59" y="1278.0" type="line"/>
      <point x="185.59" y="0.0" type="line"/>
      <point x="314.925" y="0.0" type="line"/>
      <point x="314.925" y="562.38" type="line"/>
      <point x="309.97999999999996" y="1155.37" type="line"/>
      <point x="325.45" y="1155.37" type="line"/>
      <point x="1066.805" y="0.0" type="line"/>
      <point x="1263.085" y="0.0" type="line"/>
      <point x="1263.085" y="1278.0" type="line"/>
      <point x="1134.0149999999999" y="1278.0" type="line"/>
      <point x="1134.0149999999999" y="677.47" type="line"/>
      <point x="1138.96" y="130.815" type="line"/>
      <point x="1123.49" y="130.815" type="line"/>
    </contour>
  </outline>
</glyph>
<glyph name="O" format="2">
  <advance width="1425.3300000000002"/>
  <unicode hex="004F"/>
  <anchor x="712.9000000000001" y="0.0" name="bottom"/>
  <anchor x="712.9000000000001" y="639.0" name="center"/>
  <anchor x="978.605" y="3.825" name="ogonek"/>
  <anchor x="712.9000000000001" y="1278.0" name="top"/>
  <anchor x="13.235" y="1278.0" name="topleft"/>
  <anchor x="1161.245" y="1278.0" name="topright"/>
  <outline>
    <contour>
      <point x="712.4300000000001" y="-24.8" type="curve" smooth="yes"/>
      <point x="1096.66" y="-24.8"/>
      <point x="1306.465" y="184.76500000000001"/>
      <point x="1306.465" y="556.54" type="curve" smooth="yes"/>
      <point x="1306.465" y="722.225" type="line" smooth="yes"/>
      <point x="1306.7" y="1093.735"/>
      <point x="1096.66" y="1302.8"/>
      <point x="712.4300000000001" y="1302.8" type="curve" smooth="yes"/>
      <point x="328.17" y="1302.8"/>
      <point x="118.865" y="1093.735"/>
      <point x="118.865" y="722.225" type="curve" smooth="yes"/>
      <point x="118.865" y="556.54" type="line" smooth="yes"/>
      <point x="118.865" y="184.76500000000001"/>
      <point x="328.17" y="-24.8"/>
    </contour>
    <contour>
      <point x="712.4300000000001" y="85.105" type="curve" smooth="yes"/>
      <point x="410.825" y="85.105"/>
      <point x="253.20500000000004" y="256.22999999999996"/>
      <point x="253.20500000000004" y="554.155" type="curve" smooth="yes"/>
      <point x="253.20500000000004" y="724.845" type="line" smooth="yes"/>
      <point x="253.20500000000004" y="1023.0050000000001"/>
      <point x="410.825" y="1192.895"/>
      <point x="712.4300000000001" y="1192.895" type="curve" smooth="yes"/>
      <point x="1013.975" y="1192.895"/>
      <point x="1172.125" y="1023.0050000000001"/>
      <point x="1172.125" y="724.845" type="curve" smooth="yes"/>
      <point x="1172.125" y="554.155" type="line" smooth="yes"/>
      <point x="1172.125" y="256.22999999999996"/>
      <point x="1013.975" y="85.105"/>
    </contour>
  </outline>
</glyph>
<glyph name="P" format="2">
  <advance width="1312.1399999999999"/>
  <unicode hex="0050"/>
  <anchor x="655.0699999999999" y="0.0" name="bottom"/>
  <anchor x="655.0699999999999" y="1278.0" name="top"/>
  <outline>
    <contour>
      <point x="275.25" y="445.16499999999996" type="line"/>
      <point x="775.26" y="445.16499999999996" type="line" smooth="yes"/>
      <point x="1076.5850000000003" y="445.16499999999996"/>
      <point x="1212.1" y="596.02"/>
      <point x="1212.1" y="833.655" type="curve" smooth="yes"/>
      <point x="1212.1" y="891.1550000000001" type="line" smooth="yes"/>
      <point x="1212.1" y="1128.615"/>
      <point x="1077.0850000000003" y="1278.0"/>
      <point x="776.23" y="1278.0" type="curve" smooth="yes"/>
      <point x="270.34000000000003" y="1278.0" type="line"/>
      <point x="270.34000000000003" y="1170.595" type="line"/>
      <point x="774.23" y="1170.595" type="line" smooth="yes"/>
      <point x="988.865" y="1170.595"/>
      <point x="1079.585" y="1063.74"/>
      <point x="1079.585" y="888.89" type="curve" smooth="yes"/>
      <point x="1079.585" y="835.9499999999999" type="line" smooth="yes"/>
      <point x="1079.585" y="661.1899999999999"/>
      <point x="988.63" y="553.335"/>
      <point x="772.995" y="553.335" type="curve" smooth="yes"/>
      <point x="275.25" y="553.335" type="line"/>
    </contour>
    <contour>
      <point x="185.59" y="0.0" type="line"/>
      <point x="314.925" y="0.0" type="line"/>
      <point x="314.925" y="464.265" type="line"/>
      <point x="314.65999999999997" y="520.28" type="line"/>
      <point x="314.65999999999997" y="1278.0" type="line"/>
      <point x="185.59" y="1278.0" type="line"/>
    </contour>
  </outline>
</glyph>
<glyph name="Q" format="2">
  <advance width="1426.83"/>
  <unicode hex="0051"/>
  <anchor x="713.665" y="0.0" name="bottom"/>
  <anchor x="713.665" y="1278.0" name="top"/>
  <outline>
    <contour>
      <point x="1419.045" y="-38.364999999999995" type="line"/>
      <point x="1419.045" y="77.98500000000001" type="line"/>
      <point x="895.515" y="72.95000000000002" type="line"/>
      <point x="901.39" y="76.195" type="line"/>
      <point x="1122.655" y="103.41000000000001"/>
      <point x="1306.465" y="252.655"/>
      <point x="1306.465" y="567.73" type="curve" smooth="yes"/>
      <point x="1306.465" y="724.875" type="line" smooth="yes"/>
      <point x="1306.465" y="1093.115"/>
      <point x="1097.4250000000002" y="1302.8"/>
      <point x="712.4300000000001" y="1302.8" type="curve" smooth="yes"/>
      <point x="327.935" y="1302.8"/>
      <point x="118.865" y="1094.44"/>
      <point x="118.865" y="722.49" type="curve" smooth="yes"/>
      <point x="118.865" y="557.775" type="line" smooth="yes"/>
      <point x="118.865" y="188.97"/>
      <point x="331.195" y="-14.18"/>
      <point x="767.035" y="-23.89" type="curve" smooth="yes"/>
    </contour>
    <contour>
      <point x="749.015" y="85.635" type="line" smooth="yes"/>
      <point x="436.62" y="90.14000000000001"/>
      <point x="253.20500000000004" y="257.61"/>
      <point x="253.20500000000004" y="554.685" type="curve" smooth="yes"/>
      <point x="253.20500000000004" y="724.845" type="line" smooth="yes"/>
      <point x="253.20500000000004" y="1023.4749999999999"/>
      <point x="411.09" y="1192.895"/>
      <point x="712.165" y="1192.895" type="curve" smooth="yes"/>
      <point x="1013.7099999999999" y="1192.895"/>
      <point x="1172.125" y="1023.4749999999999"/>
      <point x="1172.125" y="724.845" type="curve" smooth="yes"/>
      <point x="1172.125" y="554.4799999999999" type="line" smooth="yes"/>
      <point x="1172.125" y="249.095"/>
      <point x="982.78" y="118.16499999999999"/>
      <point x="773.995" y="85.105" type="curve"/>
    </contour>
  </outline>
</glyph>
<glyph name="R" format="2">
  <advance width="1354.6950000000002"/>
  <unicode hex="0052"/>
  <anchor x="688.2149999999999" y="0.0" name="bottom"/>
  <anchor x="677.98" y="1278.0" name="top"/>
  <outline>
    <contour>
      <point x="1108.9950000000001" y="0.0" type="line"/>
      <point x="1245.955" y="0.0" type="line"/>
      <point x="1196.515" y="267.38" type="line" smooth="yes"/>
      <point x="1159.4250000000002" y="466.745"/>
      <point x="1099.575" y="593.41"/>
      <point x="860.015" y="604.62" type="curve"/>
      <point x="925.38" y="584.9000000000001" type="line"/>
      <point x="925.85" y="596.5949999999999" type="line"/>
      <point x="1136.6399999999999" y="612.285"/>
      <point x="1226.39" y="732.325"/>
      <point x="1226.39" y="909.5500000000001" type="curve" smooth="yes"/>
      <point x="1226.39" y="935.605" type="line" smooth="yes"/>
      <point x="1226.39" y="1146.295"/>
      <point x="1101.435" y="1278.0"/>
      <point x="819.375" y="1278.0" type="curve" smooth="yes"/>
      <point x="269.545" y="1278.0" type="line"/>
      <point x="269.545" y="1170.8899999999999" type="line"/>
      <point x="804.125" y="1170.8899999999999" type="line" smooth="yes"/>
      <point x="1009.3" y="1170.8899999999999"/>
      <point x="1094.14" y="1074.205"/>
      <point x="1094.14" y="916.35" type="curve" smooth="yes"/>
      <point x="1094.14" y="893.56" type="line" smooth="yes"/>
      <point x="1094.14" y="735.5849999999999"/>
      <point x="1008.975" y="630.255"/>
      <point x="807.62" y="630.255" type="curve" smooth="yes"/>
      <point x="272.015" y="629.49" type="line"/>
      <point x="272.015" y="526.0600000000001" type="line"/>
      <point x="768.0400000000001" y="525.5300000000001" type="line" smooth="yes"/>
      <point x="984.45" y="525.265"/>
      <point x="1036.915" y="413.0"/>
      <point x="1066.5" y="247.13000000000002" type="curve" smooth="yes"/>
    </contour>
    <contour>
      <point x="185.59" y="0.0" type="line"/>
      <point x="314.66" y="0.0" type="line"/>
      <point x="314.66" y="544.48" type="line"/>
      <point x="314.395" y="594.3100000000001" type="line"/>
      <point x="314.395" y="1278.0" type="line"/>
      <point x="185.59" y="1278.0" type="line"/>
    </contour>
  </outline>
</glyph>
<glyph name="S" format="2">
  <advance width="1245.1000000000001"/>
  <unicode hex="0053"/>
  <anchor x="616.535" y="0.0" name="bottom"/>
  <anchor x="616.535" y="1278.0" name="top"/>
  <outline>
    <contour>
      <point x="619.38" y="-23.21" type="curve" smooth="yes"/>
      <point x="958.555" y="-23.21"/>
      <point x="1131.71" y="97.235"/>
      <point x="1131.71" y="335.515" type="curve" smooth="yes"/>
      <point x="1131.71" y="348.015" type="line" smooth="yes"/>
      <point x="1131.71" y="584.265"/>
      <point x="1005.6899999999999" y="663.79"/>
      <point x="645.205" y="711.65" type="curve" smooth="yes"/>
      <point x="319.59999999999997" y="754.535"/>
      <point x="245.23000000000002" y="821.02"/>
      <point x="245.23000000000002" y="963.19" type="curve" smooth="yes"/>
      <point x="245.23000000000002" y="965.925" type="line" smooth="yes"/>
      <point x="245.23000000000002" y="1105.975"/>
      <point x="344.94" y="1189.805"/>
      <point x="600.29" y="1189.805" type="curve" smooth="yes"/>
      <point x="808.3349999999999" y="1189.805"/>
      <point x="966.87" y="1135.3700000000001"/>
      <point x="1080.615" y="1069.96" type="curve"/>
      <point x="1066.87" y="1190.135" type="line"/>
      <point x="973.5649999999999" y="1243.1899999999998"/>
      <point x="814.39" y="1300.24"/>
      <point x="587.98" y="1300.24" type="curve" smooth="yes"/>
      <point x="262.70000000000005" y="1300.24"/>
      <point x="111.155" y="1179.825"/>
      <point x="111.155" y="967.7800000000001" type="curve" smooth="yes"/>
      <point x="111.155" y="962.6600000000001" type="line" smooth="yes"/>
      <point x="111.155" y="751.11"/>
      <point x="226.5" y="654.315"/>
      <point x="595.75" y="607.75" type="curve" smooth="yes"/>
      <point x="903.765" y="569.895"/>
      <point x="997.37" y="512.41"/>
      <point x="997.37" y="346.21999999999997" type="curve" smooth="yes"/>
      <point x="997.37" y="336.075" type="line" smooth="yes"/>
      <point x="997.37" y="172.94"/>
      <point x="871.34" y="90.93500000000002"/>
      <point x="616.0799999999999" y="90.93500000000002" type="curve" smooth="yes"/>
      <point x="402.53000000000003" y="90.93500000000002"/>
      <point x="226.52" y="158.285"/>
      <point x="105.045" y="231.22" type="curve"/>
      <point x="119.025" y="100.41999999999999" type="line"/>
      <point x="214.24" y="46.22"/>
      <point x="386.625" y="-23.21"/>
    </contour>
  </outline>
</glyph>
<glyph name="T" format="2">
  <advance width="1259.94"/>
  <unicode hex="0054"/>
  <anchor x="630.22" y="0.0" name="bottom"/>
  <anchor x="630.22" y="639.0" name="center"/>
  <anchor x="630.22" y="1278.0" name="top"/>
  <outline>
    <contour>
      <point x="564.6399999999999" y="0.0" type="line"/>
      <point x="695.565" y="0.0" type="line"/>
      <point x="695.565" y="1249.91" type="line"/>
      <point x="564.6399999999999" y="1249.91" type="line"/>
    </contour>
    <contour>
      <point x="80.99" y="1169.535" type="line"/>
      <point x="1178.9499999999998" y="1169.535" type="line"/>
      <point x="1178.9499999999998" y="1278.0" type="line"/>
      <point x="80.99" y="1278.0" type="line"/>
    </contour>
  </outline>
</glyph>
<glyph name="U" format="2">
  <advance width="1425.1750000000002"/>
  <unicode hex="0055"/>
  <anchor x="712.72" y="0.0" name="bottom"/>
  <anchor x="972.65" y="3.825" name="ogonek"/>
  <anchor x="712.72" y="1278.0" name="top"/>
  <anchor x="1388.95" y="1278.0" name="topright"/>
  <outline>
    <contour>
      <point x="712.72" y="-24.8" type="curve" smooth="yes"/>
      <point x="1079.635" y="-24.8"/>
      <point x="1251.555" y="165.82"/>
      <point x="1251.555" y="518.9250000000001" type="curve" smooth="yes"/>
      <point x="1251.555" y="1278.0" type="line"/>
      <point x="1120.63" y="1278.0" type="line"/>
      <point x="1120.63" y="518.335" type="line" smooth="yes"/>
      <point x="1120.63" y="239.875"/>
      <point x="995.33" y="86.96000000000001"/>
      <point x="712.72" y="86.96000000000001" type="curve" smooth="yes"/>
      <point x="430.11" y="86.96000000000001"/>
      <point x="304.545" y="239.875"/>
      <point x="304.545" y="518.335" type="curve" smooth="yes"/>
      <point x="304.545" y="1278.0" type="line"/>
      <point x="173.62" y="1278.0" type="line"/>
      <point x="173.62" y="518.9250000000001" type="line" smooth="yes"/>
      <point x="173.62" y="165.82"/>
      <point x="345.86499999999995" y="-24.8"/>
    </contour>
  </outline>
</glyph>
<glyph name="V" format="2">
  <advance width="1331.155"/>
  <unicode hex="0056"/>
  <anchor x="665.9599999999999" y="0.0" name="bottom"/>
  <anchor x="665.9599999999999" y="1278.0" name="top"/>
  <outline>
    <contour>
      <point x="560.095" y="0.0" type="line"/>
      <point x="772.09" y="0.0" type="line"/>
      <point x="1270.9099999999999" y="1278.0" type="line"/>
      <point x="1131.89" y="1278.0" type="line"/>
      <point x="678.665" y="100.605" type="line"/>
      <point x="652.49" y="100.605" type="line"/>
      <point x="199.26500000000001" y="1278.0" type="line"/>
      <point x="60.245" y="1278.0" type="line"/>
    </contour>
  </outline>
</glyph>
<glyph name="W" format="2">
  <advance width="1904.82"/>
  <unicode hex="0057"/>
  <anchor x="952.895" y="0.0" name="bottom"/>
  <anchor x="952.895" y="1278.0" name="top"/>
  <outline>
    <contour>
      <point x="429.355" y="0.0" type="line"/>
      <point x="638.8199999999999" y="0.0" type="line"/>
      <point x="854.24" y="793.4" type="line"/>
      <point x="943.6899999999999" y="1134.125" type="line"/>
      <point x="961.395" y="1134.125" type="line"/>
      <point x="1050.845" y="793.4" type="line"/>
      <point x="1267.0" y="0.0" type="line"/>
      <point x="1475.73" y="0.0" type="line"/>
      <point x="1825.105" y="1278.0" type="line"/>
      <point x="1688.7050000000002" y="1278.0" type="line"/>
      <point x="1403.1650000000002" y="214.03000000000003" type="line"/>
      <point x="1378.8600000000001" y="110.055" type="line"/>
      <point x="1357.775" y="110.055" type="line"/>
      <point x="1333.735" y="213.79500000000002" type="line"/>
      <point x="1050.375" y="1241.6200000000001" type="line"/>
      <point x="854.24" y="1241.6200000000001" type="line"/>
      <point x="571.32" y="214.06" type="line"/>
      <point x="547.28" y="110.055" type="line"/>
      <point x="526.695" y="110.055" type="line"/>
      <point x="502.125" y="214.06" type="line"/>
      <point x="217.115" y="1278.0" type="line"/>
      <point x="79.715" y="1278.0" type="line"/>
    </contour>
  </outline>
</glyph>
<glyph name="X" format="2">
  <advance width="1336.09"/>
  <unicode hex="0058"/>
  <anchor x="668.545" y="0.0" name="bottom"/>
  <anchor x="668.545" y="1278.0" name="top"/>
  <outline>
    <contour>
      <point x="68.065" y="0.0" type="line"/>
      <point x="219.445" y="0.0" type="line"/>
      <point x="661.485" y="581.8000000000001" type="line"/>
      <point x="675.34" y="581.8000000000001" type="line"/>
      <point x="1116.8799999999999" y="0.0" type="line"/>
      <point x="1268.025" y="0.0" type="line"/>
      <point x="760.235" y="671.865" type="line"/>
      <point x="760.5" y="645.1999999999999" type="line"/>
      <point x="1259.6399999999999" y="1278.0" type="line"/>
      <point x="1110.1150000000002" y="1278.0" type="line"/>
      <point x="675.34" y="727.6700000000001" type="line"/>
      <point x="661.75" y="727.6700000000001" type="line"/>
      <point x="226.24" y="1278.0" type="line"/>
      <point x="76.95" y="1278.0" type="line"/>
      <point x="576.09" y="645.1999999999999" type="line"/>
      <point x="576.355" y="671.865" type="line"/>
    </contour>
  </outline>
</glyph>
<glyph name="Y" format="2">
  <advance width="1289.71"/>
  <unicode hex="0059"/>
  <anchor x="645.105" y="0.0" name="bottom"/>
  <anchor x="645.105" y="1278.0" name="top"/>
  <anchor x="21.41" y="1278.0" name="topleft"/>
  <outline>
    <contour>
      <point x="588.385" y="390.56" type="line"/>
      <point x="701.8549999999999" y="390.56" type="line"/>
      <point x="1237.585" y="1278.0" type="line"/>
      <point x="1093.4750000000001" y="1278.0" type="line"/>
      <point x="771.0649999999999" y="742.13" type="line"/>
      <point x="651.4" y="536.575" type="line"/>
      <point x="638.575" y="536.575" type="line"/>
      <point x="518.88" y="742.6600000000001" type="line"/>
      <point x="196.235" y="1278.0" type="line"/>
      <point x="52.125" y="1278.0" type="line"/>
    </contour>
    <contour>
      <point x="580.5550000000001" y="0.0" type="line"/>
      <point x="709.6850000000001" y="0.0" type="line"/>
      <point x="709.6850000000001" y="508.03000000000003" type="line"/>
      <point x="580.5550000000001" y="508.03000000000003" type="line"/>
    </contour>
  </outline>
</glyph>
<glyph name="Z" format="2">
  <advance width="1233.335"/>
  <unicode hex="005A"/>
  <anchor x="617.3000000000001" y="0.0" name="bottom"/>
  <anchor x="617.3000000000001" y="639.0" name="center"/>
  <anchor x="617.3000000000001" y="1278.0" name="top"/>
  <outline>
    <contour>
      <point x="1126.3250000000003" y="109.23" type="line"/>
      <point x="269.225" y="109.23" type="line"/>
      <point x="1118.7350000000001" y="1176.715" type="line"/>
      <point x="1118.7350000000001" y="1278.0" type="line"/>
      <point x="112.16" y="1278.0" type="line"/>
      <point x="112.16" y="1169.8" type="line"/>
      <point x="955.52" y="1169.8" type="line"/>
      <point x="107.27499999999999" y="101.785" type="line"/>
      <point x="107.27499999999999" y="0.0" type="line"/>
      <point x="1126.3250000000003" y="0.0" type="line"/>
    </contour>
  </outline>
</glyph>
<glyph name="bracketleft" format="2">
  <advance width="694.3000000000001"/>
  <unicode hex="005B"/>
  <outline>
    <contour>
      <point x="186.09" y="-240.125" type="line"/>
      <point x="623.335" y="-240.125" type="line"/>
      <point x="623.335" y="-140.64" type="line"/>
      <point x="306.535" y="-140.64" type="line"/>
      <point x="306.535" y="1249.81" type="line"/>
      <point x="623.335" y="1249.81" type="line"/>
      <point x="623.335" y="1349.03" type="line"/>
      <point x="186.09" y="1349.03" type="line"/>
    </contour>
  </outline>
</glyph>
<glyph name="backslash" format="2">
  <advance width="961.9399999999999"/>
  <unicode hex="005C"/>
  <outline>
    <contour>
      <point x="915.68" y="-234.745" type="line"/>
      <point x="171.73499999999999" y="1332.36" type="line"/>
      <point x="46.26" y="1332.36" type="line"/>
      <point x="789.675" y="-234.745" type="line"/>
    </contour>
  </outline>
</glyph>
<glyph name="bracketright" format="2">
  <advance width="694.3000000000001"/>
  <unicode hex="005D"/>
  <outline>
    <contour>
      <point x="508.21" y="-240.125" type="line"/>
      <point x="508.21" y="1349.03" type="line"/>
      <point x="70.96499999999999" y="1349.03" type="line"/>
      <point x="70.96499999999999" y="1249.81" type="line"/>
      <point x="387.765" y="1249.81" type="line"/>
      <point x="387.765" y="-140.64" type="line"/>
      <point x="70.96499999999999" y="-140.64" type="line"/>
      <point x="70.96499999999999" y="-240.125" type="line"/>
    </contour>
  </outline>
</glyph>
<glyph name="asciicircum" format="2">
  <advance width="966.065"/>
  <unicode hex="005E"/>
  <outline>
    <contour>
      <point x="394.87" y="1278.0" type="line"/>
      <point x="70.42" y="608.615" type="line"/>
      <point x="188.915" y="608.615" type="line"/>
      <point x="473.49" y="1198.3300000000002" type="line"/>
      <point x="492.575" y="1198.3300000000002" type="line"/>
      <point x="777.4150000000001" y="608.615" type="line"/>
      <point x="895.645" y="608.615" type="line"/>
      <point x="571.195" y="1278.0" type="line"/>
    </contour>
  </outline>
</glyph>
<glyph name="underscore" format="2">
  <advance width="1074.7350000000001"/>
  <unicode hex="005F"/>
  <outline>
    <contour>
      <point x="69.985" y="-197.225" type="line"/>
      <point x="1005.015" y="-197.225" type="line"/>
      <point x="1005.015" y="-97.65" type="line"/>
      <point x="69.985" y="-97.65" type="line"/>
    </contour>
  </outline>
</glyph>
<glyph name="grave" format="2">
  <advance width="585.0200000000001"/>
  <unicode hex="0060"/>
  <anchor x="431.71500000000003" y="964.945" name="_top"/>
  <anchor x="429.745" y="1325.2250000000001" name="top"/>
  <outline>
    <contour>
      <point x="248.24999999999997" y="1375.855" type="line"/>
      <point x="99.995" y="1375.855" type="line"/>
      <point x="99.995" y="1372.295" type="line"/>
      <point x="368.88000000000005" y="1102.43" type="line"/>
      <point x="488.025" y="1102.43" type="line"/>
      <point x="488.025" y="1105.2549999999999" type="line"/>
    </contour>
  </outline>
</glyph>
<glyph name="a" format="2">
  <advance width="1141.585"/>
  <unicode hex="0061"/>
  <anchor x="560.72" y="0.0" name="bottom"/>
  <anchor x="1043.78" y="1.3250000000000002" name="ogonek"/>
  <anchor x="560.72" y="964.945" name="top"/>
  <outline>
    <contour>
      <point x="872.6850000000001" y="0.0" type="line"/>
      <point x="999.9899999999999" y="0.0" type="line"/>
      <point x="999.9899999999999" y="607.125" type="line" smooth="yes"/>
      <point x="999.9899999999999" y="837.78"/>
      <point x="877.73" y="989.595"/>
      <point x="569.89" y="989.595" type="curve" smooth="yes"/>
      <point x="371.25" y="989.595"/>
      <point x="231.51" y="925.605"/>
      <point x="149.85" y="874.4300000000001" type="curve"/>
      <point x="136.36999999999998" y="763.765" type="line"/>
      <point x="237.20499999999998" y="823.935"/>
      <point x="376.175" y="883.25"/>
      <point x="552.665" y="883.25" type="curve" smooth="yes"/>
      <point x="773.23" y="883.25"/>
      <point x="874.745" y="788.185"/>
      <point x="874.745" y="610.335" type="curve"/>
      <point x="874.215" y="566.0450000000001" type="line"/>
      <point x="874.215" y="294.82000000000005" type="line"/>
      <point x="879.07" y="270.275" type="line"/>
    </contour>
    <contour>
      <point x="446.8" y="-23.855" type="curve" smooth="yes"/>
      <point x="719.28" y="-23.855"/>
      <point x="850.485" y="117.525"/>
      <point x="878.645" y="271.40999999999997" type="curve"/>
      <point x="904.7199999999999" y="271.40999999999997" type="line"/>
      <point x="880.6550000000001" y="362.975" type="line"/>
      <point x="849.36" y="206.99"/>
      <point x="709.62" y="82.255"/>
      <point x="481.715" y="82.255" type="curve" smooth="yes"/>
      <point x="313.58000000000004" y="82.255"/>
      <point x="219.435" y="145.325"/>
      <point x="219.435" y="264.02" type="curve" smooth="yes"/>
      <point x="219.435" y="277.575" type="line" smooth="yes"/>
      <point x="219.435" y="396.54"/>
      <point x="301.32" y="446.23"/>
      <point x="517.62" y="467.99" type="curve" smooth="yes"/>
      <point x="897.605" y="507.28" type="line"/>
      <point x="893.395" y="598.905" type="line"/>
      <point x="504.465" y="559.115" type="line" smooth="yes"/>
      <point x="216.965" y="529.85"/>
      <point x="92.365" y="451.90500000000003"/>
      <point x="92.365" y="269.36" type="curve" smooth="yes"/>
      <point x="92.365" y="250.095" type="line" smooth="yes"/>
      <point x="92.365" y="72.44500000000001"/>
      <point x="222.655" y="-23.855"/>
    </contour>
  </outline>
</glyph>
<glyph name="b" format="2">
  <advance width="1256.2"/>
  <unicode hex="0062"/>
  <anchor x="631.63" y="0.0" name="bottom"/>
  <anchor x="631.63" y="1323.85" name="top"/>
  <outline>
    <contour>
      <point x="695.285" y="-23.855" type="curve" smooth="yes"/>
      <point x="983.395" y="-23.855"/>
      <point x="1146.6299999999999" y="135.35500000000002"/>
      <point x="1146.6299999999999" y="434.92" type="curve" smooth="yes"/>
      <point x="1146.6299999999999" y="531.35" type="line" smooth="yes"/>
      <point x="1146.6299999999999" y="829.18"/>
      <point x="984.425" y="988.8"/>
      <point x="701.375" y="988.8" type="curve" smooth="yes"/>
      <point x="451.45" y="988.8"/>
      <point x="311.835" y="851.8"/>
      <point x="283.0" y="692.3900000000001" type="curve"/>
      <point x="244.44" y="692.3900000000001" type="line"/>
      <point x="278.07500000000005" y="596.555" type="line"/>
      <point x="311.37" y="761.985"/>
      <point x="457.225" y="885.0749999999999"/>
      <point x="661.66" y="885.0749999999999" type="curve" smooth="yes"/>
      <point x="889.79" y="885.0749999999999"/>
      <point x="1018.5" y="764.63"/>
      <point x="1018.5" y="536.415" type="curve" smooth="yes"/>
      <point x="1018.5" y="433.535" type="line" smooth="yes"/>
      <point x="1018.5" y="203.67000000000002"/>
      <point x="889.0550000000001" y="82.255"/>
      <point x="664.63" y="82.255" type="curve" smooth="yes"/>
      <point x="462.245" y="82.255"/>
      <point x="295.66" y="188.09"/>
      <point x="283.575" y="408.96999999999997" type="curve"/>
      <point x="240.20000000000002" y="283.835" type="line"/>
      <point x="283.35" y="283.835" type="line"/>
      <point x="306.345" y="93.735"/>
      <point x="466.07" y="-23.855"/>
    </contour>
    <contour>
      <point x="160.8" y="0.0" type="line"/>
      <point x="288.135" y="0.0" type="line"/>
      <point x="281.045" y="273.03499999999997" type="line"/>
      <point x="283.575" y="314.03499999999997" type="line"/>
      <point x="283.575" y="656.77" type="line"/>
      <point x="282.34" y="687.4300000000001" type="line"/>
      <point x="287.34000000000003" y="977.9200000000001" type="line"/>
      <point x="287.34000000000003" y="1323.85" type="line"/>
      <point x="160.8" y="1323.85" type="line"/>
    </contour>
  </outline>
</glyph>
<glyph name="c" format="2">
  <advance width="1049.825"/>
  <unicode hex="0063"/>
  <anchor x="572.09" y="0.0" name="bottom"/>
  <anchor x="572.09" y="964.945" name="top"/>
  <outline>
    <contour>
      <point x="591.925" y="-24.915000000000003" type="curve" smooth="yes"/>
      <point x="766.76" y="-24.915000000000003"/>
      <point x="883.0" y="27.31"/>
      <point x="952.8299999999999" y="75.83500000000001" type="curve"/>
      <point x="965.72" y="192.445" type="line"/>
      <point x="884.3599999999999" y="134.51000000000002"/>
      <point x="774.775" y="83.255"/>
      <point x="610.885" y="83.255" type="curve" smooth="yes"/>
      <point x="364.885" y="83.255"/>
      <point x="236.905" y="210.85"/>
      <point x="236.905" y="440.365" type="curve" smooth="yes"/>
      <point x="236.905" y="529.67" type="line" smooth="yes"/>
      <point x="236.905" y="759.48"/>
      <point x="364.53" y="884.3100000000001"/>
      <point x="607.12" y="884.3100000000001" type="curve" smooth="yes"/>
      <point x="767.015" y="884.3100000000001"/>
      <point x="876.3349999999999" y="834.465"/>
      <point x="955.22" y="776.0899999999999" type="curve"/>
      <point x="942.8" y="891.17" type="line"/>
      <point x="876.94" y="936.52"/>
      <point x="762.26" y="990.655"/>
      <point x="591.395" y="990.655" type="curve" smooth="yes"/>
      <point x="274.43" y="990.655"/>
      <point x="108.77499999999999" y="827.03"/>
      <point x="108.77499999999999" y="530.995" type="curve" smooth="yes"/>
      <point x="108.77499999999999" y="438.54" type="line" smooth="yes"/>
      <point x="108.77499999999999" y="139.97500000000002"/>
      <point x="273.93" y="-24.915000000000003"/>
    </contour>
  </outline>
</glyph>
<glyph name="d" format="2">
  <advance width="1256.2"/>
  <unicode hex="0064"/>
  <anchor x="624.805" y="0.0" name="bottom"/>
  <anchor x="624.805" y="482.855" name="center"/>
  <anchor x="624.805" y="1323.85" name="top"/>
  <anchor x="1282.6850000000002" y="1323.85" name="topright"/>
  <outline>
    <contour>
      <point x="556.355" y="-23.855" type="curve" smooth="yes"/>
      <point x="806.84" y="-23.855"/>
      <point x="945.16" y="113.38"/>
      <point x="974.2600000000001" y="272.555" type="curve"/>
      <point x="1012.615" y="272.555" type="line"/>
      <point x="978.125" y="369.95" type="line"/>
      <point x="945.3" y="205.05"/>
      <point x="798.505" y="82.255"/>
      <point x="595.04" y="82.255" type="curve" smooth="yes"/>
      <point x="366.175" y="82.255"/>
      <point x="237.70000000000002" y="203.905"/>
      <point x="237.70000000000002" y="431.415" type="curve" smooth="yes"/>
      <point x="237.70000000000002" y="535.355" type="line" smooth="yes"/>
      <point x="237.70000000000002" y="763.9250000000001"/>
      <point x="366.94" y="885.0749999999999"/>
      <point x="592.6899999999999" y="885.0749999999999" type="curve" smooth="yes"/>
      <point x="796.875" y="885.0749999999999"/>
      <point x="960.8050000000001" y="778.5"/>
      <point x="972.625" y="558.36" type="curve"/>
      <point x="1014.47" y="681.11" type="line"/>
      <point x="971.79" y="681.11" type="line"/>
      <point x="949.06" y="871.2099999999999"/>
      <point x="789.66" y="988.8"/>
      <point x="560.71" y="988.8" type="curve" smooth="yes"/>
      <point x="272.07" y="988.8"/>
      <point x="109.57" y="829.5899999999999"/>
      <point x="109.57" y="530.26" type="curve" smooth="yes"/>
      <point x="109.57" y="433.59499999999997" type="line" smooth="yes"/>
      <point x="109.57" y="136.235"/>
      <point x="270.68499999999995" y="-23.855"/>
    </contour>
    <contour>
      <point x="968.065" y="0.0" type="line"/>
      <point x="1095.3999999999999" y="0.0" type="line"/>
      <point x="1095.3999999999999" y="1323.85" type="line"/>
      <point x="968.86" y="1323.85" type="line"/>
      <point x="968.86" y="977.9200000000001" type="line"/>
      <point x="973.625" y="688.49" type="line"/>
      <point x="972.625" y="656.77" type="line"/>
      <point x="972.625" y="314.03499999999997" type="line"/>
      <point x="974.92" y="273.03499999999997" type="line"/>
    </contour>
  </outline>
</glyph>
<glyph name="e" format="2">
  <advance width="1157.17"/>
  <unicode hex="0065"/>
  <anchor x="589.4250000000001" y="0.0" name="bottom"/>
  <anchor x="900.485" y="4.62" name="ogonek"/>
  <anchor x="586.72" y="964.945" name="top"/>
  <outline>
    <contour>
      <point x="615.845" y="-24.915000000000003" type="curve" smooth="yes"/>
      <point x="783.82" y="-24.915000000000003"/>
      <point x="920.0" y="17.14"/>
      <point x="1024.12" y="87.13" type="curve"/>
      <point x="1037.6000000000001" y="200.06" type="line"/>
      <point x="919.01" y="123.33999999999999"/>
      <point x="789.0649999999999" y="82.19500000000001"/>
      <point x="634.07" y="82.19500000000001" type="curve" smooth="yes"/>
      <point x="359.015" y="82.19500000000001"/>
      <point x="235.58" y="211.615"/>
      <point x="235.58" y="414.09" type="curve" smooth="yes"/>
      <point x="235.58" y="477.26500000000004" type="line"/>
      <point x="235.315" y="492.51" type="line"/>
      <point x="235.315" y="546.51" type="line" smooth="yes"/>
      <point x="235.315" y="763.075"/>
      <point x="354.14" y="888.4"/>
      <point x="583.9799999999999" y="888.4" type="curve" smooth="yes"/>
      <point x="814.6750000000001" y="888.4"/>
      <point x="935.385" y="762.11"/>
      <point x="935.385" y="555.0649999999999" type="curve" smooth="yes"/>
      <point x="935.385" y="519.2"/>
      <point x="934.5899999999999" y="476.92"/>
      <point x="932.5" y="435.46500000000003" type="curve"/>
      <point x="1050.7099999999998" y="435.46500000000003" type="line"/>
      <point x="1055.33" y="466.795"/>
      <point x="1057.7150000000001" y="499.28"/>
      <point x="1057.7150000000001" y="530.9399999999999" type="curve" smooth="yes"/>
      <point x="1057.7150000000001" y="551.265" type="line" smooth="yes"/>
      <point x="1057.7150000000001" y="819.18"/>
      <point x="895.18" y="991.5949999999999"/>
      <point x="583.9799999999999" y="991.5949999999999" type="curve" smooth="yes"/>
      <point x="275.31499999999994" y="991.5949999999999"/>
      <point x="108.77499999999999" y="824.825"/>
      <point x="108.77499999999999" y="533.79" type="curve" smooth="yes"/>
      <point x="108.77499999999999" y="426.31" type="line" smooth="yes"/>
      <point x="108.77499999999999" y="138.29500000000002"/>
      <point x="281.93000000000006" y="-24.915000000000003"/>
    </contour>
    <contour>
      <point x="170.79500000000002" y="435.46500000000003" type="line"/>
      <point x="1023.135" y="435.46500000000003" type="line"/>
      <point x="1023.135" y="532.625" type="line"/>
      <point x="170.79500000000002" y="532.625" type="line"/>
    </contour>
  </outline>
</glyph>
<glyph name="f" format="2">
  <advance width="882.255"/>
  <unicode hex="0066"/>
  <anchor x="442.82" y="0.0" name="bottom"/>
  <anchor x="442.82" y="1302.0" name="top"/>
  <outline>
    <contour>
      <point x="540.02" y="1350.53" type="curve" smooth="yes"/>
      <point x="286.6" y="1350.53"/>
      <point x="182.53" y="1248.3549999999998"/>
      <point x="182.53" y="1093.7150000000001" type="curve" smooth="yes"/>
      <point x="182.53" y="1089.2450000000001" type="line" smooth="yes"/>
      <point x="182.53" y="1014.85"/>
      <point x="214.895" y="957.41"/>
      <point x="250.50500000000002" y="922.385" type="curve"/>
      <point x="250.50500000000002" y="906.905" type="line"/>
      <point x="337.59499999999997" y="911.9050000000001" type="line"/>
      <point x="322.35999999999996" y="947.31"/>
      <point x="306.95" y="993.535"/>
      <point x="306.95" y="1046.495" type="curve" smooth="yes"/>
      <point x="306.95" y="1051.2" type="line" smooth="yes"/>
      <point x="306.95" y="1171.23"/>
      <point x="373.67" y="1244.715"/>
      <point x="569.965" y="1244.715" type="curve" smooth="yes"/>
      <point x="674.49" y="1244.715"/>
      <point x="753.87" y="1225.1299999999999"/>
      <point x="840.86" y="1194.9299999999998" type="curve"/>
      <point x="827.115" y="1296.445" type="line"/>
      <point x="744.205" y="1328.59"/>
      <point x="657.225" y="1350.53"/>
    </contour>
    <contour>
      <point x="217.59" y="0.0" type="line"/>
      <point x="343.895" y="0.0" type="line"/>
      <point x="343.895" y="879.0" type="line"/>
      <point x="217.59" y="879.0" type="line"/>
    </contour>
    <contour>
      <point x="20.965000000000003" y="820.3" type="line"/>
      <point x="820.795" y="820.3" type="line"/>
      <point x="833.48" y="921.465" type="line"/>
      <point x="316.16999999999996" y="921.465" type="line"/>
      <point x="267.955" y="920.6700000000001" type="line"/>
      <point x="20.965000000000003" y="921.465" type="line"/>
    </contour>
  </outline>
</glyph>
<glyph name="g" format="2">
  <advance width="1193.015"/>
  <unicode hex="0067"/>
  <anchor x="597.27" y="-342.325" name="bottom"/>
  <anchor x="596.535" y="966.005" name="top"/>
  <outline>
    <contour>
      <point x="597.3" y="311.15000000000003" type="curve"/>
      <point x="905.935" y="311.15000000000003"/>
      <point x="1063.9099999999999" y="416.795"/>
      <point x="1063.9099999999999" y="620.995" type="curve" smooth="yes"/>
      <point x="1063.9099999999999" y="643.155" type="line" smooth="yes"/>
      <point x="1063.9099999999999" y="779.485"/>
      <point x="989.335" y="875.1650000000001"/>
      <point x="797.06" y="901.5500000000001" type="curve"/>
      <point x="796.355" y="905.0" type="line"/>
      <point x="1164.6799999999998" y="898.115" type="line"/>
      <point x="1164.6799999999998" y="999.335" type="line"/>
      <point x="574.115" y="983.475" type="line" smooth="yes"/>
      <point x="263.51" y="975.2950000000001"/>
      <point x="122.535" y="859.5649999999999"/>
      <point x="122.535" y="658.8199999999999" type="curve" smooth="yes"/>
      <point x="122.535" y="636.01" type="line" smooth="yes"/>
      <point x="122.535" y="425.45"/>
      <point x="287.19" y="311.15000000000003"/>
    </contour>
    <contour>
      <point x="588.5649999999999" y="-275.37" type="line" smooth="yes"/>
      <point x="358.715" y="-275.37"/>
      <point x="206.72500000000002" y="-237.875"/>
      <point x="206.72500000000002" y="-110.88" type="curve" smooth="yes"/>
      <point x="206.72500000000002" y="-108.645" type="line" smooth="yes"/>
      <point x="206.72500000000002" y="1.5000000000000009"/>
      <point x="317.395" y="44.345"/>
      <point x="467.405" y="60.459999999999994" type="curve"/>
      <point x="416.715" y="57.605000000000004" type="line"/>
      <point x="763.3100000000001" y="33.72" type="line" smooth="yes"/>
      <point x="929.27" y="22.31"/>
      <point x="994.7550000000001" y="-22.054999999999996"/>
      <point x="994.7550000000001" y="-111.355" type="curve" smooth="yes"/>
      <point x="994.7550000000001" y="-115.09" type="line" smooth="yes"/>
      <point x="994.7550000000001" y="-236.525"/>
      <point x="839.7099999999999" y="-275.37"/>
      <point x="608.42" y="-275.37" type="curve" smooth="yes"/>
    </contour>
    <contour>
      <point x="581.1450000000001" y="-377.73999999999995" type="curve" smooth="yes"/>
      <point x="606.8299999999999" y="-377.73999999999995" type="line" smooth="yes"/>
      <point x="913.735" y="-377.73999999999995"/>
      <point x="1117.35" y="-310.785"/>
      <point x="1117.35" y="-116.83" type="curve" smooth="yes"/>
      <point x="1117.35" y="-113.06500000000001" type="line" smooth="yes"/>
      <point x="1117.35" y="37.405"/>
      <point x="1015.81" y="111.90499999999999"/>
      <point x="783.535" y="129.585" type="curve" smooth="yes"/>
      <point x="491.395" y="151.235" type="line" smooth="yes"/>
      <point x="324.44" y="163.175"/>
      <point x="268.09999999999997" y="188.9"/>
      <point x="268.09999999999997" y="244.52999999999997" type="curve" smooth="yes"/>
      <point x="268.09999999999997" y="245.295" type="line" smooth="yes"/>
      <point x="268.09999999999997" y="294.72"/>
      <point x="306.415" y="321.035"/>
      <point x="432.9" y="322.565" type="curve"/>
      <point x="513.845" y="320.975" type="line"/>
      <point x="337.3" y="367.81" type="line"/>
      <point x="337.3" y="346.03999999999996" type="line"/>
      <point x="200.18499999999997" y="340.945"/>
      <point x="149.625" y="293.74"/>
      <point x="149.625" y="216.5" type="curve" smooth="yes"/>
      <point x="149.625" y="215.73499999999999" type="line" smooth="yes"/>
      <point x="149.625" y="136.20999999999998"/>
      <point x="210.085" y="89.44500000000001"/>
      <point x="346.21000000000004" y="74.26500000000001" type="curve"/>
      <point x="348.795" y="72.96" type="line"/>
      <point x="205.505" y="60.045"/>
      <point x="85.22" y="1.745"/>
      <point x="85.22" y="-133.99499999999998" type="curve" smooth="yes"/>
      <point x="85.22" y="-137.49499999999998" type="line" smooth="yes"/>
      <point x="85.22" y="-320.025"/>
      <point x="280.74499999999995" y="-377.73999999999995"/>
    </contour>
    <contour>
      <point x="595.4449999999999" y="406.395" type="curve" smooth="yes"/>
      <point x="360.1" y="406.395"/>
      <point x="245.925" y="488.67"/>
      <point x="245.925" y="638.3950000000001" type="curve" smooth="yes"/>
      <point x="245.925" y="660.9399999999999" type="line" smooth="yes"/>
      <point x="245.925" y="802.785"/>
      <point x="353.455" y="891.2900000000001"/>
      <point x="594.18" y="891.2900000000001" type="curve" smooth="yes"/>
      <point x="603.06" y="891.2900000000001" type="line" smooth="yes"/>
      <point x="831.17" y="891.2900000000001"/>
      <point x="943.67" y="806.635"/>
      <point x="943.67" y="661.145" type="curve" smooth="yes"/>
      <point x="943.67" y="637.16" type="line" smooth="yes"/>
      <point x="943.67" y="487.375"/>
      <point x="829.26" y="406.395"/>
    </contour>
  </outline>
</glyph>
<glyph name="h" format="2">
  <advance width="1224.88"/>
  <unicode hex="0068"/>
  <anchor x="613.19" y="0.0" name="bottom"/>
  <anchor x="613.19" y="651.5" name="center"/>
  <anchor x="224.32" y="1323.85" name="top"/>
  <outline>
    <contour>
      <point x="952.86" y="0.0" type="line"/>
      <point x="1080.195" y="0.0" type="line"/>
      <point x="1080.195" y="576.205" type="line" smooth="yes"/>
      <point x="1080.195" y="833.775"/>
      <point x="974.6" y="988.8"/>
      <point x="690.555" y="988.8" type="curve" smooth="yes"/>
      <point x="447.84499999999997" y="988.8"/>
      <point x="312.13" y="851.33"/>
      <point x="283.0" y="694.505" type="curve"/>
      <point x="251.51000000000002" y="694.505" type="line"/>
      <point x="280.46" y="599.23" type="line"/>
      <point x="311.815" y="759.395"/>
      <point x="441.02000000000004" y="882.16"/>
      <point x="648.3649999999999" y="882.16" type="curve" smooth="yes"/>
      <point x="874.29" y="882.16"/>
      <point x="952.86" y="756.18"/>
      <point x="952.86" y="561.96" type="curve" smooth="yes"/>
    </contour>
    <contour>
      <point x="160.8" y="0.0" type="line"/>
      <point x="288.135" y="0.0" type="line"/>
      <point x="288.135" y="675.3050000000001" type="line"/>
      <point x="282.81" y="685.895" type="line"/>
      <point x="287.34000000000003" y="979.595" type="line"/>
      <point x="287.34000000000003" y="1323.85" type="line"/>
      <point x="160.8" y="1323.85" type="line"/>
    </contour>
  </outline>
</glyph>
<glyph name="i" format="2">
  <advance width="455.08"/>
  <unicode hex="0069"/>
  <anchor x="227.79" y="0.0" name="bottom"/>
  <anchor x="335.13" y="1.3250000000000002" name="ogonek"/>
  <outline>
    <contour>
      <point x="164.005" y="0.0" type="line"/>
      <point x="291.07500000000005" y="0.0" type="line"/>
      <point x="291.07500000000005" y="964.945" type="line"/>
      <point x="164.005" y="964.945" type="line"/>
    </contour>
    <contour>
      <point x="227.29" y="1156.135" type="curve" smooth="yes"/>
      <point x="287.32" y="1156.135"/>
      <point x="317.01" y="1186.0600000000002"/>
      <point x="317.01" y="1240.1100000000001" type="curve" smooth="yes"/>
      <point x="317.01" y="1245.05" type="line" smooth="yes"/>
      <point x="317.01" y="1297.335"/>
      <point x="287.32" y="1328.055"/>
      <point x="227.29" y="1328.055" type="curve" smooth="yes"/>
      <point x="167.96499999999997" y="1328.055"/>
      <point x="138.33499999999998" y="1297.335"/>
      <point x="138.33499999999998" y="1245.05" type="curve" smooth="yes"/>
      <point x="138.33499999999998" y="1240.1100000000001" type="line" smooth="yes"/>
      <point x="138.33499999999998" y="1186.5900000000001"/>
      <point x="167.96499999999997" y="1156.135"/>
    </contour>
  </outline>
</glyph>
<glyph name="j" format="2">
  <advance width="499.51"/>
  <unicode hex="006A"/>
  <outline>
    <contour>
      <point x="208.435" y="131.05" type="line"/>
      <point x="335.505" y="131.05" type="line"/>
      <point x="335.505" y="964.945" type="line"/>
      <point x="208.435" y="964.945" type="line"/>
    </contour>
    <contour>
      <point x="271.71999999999997" y="1150.835" type="curve" smooth="yes"/>
      <point x="331.75" y="1150.835"/>
      <point x="361.44000000000005" y="1180.76"/>
      <point x="361.44000000000005" y="1234.8100000000002" type="curve" smooth="yes"/>
      <point x="361.44000000000005" y="1239.75" type="line" smooth="yes"/>
      <point x="361.44000000000005" y="1292.035"/>
      <point x="331.75" y="1322.755"/>
      <point x="271.71999999999997" y="1322.755" type="curve" smooth="yes"/>
      <point x="212.395" y="1322.755"/>
      <point x="182.76500000000001" y="1292.035"/>
      <point x="182.76500000000001" y="1239.75" type="curve" smooth="yes"/>
      <point x="182.76500000000001" y="1234.8100000000002" type="line" smooth="yes"/>
      <point x="182.76500000000001" y="1181.29"/>
      <point x="212.395" y="1150.835"/>
    </contour>
    <component base="jbottom"/>
  </outline>
</glyph>
<glyph name="k" format="2">
  <advance width="1129.11"/>
  <unicode hex="006B"/>
  <anchor x="580.665" y="0.0" name="bottom"/>
  <anchor x="576.99" y="1323.85" name="top"/>
  <outline>
    <contour>
      <point x="917.395" y="0.0" type="line"/>
      <point x="1085.81" y="0.0" type="line"/>
      <point x="497.28" y="536.89" type="line"/>
      <point x="497.28" y="502.055" type="line"/>
      <point x="1063.6950000000002" y="964.945" type="line"/>
      <point x="897.46" y="964.945" type="line"/>
      <point x="405.32" y="566.86" type="line"/>
      <point x="266.86" y="566.86" type="line"/>
      <point x="266.86" y="463.16499999999996" type="line"/>
      <point x="404.525" y="463.16499999999996" type="line"/>
    </contour>
    <contour>
      <point x="160.8" y="0.0" type="line"/>
      <point x="287.87" y="0.0" type="line"/>
      <point x="287.87" y="1323.85" type="line"/>
      <point x="160.8" y="1323.85" type="line"/>
    </contour>
  </outline>
</glyph>
<glyph name="l" format="2">
  <advance width="456.815"/>
  <unicode hex="006C"/>
  <anchor x="228.79" y="0.0" name="bottom"/>
  <anchor x="228.79" y="651.5" name="center"/>
  <anchor x="228.79" y="1323.85" name="top"/>
  <anchor x="479.86" y="1323.85" name="topright"/>
  <outline>
    <contour>
      <point x="164.74" y="0.0" type="line"/>
      <point x="292.075" y="0.0" type="line"/>
      <point x="292.075" y="1323.85" type="line"/>
      <point x="164.74" y="1323.85" type="line"/>
    </contour>
  </outline>
</glyph>
<glyph name="m" format="2">
  <advance width="1898.695"/>
  <unicode hex="006D"/>
  <anchor x="949.215" y="0.0" name="bottom"/>
  <anchor x="949.215" y="964.945" name="top"/>
  <outline>
    <contour>
      <point x="1626.675" y="0.0" type="line"/>
      <point x="1754.01" y="0.0" type="line"/>
      <point x="1754.01" y="576.8249999999999" type="line" smooth="yes"/>
      <point x="1754.01" y="836.4200000000001"/>
      <point x="1654.5049999999999" y="988.8"/>
      <point x="1393.6299999999999" y="988.8" type="curve" smooth="yes"/>
      <point x="1161.6999999999998" y="988.8"/>
      <point x="1037.9299999999998" y="850.9449999999999"/>
      <point x="1006.4150000000001" y="698.735" type="curve"/>
      <point x="988.0250000000001" y="698.735" type="line"/>
      <point x="1012.705" y="603.11" type="line"/>
      <point x="1041.09" y="760.395"/>
      <point x="1161.56" y="882.16"/>
      <point x="1350.675" y="882.16" type="curve" smooth="yes"/>
      <point x="1555.31" y="882.16"/>
      <point x="1626.675" y="756.71"/>
      <point x="1626.675" y="563.285" type="curve" smooth="yes"/>
    </contour>
    <contour>
      <point x="160.8" y="0.0" type="line"/>
      <point x="288.135" y="0.0" type="line"/>
      <point x="288.135" y="683.5699999999999" type="line"/>
      <point x="281.75" y="694.965" type="line"/>
      <point x="288.135" y="964.945" type="line"/>
      <point x="160.8" y="964.945" type="line"/>
    </contour>
    <contour>
      <point x="893.87" y="0.0" type="line"/>
      <point x="1020.94" y="0.0" type="line"/>
      <point x="1020.94" y="586.095" type="line" smooth="yes"/>
      <point x="1020.94" y="616.125"/>
      <point x="1018.35" y="650.19"/>
      <point x="1013.2900000000001" y="680.4799999999999" type="curve"/>
      <point x="985.0550000000001" y="883.65"/>
      <point x="875.735" y="988.8"/>
      <point x="661.03" y="988.8" type="curve" smooth="yes"/>
      <point x="434.785" y="988.8"/>
      <point x="309.57000000000005" y="851.33"/>
      <point x="282.205" y="694.505" type="curve"/>
      <point x="255.72" y="694.505" type="line"/>
      <point x="279.665" y="598.995" type="line"/>
      <point x="308.755" y="759.395"/>
      <point x="427.815" y="882.16"/>
      <point x="618.105" y="882.16" type="curve" smooth="yes"/>
      <point x="822.505" y="882.16"/>
      <point x="893.87" y="756.71"/>
      <point x="893.87" y="563.0500000000001" type="curve" smooth="yes"/>
    </contour>
  </outline>
</glyph>
<glyph name="n" format="2">
  <advance width="1224.88"/>
  <unicode hex="006E"/>
  <anchor x="613.19" y="0.0" name="bottom"/>
  <anchor x="613.19" y="964.945" name="top"/>
  <outline>
    <contour>
      <point x="952.86" y="0.0" type="line"/>
      <point x="1080.195" y="0.0" type="line"/>
      <point x="1080.195" y="576.205" type="line" smooth="yes"/>
      <point x="1080.195" y="833.775"/>
      <point x="974.6" y="988.8"/>
      <point x="690.555" y="988.8" type="curve" smooth="yes"/>
      <point x="446.225" y="988.8"/>
      <point x="311.335" y="851.33"/>
      <point x="281.94" y="694.505" type="curve"/>
      <point x="254.98000000000005" y="694.505" type="line"/>
      <point x="279.665" y="598.995" type="line"/>
      <point x="311.02" y="759.395"/>
      <point x="440.725" y="882.16"/>
      <point x="647.8349999999999" y="882.16" type="curve" smooth="yes"/>
      <point x="874.29" y="882.16"/>
      <point x="952.86" y="756.18"/>
      <point x="952.86" y="561.96" type="curve" smooth="yes"/>
    </contour>
    <contour>
      <point x="160.8" y="0.0" type="line"/>
      <point x="288.135" y="0.0" type="line"/>
      <point x="288.135" y="685.1" type="line"/>
      <point x="281.75" y="695.4350000000001" type="line"/>
      <point x="288.135" y="964.945" type="line"/>
      <point x="160.8" y="964.945" type="line"/>
    </contour>
  </outline>
</glyph>
<glyph name="o" format="2">
  <advance width="1213.55"/>
  <unicode hex="006F"/>
  <anchor x="607.04" y="0.0" name="bottom"/>
  <anchor x="610.48" y="416.94" name="center"/>
  <anchor x="860.425" y="2.6500000000000004" name="ogonek"/>
  <anchor x="607.04" y="964.945" name="top"/>
  <anchor x="1042.7800000000002" y="964.945" name="topright"/>
  <outline>
    <contour>
      <point x="607.01" y="-25.855" type="curve" smooth="yes"/>
      <point x="931.5" y="-25.855"/>
      <point x="1104.7749999999999" y="136.68"/>
      <point x="1104.7749999999999" y="437.215" type="curve"/>
      <point x="1104.7749999999999" y="530.26" type="line"/>
      <point x="1104.7749999999999" y="829.295"/>
      <point x="931.5" y="991.5949999999999"/>
      <point x="607.01" y="991.5949999999999" type="curve" smooth="yes"/>
      <point x="282.55" y="991.5949999999999"/>
      <point x="108.77499999999999" y="829.295"/>
      <point x="108.77499999999999" y="530.26" type="curve"/>
      <point x="108.77499999999999" y="437.215" type="line"/>
      <point x="108.77499999999999" y="137.65"/>
      <point x="281.58" y="-25.855"/>
    </contour>
    <contour>
      <point x="607.01" y="77.87" type="curve" smooth="yes"/>
      <point x="367.145" y="77.87"/>
      <point x="236.64000000000001" y="203.17000000000002"/>
      <point x="236.64000000000001" y="434.035" type="curve" smooth="yes"/>
      <point x="236.64000000000001" y="533.44" type="line" smooth="yes"/>
      <point x="236.64000000000001" y="763.305"/>
      <point x="367.145" y="887.87"/>
      <point x="607.01" y="887.87" type="curve" smooth="yes"/>
      <point x="847.405" y="887.87"/>
      <point x="977.175" y="763.305"/>
      <point x="977.175" y="533.44" type="curve" smooth="yes"/>
      <point x="977.175" y="434.035" type="line" smooth="yes"/>
      <point x="977.175" y="203.17000000000002"/>
      <point x="846.435" y="77.87"/>
    </contour>
  </outline>
</glyph>
<glyph name="p" format="2">
  <advance width="1256.2"/>
  <unicode hex="0070"/>
  <anchor x="632.13" y="0.0" name="bottom"/>
  <anchor x="632.13" y="964.945" name="top"/>
  <outline>
    <contour>
      <point x="695.02" y="-23.855" type="curve" smooth="yes"/>
      <point x="983.66" y="-23.855"/>
      <point x="1146.6299999999999" y="135.35500000000002"/>
      <point x="1146.6299999999999" y="435.185" type="curve" smooth="yes"/>
      <point x="1146.6299999999999" y="531.615" type="line" smooth="yes"/>
      <point x="1146.6299999999999" y="829.18"/>
      <point x="985.75" y="988.8"/>
      <point x="699.7850000000001" y="988.8" type="curve" smooth="yes"/>
      <point x="449.85999999999996" y="988.8"/>
      <point x="311.04" y="851.8"/>
      <point x="281.94" y="692.3900000000001" type="curve"/>
      <point x="242.64499999999998" y="692.3900000000001" type="line"/>
      <point x="278.07500000000005" y="596.555" type="line"/>
      <point x="311.37" y="761.985"/>
      <point x="457.225" y="885.0749999999999"/>
      <point x="661.395" y="885.0749999999999" type="curve" smooth="yes"/>
      <point x="889.79" y="885.0749999999999"/>
      <point x="1018.5" y="764.63"/>
      <point x="1018.5" y="536.68" type="curve" smooth="yes"/>
      <point x="1018.5" y="432.73999999999995" type="line" smooth="yes"/>
      <point x="1018.5" y="203.935"/>
      <point x="888.7900000000001" y="82.785"/>
      <point x="663.5699999999999" y="82.785" type="curve" smooth="yes"/>
      <point x="460.91999999999996" y="82.785"/>
      <point x="295.395" y="187.295"/>
      <point x="283.575" y="406.84999999999997" type="curve"/>
      <point x="242.67000000000002" y="283.835" type="line"/>
      <point x="284.41" y="283.835" type="line"/>
      <point x="307.14000000000004" y="93.735"/>
      <point x="466.335" y="-23.855"/>
    </contour>
    <contour>
      <point x="160.8" y="-341.0" type="line"/>
      <point x="287.34000000000003" y="-341.0" type="line"/>
      <point x="287.34000000000003" y="-8.480000000000002" type="line"/>
      <point x="282.105" y="276.925" type="line"/>
      <point x="283.575" y="311.65" type="line"/>
      <point x="283.575" y="646.4350000000001" type="line"/>
      <point x="281.28" y="692.615" type="line"/>
      <point x="288.135" y="964.945" type="line"/>
      <point x="160.8" y="964.945" type="line"/>
    </contour>
  </outline>
</glyph>
<glyph name="q" format="2">
  <advance width="1256.2"/>
  <unicode hex="0071"/>
  <anchor x="624.805" y="0.0" name="bottom"/>
  <anchor x="624.805" y="964.945" name="top"/>
  <outline>
    <contour>
      <point x="556.355" y="-23.855" type="curve" smooth="yes"/>
      <point x="806.3100000000001" y="-23.855"/>
      <point x="944.1" y="113.38"/>
      <point x="973.2" y="272.555" type="curve"/>
      <point x="1012.29" y="272.555" type="line"/>
      <point x="978.125" y="370.48" type="line"/>
      <point x="945.3" y="205.58"/>
      <point x="798.505" y="82.785"/>
      <point x="594.775" y="82.785" type="curve" smooth="yes"/>
      <point x="366.175" y="82.785"/>
      <point x="237.70000000000002" y="203.935"/>
      <point x="237.70000000000002" y="431.67999999999995" type="curve" smooth="yes"/>
      <point x="237.70000000000002" y="534.56" type="line" smooth="yes"/>
      <point x="237.70000000000002" y="763.9250000000001"/>
      <point x="366.91" y="885.0749999999999"/>
      <point x="592.8349999999999" y="885.0749999999999" type="curve" smooth="yes"/>
      <point x="796.02" y="885.0749999999999"/>
      <point x="960.54" y="780.3549999999999"/>
      <point x="972.625" y="561.0100000000001" type="curve"/>
      <point x="1014.0600000000001" y="680.845" type="line"/>
      <point x="972.85" y="680.845" type="line"/>
      <point x="950.12" y="871.2099999999999"/>
      <point x="790.66" y="988.8"/>
      <point x="561.4150000000001" y="988.8" type="curve" smooth="yes"/>
      <point x="273.06999999999994" y="988.8"/>
      <point x="109.57" y="829.5899999999999"/>
      <point x="109.57" y="530.26" type="curve" smooth="yes"/>
      <point x="109.57" y="433.59499999999997" type="line" smooth="yes"/>
      <point x="109.57" y="135.76500000000001"/>
      <point x="270.68499999999995" y="-23.855"/>
    </contour>
    <contour>
      <point x="968.86" y="-341.0" type="line"/>
      <point x="1095.3999999999999" y="-341.0" type="line"/>
      <point x="1095.3999999999999" y="964.945" type="line"/>
      <point x="968.065" y="964.945" type="line"/>
      <point x="974.6850000000001" y="692.35" type="line"/>
      <point x="972.625" y="646.4350000000001" type="line"/>
      <point x="972.625" y="312.71" type="line"/>
      <point x="973.86" y="279.16" type="line"/>
      <point x="968.86" y="-8.480000000000002" type="line"/>
    </contour>
  </outline>
</glyph>
<glyph name="r" format="2">
  <advance width="875.4799999999999"/>
  <unicode hex="0072"/>
  <anchor x="225.08499999999998" y="0.0" name="bottom"/>
  <anchor x="470.205" y="964.945" name="top"/>
  <outline>
    <contour>
      <point x="280.34" y="568.72" type="line"/>
      <point x="347.09499999999997" y="762.11"/>
      <point x="492.04499999999996" y="863.0"/>
      <point x="672.8249999999999" y="863.0" type="curve" smooth="yes"/>
      <point x="739.14" y="863.0"/>
      <point x="794.93" y="850.415"/>
      <point x="838.545" y="834.095" type="curve"/>
      <point x="829.42" y="955.1" type="line"/>
      <point x="793.13" y="969.42"/>
      <point x="744.845" y="982.005"/>
      <point x="679.74" y="982.005" type="curve" smooth="yes"/>
      <point x="476.02" y="982.005"/>
      <point x="336.135" y="861.525"/>
      <point x="281.32" y="667.0550000000001" type="curve"/>
      <point x="249.74" y="661.885" type="line"/>
    </contour>
    <contour>
      <point x="160.8" y="0.0" type="line"/>
      <point x="288.135" y="0.0" type="line"/>
      <point x="288.135" y="640.5999999999999" type="line"/>
      <point x="279.925" y="648.1350000000001" type="line"/>
      <point x="286.81" y="964.945" type="line"/>
      <point x="160.8" y="964.945" type="line"/>
    </contour>
  </outline>
</glyph>
<glyph name="s" format="2">
  <advance width="1039.99"/>
  <unicode hex="0073"/>
  <anchor x="519.51" y="0.0" name="bottom"/>
  <anchor x="519.245" y="964.945" name="top"/>
  <outline>
    <contour>
      <point x="528.86" y="-24.915000000000003" type="curve" smooth="yes"/>
      <point x="810.03" y="-24.915000000000003"/>
      <point x="957.535" y="66.765"/>
      <point x="957.535" y="253.72500000000002" type="curve" smooth="yes"/>
      <point x="957.535" y="262.87" type="line" smooth="yes"/>
      <point x="957.535" y="446.115"/>
      <point x="853.465" y="507.88"/>
      <point x="540.765" y="545.855" type="curve" smooth="yes"/>
      <point x="285.15000000000003" y="576.385"/>
      <point x="216.11" y="613.88"/>
      <point x="216.11" y="725.31" type="curve" smooth="yes"/>
      <point x="216.11" y="729.5150000000001" type="line" smooth="yes"/>
      <point x="216.11" y="826.0400000000001"/>
      <point x="296.35" y="885.4300000000001"/>
      <point x="502.46" y="885.4300000000001" type="curve" smooth="yes"/>
      <point x="678.955" y="885.4300000000001"/>
      <point x="814.5799999999999" y="839.73"/>
      <point x="917.705" y="781.5300000000001" type="curve"/>
      <point x="903.52" y="891.49" type="line"/>
      <point x="819.0699999999999" y="941.78"/>
      <point x="680.655" y="989.685"/>
      <point x="493.095" y="989.685" type="curve" smooth="yes"/>
      <point x="221.2" y="989.685"/>
      <point x="90.865" y="899.77"/>
      <point x="90.865" y="731.105" type="curve" smooth="yes"/>
      <point x="90.865" y="725.8399999999999" type="line" smooth="yes"/>
      <point x="90.865" y="556.485"/>
      <point x="186.69" y="487.11499999999995"/>
      <point x="493.955" y="449.84499999999997" type="curve" smooth="yes"/>
      <point x="755.27" y="417.61"/>
      <point x="831.7600000000001" y="379.475"/>
      <point x="831.7600000000001" y="261.34" type="curve" smooth="yes"/>
      <point x="831.7600000000001" y="254.51999999999998" type="line" smooth="yes"/>
      <point x="831.7600000000001" y="137.67499999999998"/>
      <point x="724.9050000000001" y="82.19500000000001"/>
      <point x="523.9699999999999" y="82.19500000000001" type="curve" smooth="yes"/>
      <point x="337.825" y="82.19500000000001"/>
      <point x="199.17" y="131.87"/>
      <point x="83.55" y="193.805" type="curve"/>
      <point x="97.5" y="73.69000000000001" type="line"/>
      <point x="190.33" y="25.43"/>
      <point x="331.245" y="-24.915000000000003"/>
    </contour>
  </outline>
</glyph>
<glyph name="t" format="2">
  <advance width="946.255"/>
  <unicode hex="0074"/>
  <anchor x="529.255" y="0.0" name="bottom"/>
  <anchor x="474.82" y="482.855" name="center"/>
  <anchor x="274.78999999999996" y="1209.29" name="top"/>
  <anchor x="717.93" y="1409.95" name="topright"/>
  <outline>
    <contour>
      <point x="565.6450000000001" y="-22.56" type="curve" smooth="yes"/>
      <point x="676.885" y="-22.56"/>
      <point x="783.765" y="2.23"/>
      <point x="862.705" y="42.52" type="curve"/>
      <point x="875.39" y="154.57000000000002" type="line"/>
      <point x="789.725" y="109.345"/>
      <point x="692.495" y="86.67000000000002"/>
      <point x="592.91" y="86.67000000000002" type="curve" smooth="yes"/>
      <point x="404.09" y="86.67000000000002"/>
      <point x="334.985" y="162.98"/>
      <point x="334.985" y="326.365" type="curve" smooth="yes"/>
      <point x="334.985" y="888.945" type="line"/>
      <point x="208.94500000000002" y="888.945" type="line"/>
      <point x="208.94500000000002" y="313.46999999999997" type="line" smooth="yes"/>
      <point x="208.94500000000002" y="86.6"/>
      <point x="308.21000000000004" y="-22.56"/>
    </contour>
    <contour>
      <point x="13.29" y="843.23" type="line"/>
      <point x="856.47" y="843.23" type="line"/>
      <point x="869.42" y="944.13" type="line"/>
      <point x="13.29" y="944.13" type="line"/>
    </contour>
    <contour>
      <point x="210.27" y="929.86" type="line"/>
      <point x="331.59999999999997" y="929.86" type="line"/>
      <point x="337.25" y="1236.94" type="line"/>
      <point x="209.73999999999998" y="1218.23" type="line"/>
    </contour>
  </outline>
</glyph>
<glyph name="u" format="2">
  <advance width="1224.88"/>
  <unicode hex="0075"/>
  <anchor x="611.78" y="0.0" name="bottom"/>
  <anchor x="1106.7250000000001" y="1.3250000000000002" name="ogonek"/>
  <anchor x="611.78" y="964.945" name="top"/>
  <anchor x="1203.09" y="964.945" name="topright"/>
  <outline>
    <contour>
      <point x="272.02000000000004" y="964.945" type="line"/>
      <point x="144.685" y="964.945" type="line"/>
      <point x="144.685" y="388.73999999999995" type="line" smooth="yes"/>
      <point x="144.685" y="131.17"/>
      <point x="250.28" y="-23.855"/>
      <point x="534.325" y="-23.855" type="curve" smooth="yes"/>
      <point x="778.655" y="-23.855"/>
      <point x="913.545" y="113.615"/>
      <point x="942.9399999999999" y="270.43999999999994" type="curve"/>
      <point x="969.9000000000001" y="270.43999999999994" type="line"/>
      <point x="945.2149999999999" y="365.95000000000005" type="line"/>
      <point x="913.86" y="205.55"/>
      <point x="784.155" y="82.785"/>
      <point x="577.045" y="82.785" type="curve" smooth="yes"/>
      <point x="350.59" y="82.785"/>
      <point x="272.02000000000004" y="208.765"/>
      <point x="272.02000000000004" y="402.985" type="curve" smooth="yes"/>
    </contour>
    <contour>
      <point x="1064.08" y="964.945" type="line"/>
      <point x="936.745" y="964.945" type="line"/>
      <point x="936.745" y="279.845" type="line"/>
      <point x="943.13" y="269.51" type="line"/>
      <point x="936.745" y="0.0" type="line"/>
      <point x="1064.08" y="0.0" type="line"/>
    </contour>
  </outline>
</glyph>
<glyph name="v" format="2">
  <advance width="1136.3200000000002"/>
  <unicode hex="0076"/>
  <anchor x="568.6600000000001" y="0.0" name="bottom"/>
  <anchor x="568.6600000000001" y="964.945" name="top"/>
  <outline>
    <contour>
      <point x="582.925" y="90.27" type="line"/>
      <point x="555.19" y="90.27" type="line"/>
      <point x="188.555" y="964.945" type="line"/>
      <point x="53.01" y="964.945" type="line"/>
      <point x="463.38" y="0.0" type="line"/>
      <point x="674.4699999999999" y="0.0" type="line"/>
      <point x="1083.3100000000002" y="964.945" type="line"/>
      <point x="948.2950000000001" y="964.945" type="line"/>
    </contour>
  </outline>
</glyph>
<glyph name="w" format="2">
  <advance width="1720.195"/>
  <unicode hex="0077"/>
  <anchor x="860.48" y="0.0" name="bottom"/>
  <anchor x="860.48" y="964.945" name="top"/>
  <outline>
    <contour>
      <point x="384.41" y="0.0" type="line"/>
      <point x="581.05" y="0.0" type="line"/>
      <point x="798.575" y="675.34" type="line"/>
      <point x="852.6850000000001" y="843.965" type="line"/>
      <point x="867.04" y="843.965" type="line"/>
      <point x="921.915" y="675.34" type="line"/>
      <point x="1139.44" y="0.0" type="line"/>
      <point x="1335.785" y="0.0" type="line"/>
      <point x="1650.865" y="964.945" type="line"/>
      <point x="1516.645" y="964.945" type="line"/>
      <point x="1244.24" y="93.98" type="line"/>
      <point x="1224.3600000000001" y="93.98" type="line"/>
      <point x="950.5749999999999" y="937.24" type="line"/>
      <point x="769.12" y="937.24" type="line"/>
      <point x="496.395" y="93.98" type="line"/>
      <point x="476.22" y="93.98" type="line"/>
      <point x="204.08" y="964.945" type="line"/>
      <point x="69.33" y="964.945" type="line"/>
    </contour>
  </outline>
</glyph>
<glyph name="x" format="2">
  <advance width="1122.1299999999999"/>
  <unicode hex="0078"/>
  <anchor x="561.3149999999999" y="0.0" name="bottom"/>
  <anchor x="561.3149999999999" y="964.945" name="top"/>
  <outline>
    <contour>
      <point x="66.475" y="0.0" type="line"/>
      <point x="214.41" y="0.0" type="line"/>
      <point x="553.99" y="432.37" type="line"/>
      <point x="568.905" y="432.37" type="line"/>
      <point x="908.22" y="0.0" type="line"/>
      <point x="1055.655" y="0.0" type="line"/>
      <point x="652.3" y="516.0749999999999" type="line"/>
      <point x="652.3" y="484.05" type="line"/>
      <point x="1048.33" y="964.945" type="line"/>
      <point x="901.16" y="964.945" type="line"/>
      <point x="568.905" y="558.19" type="line"/>
      <point x="553.99" y="558.19" type="line"/>
      <point x="221.47" y="964.945" type="line"/>
      <point x="74.3" y="964.945" type="line"/>
      <point x="470.065" y="483.08000000000004" type="line"/>
      <point x="470.065" y="515.37" type="line"/>
    </contour>
  </outline>
</glyph>
<glyph name="y" format="2">
  <advance width="1138.0549999999998"/>
  <unicode hex="0079"/>
  <anchor x="812.325" y="-16.015" name="bottom"/>
  <anchor x="569.425" y="964.945" name="top"/>
  <outline>
    <contour>
      <point x="632.79" y="125.42" type="line"/>
      <point x="553.01" y="125.42" type="line"/>
      <point x="189.085" y="964.945" type="line"/>
      <point x="53.01" y="964.945" type="line"/>
      <point x="464.64500000000004" y="36.475" type="line"/>
      <point x="608.13" y="36.475" type="line"/>
      <point x="558.29" y="86.87" type="line"/>
      <point x="367.99" y="-341.0" type="line"/>
      <point x="501.945" y="-341.0" type="line"/>
      <point x="1085.0449999999998" y="964.945" type="line"/>
      <point x="949.5" y="964.945" type="line"/>
      <point x="563.085" y="88.86" type="line"/>
    </contour>
  </outline>
</glyph>
<glyph name="z" format="2">
  <advance width="1062.28"/>
  <unicode hex="007A"/>
  <anchor x="531.39" y="0.0" name="bottom"/>
  <anchor x="531.89" y="482.855" name="center"/>
  <anchor x="531.39" y="964.945" name="top"/>
  <outline>
    <contour>
      <point x="965.0849999999999" y="103.52000000000001" type="line"/>
      <point x="259.40999999999997" y="103.52000000000001" type="line"/>
      <point x="959.79" y="870.02" type="line"/>
      <point x="959.79" y="964.6800000000001" type="line"/>
      <point x="100.22500000000001" y="964.6800000000001" type="line"/>
      <point x="100.22500000000001" y="861.6600000000001" type="line"/>
      <point x="796.8399999999999" y="861.6600000000001" type="line"/>
      <point x="96.96000000000001" y="95.42500000000001" type="line"/>
      <point x="96.96000000000001" y="0.0" type="line"/>
      <point x="965.0849999999999" y="0.0" type="line"/>
    </contour>
  </outline>
</glyph>
<glyph name="braceleft" format="2">
  <advance width="760.765"/>
  <unicode hex="007B"/>
  <outline>
    <contour>
      <point x="688.98" y="1323.24" type="line"/>
      <point x="644.565" y="1338.915"/>
      <point x="581.6800000000001" y="1351.12"/>
      <point x="514.15" y="1351.12" type="curve" smooth="yes"/>
      <point x="330.365" y="1351.12"/>
      <point x="249.26500000000001" y="1270.8799999999999"/>
      <point x="249.26500000000001" y="1086.6550000000002" type="curve" smooth="yes"/>
      <point x="249.26500000000001" y="1004.635"/>
      <point x="264.94" y="873.345"/>
      <point x="264.94" y="789.68" type="curve" smooth="yes"/>
      <point x="264.94" y="681.1949999999999"/>
      <point x="227.735" y="619.735"/>
      <point x="78.05" y="611.1500000000001" type="curve"/>
      <point x="78.05" y="504.60499999999996" type="line"/>
      <point x="227.735" y="493.815"/>
      <point x="264.94" y="431.15"/>
      <point x="264.94" y="320.725" type="curve" smooth="yes"/>
      <point x="264.94" y="238.03"/>
      <point x="249.26500000000001" y="105.77"/>
      <point x="249.26500000000001" y="21.75" type="curve" smooth="yes"/>
      <point x="249.26500000000001" y="-162.505"/>
      <point x="330.6" y="-243.275"/>
      <point x="514.15" y="-243.275" type="curve" smooth="yes"/>
      <point x="581.6800000000001" y="-243.275"/>
      <point x="644.565" y="-230.83499999999998"/>
      <point x="688.98" y="-214.66" type="curve"/>
      <point x="688.98" y="-117.325" type="line"/>
      <point x="651.985" y="-131.145"/>
      <point x="602.935" y="-142.995"/>
      <point x="543.565" y="-142.995" type="curve" smooth="yes"/>
      <point x="420.055" y="-142.995"/>
      <point x="370.47499999999997" y="-93.005"/>
      <point x="370.47499999999997" y="36.115" type="curve" smooth="yes"/>
      <point x="370.47499999999997" y="110.635"/>
      <point x="385.415" y="238.54"/>
      <point x="385.415" y="329.88" type="curve" smooth="yes"/>
      <point x="385.415" y="455.815"/>
      <point x="342.47999999999996" y="544.255"/>
      <point x="184.54000000000002" y="556.1700000000001" type="curve"/>
      <point x="193.635" y="539.8100000000001" type="line"/>
      <point x="193.635" y="561.145" type="line"/>
      <point x="345.73999999999995" y="577.325"/>
      <point x="385.415" y="661.29"/>
      <point x="385.415" y="781.26" type="curve" smooth="yes"/>
      <point x="385.415" y="871.365"/>
      <point x="370.47499999999997" y="998.505"/>
      <point x="370.47499999999997" y="1073.2900000000002" type="curve" smooth="yes"/>
      <point x="370.47499999999997" y="1201.41"/>
      <point x="419.79" y="1251.3999999999999"/>
      <point x="541.975" y="1251.3999999999999" type="curve" smooth="yes"/>
      <point x="602.14" y="1251.3999999999999"/>
      <point x="651.72" y="1240.285"/>
      <point x="688.98" y="1226.73" type="curve"/>
    </contour>
  </outline>
</glyph>
<glyph name="bar" format="2">
  <advance width="534.0799999999999"/>
  <unicode hex="007C"/>
  <outline>
    <contour>
      <point x="322.67" y="-447.665" type="line"/>
      <point x="322.67" y="1418.0" type="line"/>
      <point x="211.41" y="1418.0" type="line"/>
      <point x="211.41" y="-447.665" type="line"/>
    </contour>
  </outline>
</glyph>
<glyph name="braceright" format="2">
  <advance width="760.765"/>
  <unicode hex="007D"/>
  <outline>
    <contour>
      <point x="71.785" y="1323.24" type="curve"/>
      <point x="71.785" y="1226.73" type="line"/>
      <point x="109.045" y="1240.285"/>
      <point x="158.625" y="1251.3999999999999"/>
      <point x="218.79" y="1251.3999999999999" type="curve" smooth="yes"/>
      <point x="340.975" y="1251.3999999999999"/>
      <point x="390.29" y="1201.41"/>
      <point x="390.29" y="1073.2900000000002" type="curve" smooth="yes"/>
      <point x="390.29" y="998.505"/>
      <point x="375.34999999999997" y="871.365"/>
      <point x="375.34999999999997" y="781.26" type="curve" smooth="yes"/>
      <point x="375.34999999999997" y="661.29"/>
      <point x="415.02500000000003" y="577.325"/>
      <point x="567.1300000000001" y="561.145" type="curve"/>
      <point x="567.1300000000001" y="539.8100000000001" type="line"/>
      <point x="576.225" y="556.1700000000001" type="line"/>
      <point x="418.285" y="544.255"/>
      <point x="375.34999999999997" y="455.815"/>
      <point x="375.34999999999997" y="329.88" type="curve" smooth="yes"/>
      <point x="375.34999999999997" y="238.54"/>
      <point x="390.29" y="110.635"/>
      <point x="390.29" y="36.115" type="curve" smooth="yes"/>
      <point x="390.29" y="-93.005"/>
      <point x="340.71000000000004" y="-142.995"/>
      <point x="217.2" y="-142.995" type="curve" smooth="yes"/>
      <point x="157.82999999999998" y="-142.995"/>
      <point x="108.78" y="-131.145"/>
      <point x="71.785" y="-117.325" type="curve"/>
      <point x="71.785" y="-214.66" type="line"/>
      <point x="116.2" y="-230.83499999999998"/>
      <point x="179.085" y="-243.275"/>
      <point x="246.615" y="-243.275" type="curve" smooth="yes"/>
      <point x="430.165" y="-243.275"/>
      <point x="511.5" y="-162.505"/>
      <point x="511.5" y="21.75" type="curve" smooth="yes"/>
      <point x="511.5" y="105.77"/>
      <point x="495.825" y="238.03"/>
      <point x="495.825" y="320.725" type="curve" smooth="yes"/>
      <point x="495.825" y="431.15"/>
      <point x="533.03" y="493.815"/>
      <point x="682.7149999999999" y="504.60499999999996" type="curve"/>
      <point x="682.7149999999999" y="611.1500000000001" type="line"/>
      <point x="533.03" y="619.735"/>
      <point x="495.825" y="681.1949999999999"/>
      <point x="495.825" y="789.68" type="curve" smooth="yes"/>
      <point x="495.825" y="873.345"/>
      <point x="511.5" y="1004.635"/>
      <point x="511.5" y="1086.6550000000002" type="curve" smooth="yes"/>
      <point x="511.5" y="1270.8799999999999"/>
      <point x="430.4" y="1351.12"/>
      <point x="246.615" y="1351.12" type="curve" smooth="yes"/>
      <point x="179.085" y="1351.12"/>
      <point x="116.2" y="1338.915"/>
    </contour>
  </outline>
</glyph>
<glyph name="asciitilde" format="2">
  <advance width="1224.21"/>
  <unicode hex="007E"/>
  <outline>
    <contour>
      <point x="855.345" y="455.22999999999996" type="curve" smooth="yes"/>
      <point x="1010.375" y="455.22999999999996"/>
      <point x="1073.32" y="542.015"/>
      <point x="1073.32" y="702.765" type="curve" smooth="yes"/>
      <point x="1073.32" y="733.865" type="line"/>
      <point x="976.985" y="733.865" type="line"/>
      <point x="976.985" y="716.63" type="line" smooth="yes"/>
      <point x="976.985" y="612.595"/>
      <point x="939.645" y="560.485"/>
      <point x="848.515" y="560.485" type="curve" smooth="yes"/>
      <point x="702.355" y="560.485"/>
      <point x="543.5150000000001" y="708.75"/>
      <point x="369.335" y="708.75" type="curve" smooth="yes"/>
      <point x="213.30499999999998" y="708.75"/>
      <point x="150.89" y="620.14"/>
      <point x="150.89" y="459.77500000000003" type="curve" smooth="yes"/>
      <point x="150.89" y="429.88" type="line"/>
      <point x="246.695" y="429.88" type="line"/>
      <point x="246.695" y="447.08500000000004" type="line" smooth="yes"/>
      <point x="246.695" y="550.06"/>
      <point x="285.86" y="602.6700000000001"/>
      <point x="375.42999999999995" y="602.6700000000001" type="curve" smooth="yes"/>
      <point x="521.1500000000001" y="602.6700000000001"/>
      <point x="680.375" y="455.22999999999996"/>
    </contour>
  </outline>
</glyph>
<glyph name="exclamdown" format="2">
  <advance width="498.62"/>
  <unicode hex="00A1"/>
  <outline>
    <contour>
      <point x="303.265" y="580.835" type="line"/>
      <point x="195.38500000000002" y="580.835" type="line"/>
      <point x="180.345" y="-313.055" type="line"/>
      <point x="317.805" y="-313.055" type="line"/>
    </contour>
    <contour>
      <point x="248.84" y="982.98" type="curve" smooth="yes"/>
      <point x="188.19" y="982.98"/>
      <point x="157.5" y="949.9050000000001"/>
      <point x="157.5" y="891.675" type="curve" smooth="yes"/>
      <point x="157.5" y="884.675" type="line" smooth="yes"/>
      <point x="157.5" y="827.18"/>
      <point x="188.19" y="794.575"/>
      <point x="248.84" y="794.575" type="curve" smooth="yes"/>
      <point x="310.93" y="794.575"/>
      <point x="341.385" y="827.18"/>
      <point x="341.385" y="884.675" type="curve" smooth="yes"/>
      <point x="341.385" y="891.675" type="line" smooth="yes"/>
      <point x="341.385" y="949.9050000000001"/>
      <point x="310.93" y="982.98"/>
    </contour>
  </outline>
</glyph>
<glyph name="cent" format="2">
  <advance width="1049.825"/>
  <unicode hex="00A2"/>
  <anchor x="572.09" y="0.0" name="bottom"/>
  <anchor x="572.09" y="964.945" name="top"/>
  <outline>
    <contour>
      <point x="647.9100000000001" y="930.5799999999999" type="line"/>
      <point x="647.9100000000001" y="1205.76" type="line"/>
      <point x="533.1750000000001" y="1205.76" type="line"/>
      <point x="533.1750000000001" y="930.5799999999999" type="line"/>
    </contour>
    <contour>
      <point x="647.9100000000001" y="-240.78500000000003" type="line"/>
      <point x="647.9100000000001" y="44.82000000000001" type="line"/>
      <point x="533.1750000000001" y="44.82000000000001" type="line"/>
      <point x="533.1750000000001" y="-240.78500000000003" type="line"/>
    </contour>
    <component base="c"/>
  </outline>
</glyph>
<glyph name="sterling" format="2">
  <advance width="1291.025"/>
  <unicode hex="00A3"/>
  <outline>
    <contour>
      <point x="98.99" y="598.465" type="line"/>
      <point x="1076.98" y="598.465" type="line"/>
      <point x="1086.925" y="698.185" type="line"/>
      <point x="109.17" y="698.185" type="line"/>
    </contour>
    <contour>
      <point x="301.29" y="109.76" type="line"/>
      <point x="303.64" y="113.825" type="line"/>
      <point x="411.88000000000005" y="159.265"/>
      <point x="477.37" y="248.57500000000002"/>
      <point x="477.37" y="408.56" type="curve" smooth="yes"/>
      <point x="477.37" y="595.5749999999999"/>
      <point x="391.26" y="743.9849999999999"/>
      <point x="391.26" y="923.475" type="curve" smooth="yes"/>
      <point x="391.26" y="1102.555"/>
      <point x="510.61" y="1190.0100000000002"/>
      <point x="756.71" y="1190.0100000000002" type="curve" smooth="yes"/>
      <point x="885.085" y="1190.0100000000002"/>
      <point x="1009.9" y="1167.63"/>
      <point x="1128.19" y="1123.96" type="curve"/>
      <point x="1116.565" y="1236.51" type="line"/>
      <point x="1010.945" y="1274.3899999999999"/>
      <point x="872.12" y="1300.71"/>
      <point x="733.535" y="1300.71" type="curve" smooth="yes"/>
      <point x="409.865" y="1300.71"/>
      <point x="255.035" y="1179.7350000000001"/>
      <point x="255.035" y="937.225" type="curve" smooth="yes"/>
      <point x="255.035" y="734.58"/>
      <point x="344.53000000000003" y="582.835"/>
      <point x="343.53000000000003" y="397.75" type="curve" smooth="yes"/>
      <point x="343.06" y="240.51"/>
      <point x="279.34000000000003" y="139.645"/>
      <point x="147.765" y="112.645" type="curve" smooth="yes"/>
      <point x="106.49" y="104.26" type="line"/>
      <point x="106.49" y="0.0" type="line"/>
      <point x="1214.27" y="0.0" type="line"/>
      <point x="1214.27" y="109.76" type="line"/>
    </contour>
  </outline>
</glyph>
<glyph name="currency" format="2">
  <advance width="1130.895"/>
  <unicode hex="00A4"/>
  <outline>
    <contour>
      <point x="565.0500000000001" y="239.32999999999998" type="curve" smooth="yes"/>
      <point x="818.0699999999999" y="239.32999999999998"/>
      <point x="960.96" y="370.955"/>
      <point x="960.96" y="607.495" type="curve" smooth="yes"/>
      <point x="960.96" y="636.99" type="line" smooth="yes"/>
      <point x="960.96" y="872.795"/>
      <point x="818.805" y="1003.45"/>
      <point x="565.7850000000001" y="1003.45" type="curve" smooth="yes"/>
      <point x="313.03000000000003" y="1003.45"/>
      <point x="170.14" y="872.795"/>
      <point x="170.14" y="636.99" type="curve" smooth="yes"/>
      <point x="170.14" y="607.495" type="line" smooth="yes"/>
      <point x="170.14" y="370.955"/>
      <point x="312.295" y="239.32999999999998"/>
    </contour>
    <contour>
      <point x="565.7850000000001" y="338.52" type="curve" smooth="yes"/>
      <point x="387.205" y="338.52"/>
      <point x="286.34499999999997" y="432.29499999999996"/>
      <point x="286.34499999999997" y="606.7" type="curve" smooth="yes"/>
      <point x="286.34499999999997" y="637.785" type="line" smooth="yes"/>
      <point x="286.34499999999997" y="811.2199999999999"/>
      <point x="387.205" y="904.26"/>
      <point x="565.7850000000001" y="904.26" type="curve" smooth="yes"/>
      <point x="743.1600000000001" y="904.26"/>
      <point x="844.49" y="811.2199999999999"/>
      <point x="844.49" y="637.785" type="curve" smooth="yes"/>
      <point x="844.755" y="606.7" type="line" smooth="yes"/>
      <point x="844.755" y="432.29499999999996"/>
      <point x="743.1600000000001" y="338.52"/>
    </contour>
    <contour>
      <point x="841.655" y="395.005" type="line"/>
      <point x="768.045" y="331.4" type="line"/>
      <point x="964.12" y="127.77" type="line"/>
      <point x="1035.23" y="192.64" type="line"/>
    </contour>
    <contour>
      <point x="360.28999999999996" y="329.075" type="line"/>
      <point x="292.095" y="397.33" type="line"/>
      <point x="95.93" y="192.64" type="line"/>
      <point x="167.27499999999998" y="127.77" type="line"/>
    </contour>
    <contour>
      <point x="283.03000000000003" y="852.425" type="line"/>
      <point x="358.76" y="913.1750000000001" type="line"/>
      <point x="166.77499999999998" y="1113.215" type="line"/>
      <point x="95.93" y="1048.08" type="line"/>
    </contour>
    <contour>
      <point x="770.4" y="910.675" type="line"/>
      <point x="843.655" y="846.9499999999999" type="line"/>
      <point x="1034.965" y="1048.08" type="line"/>
      <point x="964.12" y="1113.215" type="line"/>
    </contour>
  </outline>
</glyph>
<glyph name="yen" format="2">
  <advance width="1308.085"/>
  <unicode hex="00A5"/>
  <anchor x="651.485" y="0.0" name="bottom"/>
  <anchor x="651.485" y="1278.0" name="top"/>
  <anchor x="27.79" y="1278.0" name="topleft"/>
  <outline>
    <contour>
      <point x="765.73" y="578.275" type="line"/>
      <point x="1164.18" y="578.275" type="line"/>
      <point x="1174.89" y="672.52" type="line"/>
      <point x="795.5649999999999" y="672.52" type="line"/>
    </contour>
    <contour>
      <point x="146.23000000000002" y="357.655" type="line"/>
      <point x="135.255" y="263.67499999999995" type="line"/>
      <point x="1164.18" y="263.67499999999995" type="line"/>
      <point x="1174.89" y="357.655" type="line"/>
    </contour>
    <contour>
      <point x="511.2" y="672.52" type="line"/>
      <point x="146.23000000000002" y="672.52" type="line"/>
      <point x="135.255" y="578.275" type="line"/>
      <point x="541.535" y="578.275" type="line"/>
    </contour>
    <component base="Y" xOffset="6.38"/>
  </outline>
</glyph>
<glyph name="brokenbar" format="2">
  <advance width="535.1399999999999"/>
  <unicode hex="00A6"/>
  <outline>
    <contour>
      <point x="323.73" y="590.23" type="line"/>
      <point x="323.73" y="1418.0" type="line"/>
      <point x="211.41" y="1418.0" type="line"/>
      <point x="211.41" y="590.23" type="line"/>
    </contour>
    <contour>
      <point x="323.73" y="-447.665" type="line"/>
      <point x="323.73" y="382.165" type="line"/>
      <point x="211.41" y="382.165" type="line"/>
      <point x="211.41" y="-447.665" type="line"/>
    </contour>
  </outline>
</glyph>
<glyph name="section" format="2">
  <advance width="1121.21"/>
  <unicode hex="00A7"/>
  <outline>
    <contour>
      <point x="678.5400000000001" y="399.27000000000004" type="curve"/>
      <point x="792.5" y="358.78499999999997" type="line"/>
      <point x="792.235" y="389.09" type="line"/>
      <point x="916.675" y="408.73"/>
      <point x="991.29" y="488.96"/>
      <point x="991.29" y="602.02" type="curve" smooth="yes"/>
      <point x="991.29" y="605.49" type="line" smooth="yes"/>
      <point x="990.555" y="769.7"/>
      <point x="882.6350000000001" y="831.34"/>
      <point x="576.9350000000001" y="871.905" type="curve" smooth="yes"/>
      <point x="323.94" y="904.73"/>
      <point x="254.635" y="940.9549999999999"/>
      <point x="254.635" y="1043.3899999999999" type="curve" smooth="yes"/>
      <point x="254.635" y="1047.6850000000002" type="line" smooth="yes"/>
      <point x="254.635" y="1141.535"/>
      <point x="334.05" y="1197.3100000000002"/>
      <point x="538.865" y="1197.3100000000002" type="curve" smooth="yes"/>
      <point x="714.3000000000001" y="1197.3100000000002"/>
      <point x="850.19" y="1150.8149999999998"/>
      <point x="952.785" y="1091.2900000000002" type="curve"/>
      <point x="938.5999999999999" y="1201.78" type="line"/>
      <point x="854.15" y="1252.0700000000002"/>
      <point x="715.205" y="1299.9750000000001"/>
      <point x="529.5" y="1299.9750000000001" type="curve" smooth="yes"/>
      <point x="258.63500000000005" y="1299.9750000000001"/>
      <point x="129.39" y="1213.94"/>
      <point x="129.39" y="1049.54" type="curve" smooth="yes"/>
      <point x="129.39" y="1044.45" type="line" smooth="yes"/>
      <point x="129.39" y="882.47"/>
      <point x="231.575" y="815.4300000000001"/>
      <point x="530.1249999999999" y="778.515" type="curve" smooth="yes"/>
      <point x="789.7650000000001" y="746.31"/>
      <point x="869.225" y="702.505"/>
      <point x="869.225" y="581.9649999999999" type="curve" smooth="yes"/>
      <point x="869.225" y="578.6999999999999" type="line" smooth="yes"/>
      <point x="869.225" y="492.075"/>
      <point x="800.89" y="422.59499999999997"/>
    </contour>
    <contour>
      <point x="438.96500000000003" y="806.75" type="curve"/>
      <point x="320.65" y="837.7900000000001" type="line"/>
      <point x="320.915" y="812.5450000000001" type="line"/>
      <point x="197.54" y="786.6949999999999"/>
      <point x="129.92" y="710.415"/>
      <point x="129.92" y="601.295" type="curve" smooth="yes"/>
      <point x="129.92" y="597.0300000000001" type="line" smooth="yes"/>
      <point x="129.92" y="441.68"/>
      <point x="235.75" y="372.535"/>
      <point x="535.925" y="331.29" type="curve" smooth="yes"/>
      <point x="789.8199999999999" y="296.64"/>
      <point x="866.0450000000001" y="260.095"/>
      <point x="866.0450000000001" y="147.05" type="curve" smooth="yes"/>
      <point x="866.0450000000001" y="142.99" type="line" smooth="yes"/>
      <point x="866.0450000000001" y="32.265"/>
      <point x="761.25" y="-20.009999999999998"/>
      <point x="560.3750000000001" y="-20.009999999999998" type="curve" smooth="yes"/>
      <point x="376.615" y="-20.009999999999998"/>
      <point x="234.28" y="29.400000000000006"/>
      <point x="120.78" y="91.07000000000001" type="curve"/>
      <point x="134.73" y="-27.985000000000003" type="line"/>
      <point x="225.97" y="-75.715"/>
      <point x="371.09499999999997" y="-125.53"/>
      <point x="567.1199999999999" y="-125.53" type="curve" smooth="yes"/>
      <point x="847.965" y="-125.53"/>
      <point x="991.8199999999999" y="-35.995"/>
      <point x="991.8199999999999" y="140.87" type="curve" smooth="yes"/>
      <point x="991.8199999999999" y="146.52" type="line" smooth="yes"/>
      <point x="991.8199999999999" y="322.465"/>
      <point x="887.75" y="384.085"/>
      <point x="582.7349999999999" y="424.68" type="curve" smooth="yes"/>
      <point x="330.26500000000004" y="457.83"/>
      <point x="251.19000000000005" y="506.16999999999996"/>
      <point x="251.19000000000005" y="622.145" type="curve" smooth="yes"/>
      <point x="251.19000000000005" y="625.94" type="line"/>
      <point x="251.19000000000005" y="712.89"/>
      <point x="311.88" y="780.1899999999999"/>
    </contour>
  </outline>
</glyph>
<glyph name="copyright" format="2">
  <advance width="1524.23"/>
  <unicode hex="00A9"/>
  <outline>
    <contour>
      <point x="761.865" y="-24.8" type="curve" smooth="yes"/>
      <point x="1172.47" y="-24.8"/>
      <point x="1405.365" y="200.47"/>
      <point x="1405.365" y="592.1850000000001" type="curve" smooth="yes"/>
      <point x="1405.365" y="689.76" type="line" smooth="yes"/>
      <point x="1405.6" y="1079.62"/>
      <point x="1172.47" y="1302.8"/>
      <point x="761.865" y="1302.8" type="curve" smooth="yes"/>
      <point x="351.495" y="1302.8"/>
      <point x="118.865" y="1079.62"/>
      <point x="118.865" y="689.76" type="curve" smooth="yes"/>
      <point x="118.865" y="592.1850000000001" type="line" smooth="yes"/>
      <point x="118.865" y="200.47"/>
      <point x="351.495" y="-24.8"/>
    </contour>
    <contour>
      <point x="794.605" y="312.91" type="curve" smooth="yes"/>
      <point x="910.005" y="312.91"/>
      <point x="985.86" y="347.05"/>
      <point x="1031.7749999999999" y="380.135" type="curve"/>
      <point x="1039.515" y="465.715" type="line"/>
      <point x="986.6" y="427.19"/>
      <point x="915.78" y="393.55"/>
      <point x="808.56" y="393.55" type="curve" smooth="yes"/>
      <point x="653.9050000000001" y="393.55"/>
      <point x="574.3" y="472.65"/>
      <point x="574.3" y="616.09" type="curve" smooth="yes"/>
      <point x="574.3" y="667.44" type="line" smooth="yes"/>
      <point x="574.3" y="810.1149999999999"/>
      <point x="653.2850000000001" y="887.245"/>
      <point x="804.735" y="887.245" type="curve" smooth="yes"/>
      <point x="909.9" y="887.245"/>
      <point x="980.72" y="854.045"/>
      <point x="1033.28" y="815.55" type="curve"/>
      <point x="1025.01" y="900.8349999999999" type="line"/>
      <point x="982.3" y="931.4799999999999"/>
      <point x="907.005" y="966.5600000000001"/>
      <point x="794.5749999999999" y="966.5600000000001" type="curve" smooth="yes"/>
      <point x="588.005" y="966.5600000000001"/>
      <point x="480.59" y="859.9399999999999"/>
      <point x="480.59" y="666.44" type="curve" smooth="yes"/>
      <point x="480.59" y="615.8549999999999" type="line" smooth="yes"/>
      <point x="480.59" y="420.53000000000003"/>
      <point x="587.27" y="312.91"/>
    </contour>
    <contour>
      <point x="761.865" y="52.955" type="curve" smooth="yes"/>
      <point x="410.36" y="52.955"/>
      <point x="210.42499999999998" y="247.73499999999999"/>
      <point x="210.42499999999998" y="589.8" type="curve" smooth="yes"/>
      <point x="210.42499999999998" y="692.38" type="line" smooth="yes"/>
      <point x="210.42499999999998" y="1032.855"/>
      <point x="410.36" y="1225.045"/>
      <point x="761.865" y="1225.045" type="curve" smooth="yes"/>
      <point x="1113.6049999999998" y="1225.045"/>
      <point x="1313.805" y="1032.855"/>
      <point x="1313.805" y="692.38" type="curve" smooth="yes"/>
      <point x="1313.805" y="589.8" type="line" smooth="yes"/>
      <point x="1313.805" y="247.73499999999999"/>
      <point x="1113.6049999999998" y="52.955"/>
    </contour>
  </outline>
</glyph>
<glyph name="ordfeminine" format="2">
  <advance width="782.665"/>
  <unicode hex="00AA"/>
  <outline>
    <contour>
      <point x="564.155" y="644.6450000000001" type="line"/>
      <point x="658.25" y="644.6450000000001" type="line"/>
      <point x="658.25" y="1048.7800000000002" type="line" smooth="yes"/>
      <point x="658.25" y="1192.6"/>
      <point x="584.785" y="1293.47"/>
      <point x="389.785" y="1293.47" type="curve" smooth="yes"/>
      <point x="266.675" y="1293.47"/>
      <point x="178.88" y="1253.33"/>
      <point x="124.96" y="1219.595" type="curve"/>
      <point x="116.16" y="1136.925" type="line"/>
      <point x="179.75500000000002" y="1175.0100000000002"/>
      <point x="267.07500000000005" y="1214.27"/>
      <point x="375.36" y="1214.27" type="curve" smooth="yes"/>
      <point x="509.10999999999996" y="1214.27"/>
      <point x="566.775" y="1155.55"/>
      <point x="566.775" y="1051.105" type="curve"/>
      <point x="566.775" y="998.9" type="line"/>
      <point x="566.775" y="822.965" type="line"/>
      <point x="568.745" y="811.96" type="line"/>
    </contour>
    <contour>
      <point x="306.8" y="630.115" type="curve" smooth="yes"/>
      <point x="468.515" y="630.115"/>
      <point x="548.165" y="709.27"/>
      <point x="569.265" y="805.9300000000001" type="curve"/>
      <point x="587.5400000000001" y="805.9300000000001" type="line"/>
      <point x="571.04" y="873.625" type="line"/>
      <point x="550.3900000000001" y="782.265"/>
      <point x="463.58" y="710.375"/>
      <point x="335.765" y="710.375" type="curve" smooth="yes"/>
      <point x="236.645" y="710.375"/>
      <point x="183.4" y="750.125"/>
      <point x="183.4" y="819.66" type="curve" smooth="yes"/>
      <point x="183.4" y="828.57" type="line" smooth="yes"/>
      <point x="183.4" y="903.81"/>
      <point x="234.85500000000002" y="934.4150000000001"/>
      <point x="357.08" y="947.9699999999999" type="curve" smooth="yes"/>
      <point x="583.0749999999999" y="972.35" type="line"/>
      <point x="578.9250000000001" y="1041.07" type="line"/>
      <point x="340.39" y="1015.19" type="line" smooth="yes"/>
      <point x="167.04500000000002" y="995.955"/>
      <point x="87.45" y="942.9549999999999"/>
      <point x="87.45" y="822.2700000000001" type="curve" smooth="yes"/>
      <point x="87.45" y="811.2700000000001" type="line" smooth="yes"/>
      <point x="87.45" y="694.59"/>
      <point x="168.29999999999998" y="630.115"/>
    </contour>
  </outline>
</glyph>
<glyph name="logicalnot" format="2">
  <advance width="1189.5500000000002"/>
  <unicode hex="00AC"/>
  <outline>
    <contour>
      <point x="1040.16" y="149.55" type="line"/>
      <point x="1040.16" y="626.5699999999999" type="line"/>
      <point x="931.255" y="626.5699999999999" type="line"/>
      <point x="931.255" y="149.55" type="line"/>
    </contour>
    <contour>
      <point x="130.81" y="565.165" type="line"/>
      <point x="1040.16" y="565.165" type="line"/>
      <point x="1040.16" y="667.27" type="line"/>
      <point x="130.81" y="667.27" type="line"/>
    </contour>
  </outline>
</glyph>
<glyph name="registered" format="2">
  <advance width="926.73"/>
  <unicode hex="00AE"/>
  <outline>
    <contour>
      <point x="463.88" y="543.9499999999999" type="curve" smooth="yes"/>
      <point x="706.745" y="543.9499999999999"/>
      <point x="848.81" y="672.5749999999999"/>
      <point x="848.81" y="899.0500000000001" type="curve" smooth="yes"/>
      <point x="848.81" y="942.9599999999999" type="line" smooth="yes"/>
      <point x="848.81" y="1169.4350000000002"/>
      <point x="706.745" y="1297.56"/>
      <point x="463.88" y="1297.56" type="curve" smooth="yes"/>
      <point x="220.25" y="1297.56"/>
      <point x="77.91999999999999" y="1169.4350000000002"/>
      <point x="77.91999999999999" y="942.9599999999999" type="curve" smooth="yes"/>
      <point x="77.91999999999999" y="899.0500000000001" type="line" smooth="yes"/>
      <point x="77.91999999999999" y="672.5749999999999"/>
      <point x="220.25" y="543.9499999999999"/>
    </contour>
    <contour>
      <point x="463.88" y="601.125" type="curve" smooth="yes"/>
      <point x="257.74" y="601.125"/>
      <point x="143.66" y="703.2099999999999"/>
      <point x="143.66" y="898.755" type="curve" smooth="yes"/>
      <point x="143.66" y="944.285" type="line" smooth="yes"/>
      <point x="143.66" y="1139.035"/>
      <point x="257.505" y="1240.1499999999999"/>
      <point x="463.88" y="1240.1499999999999" type="curve" smooth="yes"/>
      <point x="669.255" y="1240.1499999999999"/>
      <point x="782.8050000000001" y="1139.035"/>
      <point x="782.8050000000001" y="944.285" type="curve" smooth="yes"/>
      <point x="782.8050000000001" y="898.755" type="line" smooth="yes"/>
      <point x="782.8050000000001" y="703.4449999999999"/>
      <point x="669.49" y="601.125"/>
    </contour>
    <contour>
      <point x="578.65" y="735.73" type="line"/>
      <point x="642.565" y="735.73" type="line"/>
      <point x="627.625" y="808.08" type="line" smooth="yes"/>
      <point x="614.89" y="869.61"/>
      <point x="595.89" y="905.93"/>
      <point x="525.04" y="910.0200000000001" type="curve"/>
      <point x="540.54" y="901.49" type="line"/>
      <point x="541.48" y="908.73" type="line"/>
      <point x="606.475" y="912.76"/>
      <point x="636.2099999999999" y="947.815"/>
      <point x="636.2099999999999" y="1000.61" type="curve" smooth="yes"/>
      <point x="636.2099999999999" y="1007.755" type="line" smooth="yes"/>
      <point x="636.2099999999999" y="1075.17"/>
      <point x="595.795" y="1113.405"/>
      <point x="506.875" y="1113.405" type="curve" smooth="yes"/>
      <point x="357.33" y="1113.405" type="line"/>
      <point x="357.33" y="1064.03" type="line"/>
      <point x="498.455" y="1064.03" type="line" smooth="yes"/>
      <point x="552.0049999999999" y="1064.03"/>
      <point x="573.825" y="1039.065"/>
      <point x="573.825" y="999.66" type="curve" smooth="yes"/>
      <point x="573.825" y="992.485" type="line" smooth="yes"/>
      <point x="573.825" y="951.58"/>
      <point x="551.27" y="926.145"/>
      <point x="499.15999999999997" y="926.145" type="curve" smooth="yes"/>
      <point x="358.065" y="925.88" type="line"/>
      <point x="358.065" y="877.535" type="line"/>
      <point x="480.545" y="877.535" type="line" smooth="yes"/>
      <point x="535.9799999999999" y="877.535"/>
      <point x="555.33" y="856.245"/>
      <point x="566.2699999999999" y="800.2800000000001" type="curve" smooth="yes"/>
    </contour>
    <contour>
      <point x="318.075" y="735.73" type="line"/>
      <point x="379.4" y="735.73" type="line"/>
      <point x="379.4" y="887.155" type="line"/>
      <point x="379.4" y="907.635" type="line"/>
      <point x="379.4" y="1113.405" type="line"/>
      <point x="318.075" y="1113.405" type="line"/>
    </contour>
  </outline>
</glyph>
<glyph name="degree" format="2">
  <advance width="723.805"/>
  <unicode hex="00B0"/>
  <outline>
    <contour>
      <point x="361.53499999999997" y="781.03" type="curve" smooth="yes"/>
      <point x="528.17" y="781.03"/>
      <point x="623.0899999999999" y="882.035"/>
      <point x="623.0899999999999" y="1038.37" type="curve" smooth="yes"/>
      <point x="623.0899999999999" y="1046.46" type="line" smooth="yes"/>
      <point x="623.0899999999999" y="1202.53"/>
      <point x="528.17" y="1302.8"/>
      <point x="361.53499999999997" y="1302.8" type="curve" smooth="yes"/>
      <point x="195.635" y="1302.8"/>
      <point x="100.715" y="1202.53"/>
      <point x="100.715" y="1046.46" type="curve" smooth="yes"/>
      <point x="100.715" y="1038.37" type="line" smooth="yes"/>
      <point x="100.715" y="882.035"/>
      <point x="195.635" y="781.03"/>
    </contour>
    <contour>
      <point x="361.53499999999997" y="868.3249999999999" type="curve" smooth="yes"/>
      <point x="258.15000000000003" y="868.3249999999999"/>
      <point x="199.755" y="934.19"/>
      <point x="199.755" y="1037.87" type="curve" smooth="yes"/>
      <point x="199.755" y="1046.43" type="line" smooth="yes"/>
      <point x="199.755" y="1150.375"/>
      <point x="258.15000000000003" y="1215.505"/>
      <point x="361.53499999999997" y="1215.505" type="curve" smooth="yes"/>
      <point x="465.685" y="1215.505"/>
      <point x="523.5799999999999" y="1150.375"/>
      <point x="523.5799999999999" y="1046.43" type="curve" smooth="yes"/>
      <point x="523.5799999999999" y="1037.87" type="line" smooth="yes"/>
      <point x="523.5799999999999" y="934.19"/>
      <point x="465.685" y="868.3249999999999"/>
    </contour>
  </outline>
</glyph>
<glyph name="plusminus" format="2">
  <advance width="1204.345"/>
  <unicode hex="00B1"/>
  <outline>
    <contour>
      <point x="147.63" y="130.93" type="line"/>
      <point x="1056.715" y="130.93" type="line"/>
      <point x="1056.715" y="231.8" type="line"/>
      <point x="147.63" y="231.8" type="line"/>
    </contour>
    <contour>
      <point x="657.39" y="382.15500000000003" type="line"/>
      <point x="657.39" y="1135.1000000000001" type="line"/>
      <point x="547.19" y="1135.1000000000001" type="line"/>
      <point x="547.19" y="382.15500000000003" type="line"/>
    </contour>
    <contour>
      <point x="147.63" y="708.3249999999999" type="line"/>
      <point x="1056.715" y="708.3249999999999" type="line"/>
      <point x="1056.715" y="808.9300000000001" type="line"/>
      <point x="147.63" y="808.9300000000001" type="line"/>
    </contour>
  </outline>
</glyph>
<glyph name="twosuperior" format="2">
  <advance width="709.29"/>
  <unicode hex="00B2"/>
  <outline>
    <contour>
      <point x="51.695" y="738.03" type="line"/>
      <point x="650.39" y="738.03" type="line"/>
      <point x="650.39" y="822.47" type="line"/>
      <point x="150.215" y="821.735" type="line"/>
      <point x="204.23000000000002" y="803.96" type="line"/>
      <point x="204.23000000000002" y="826.09" type="line"/>
      <point x="383.96000000000004" y="931.875" type="line" smooth="yes"/>
      <point x="545.0899999999999" y="1025.01"/>
      <point x="635.335" y="1096.155"/>
      <point x="635.335" y="1218.645" type="curve" smooth="yes"/>
      <point x="635.335" y="1226.47" type="line" smooth="yes"/>
      <point x="635.335" y="1355.53"/>
      <point x="533.065" y="1427.4750000000001"/>
      <point x="348.61" y="1427.4750000000001" type="curve" smooth="yes"/>
      <point x="243.23" y="1427.4750000000001"/>
      <point x="131.055" y="1395.745"/>
      <point x="66.78999999999999" y="1357.34" type="curve"/>
      <point x="57.489999999999995" y="1271.225" type="line"/>
      <point x="140.25" y="1313.4199999999998"/>
      <point x="234.595" y="1343.8300000000002"/>
      <point x="337.77500000000003" y="1343.8300000000002" type="curve" smooth="yes"/>
      <point x="467.225" y="1343.8300000000002"/>
      <point x="532.29" y="1301.96"/>
      <point x="532.29" y="1216.695" type="curve" smooth="yes"/>
      <point x="532.29" y="1211.96" type="line" smooth="yes"/>
      <point x="532.29" y="1118.195"/>
      <point x="441.59499999999997" y="1059.935"/>
      <point x="308.305" y="980.045" type="curve" smooth="yes"/>
      <point x="51.695" y="828.73" type="line"/>
    </contour>
  </outline>
</glyph>
<glyph name="threesuperior" format="2">
  <advance width="745.0799999999999"/>
  <unicode hex="00B3"/>
  <outline>
    <contour>
      <point x="354.49" y="723.7900000000001" type="curve" smooth="yes"/>
      <point x="576.145" y="723.7900000000001"/>
      <point x="676.7399999999999" y="803.82"/>
      <point x="676.7399999999999" y="920.535" type="curve" smooth="yes"/>
      <point x="676.7399999999999" y="930.68" type="line" smooth="yes"/>
      <point x="676.7399999999999" y="1023.5600000000001"/>
      <point x="620.6" y="1079.875"/>
      <point x="488.045" y="1090.7949999999998" type="curve"/>
      <point x="491.37" y="1081.4099999999999" type="line"/>
      <point x="492.78" y="1091.33" type="line"/>
      <point x="615.69" y="1099.9250000000002"/>
      <point x="669.33" y="1159.6200000000001"/>
      <point x="669.33" y="1241.7649999999999" type="curve" smooth="yes"/>
      <point x="669.33" y="1250.145" type="line" smooth="yes"/>
      <point x="669.33" y="1362.27"/>
      <point x="572.5849999999999" y="1426.4750000000001"/>
      <point x="366.605" y="1426.4750000000001" type="curve" smooth="yes"/>
      <point x="232.38" y="1426.4750000000001"/>
      <point x="131.94" y="1396.51"/>
      <point x="73.58" y="1367.54" type="curve"/>
      <point x="63.779999999999994" y="1285.9" type="line"/>
      <point x="130.78" y="1315.365"/>
      <point x="228.43" y="1344.9499999999998"/>
      <point x="355.42" y="1344.9499999999998" type="curve" smooth="yes"/>
      <point x="507.985" y="1344.9499999999998"/>
      <point x="565.52" y="1305.435"/>
      <point x="565.52" y="1238.0449999999998" type="curve" smooth="yes"/>
      <point x="565.52" y="1232.165" type="line" smooth="yes"/>
      <point x="565.52" y="1167.36"/>
      <point x="513.6800000000001" y="1125.525"/>
      <point x="376.365" y="1123.9950000000001" type="curve" smooth="yes"/>
      <point x="191.975" y="1121.405" type="line"/>
      <point x="191.975" y="1048.415" type="line"/>
      <point x="377.07" y="1045.855" type="line" smooth="yes"/>
      <point x="539.4649999999999" y="1044.0900000000001"/>
      <point x="571.87" y="994.935"/>
      <point x="571.87" y="935.6850000000001" type="curve" smooth="yes"/>
      <point x="571.87" y="929.335" type="line" smooth="yes"/>
      <point x="571.87" y="855.625"/>
      <point x="510.21999999999997" y="806.375"/>
      <point x="344.565" y="806.375" type="curve" smooth="yes"/>
      <point x="231.485" y="806.375"/>
      <point x="126.66499999999999" y="834.4599999999999"/>
      <point x="59.545" y="861.81" type="curve"/>
      <point x="69.11" y="774.6949999999999" type="line"/>
      <point x="121.615" y="754.255"/>
      <point x="224.38" y="723.7900000000001"/>
    </contour>
  </outline>
</glyph>
<glyph name="micro" format="2">
  <advance width="1241.26"/>
  <unicode hex="00B5"/>
  <outline>
    <contour>
      <point x="1080.46" y="964.945" type="line"/>
      <point x="953.125" y="964.945" type="line"/>
      <point x="953.125" y="279.845" type="line"/>
      <point x="959.51" y="269.51" type="line"/>
      <point x="953.125" y="0.0" type="line"/>
      <point x="1080.46" y="0.0" type="line"/>
    </contour>
    <contour>
      <point x="287.195" y="408.115" type="curve" smooth="yes"/>
      <point x="288.135" y="964.945" type="line"/>
      <point x="160.8" y="964.945" type="line"/>
      <point x="160.8" y="-341.0" type="line"/>
      <point x="286.545" y="-341.0" type="line"/>
      <point x="286.545" y="-166.97500000000002" type="line"/>
      <point x="277.42500000000007" y="190.79000000000002" type="line"/>
      <point x="280.755" y="191.025" type="line"/>
      <point x="321.495" y="58.34499999999999"/>
      <point x="429.055" y="-23.59"/>
      <point x="604.1" y="-23.59" type="curve" smooth="yes"/>
      <point x="812.2299999999999" y="-23.59"/>
      <point x="933.605" y="109.63999999999999"/>
      <point x="959.32" y="269.115" type="curve"/>
      <point x="986.015" y="269.115" type="line"/>
      <point x="961.33" y="366.48" type="line"/>
      <point x="931.7700000000001" y="206.345"/>
      <point x="802.33" y="83.315"/>
      <point x="609.4549999999999" y="83.315" type="curve" smooth="yes"/>
      <point x="416.71" y="83.315"/>
      <point x="287.195" y="192.475"/>
    </contour>
  </outline>
</glyph>
<glyph name="paragraph" format="2">
  <advance width="794.235"/>
  <unicode hex="00B6"/>
  <outline>
    <contour>
      <point x="411.125" y="664.37" type="curve"/>
      <point x="514.915" y="664.37" type="line"/>
      <point x="513.68" y="1278.0" type="line"/>
      <point x="410.89" y="1278.0" type="line" smooth="yes"/>
      <point x="199.225" y="1278.0"/>
      <point x="100.83500000000001" y="1166.53"/>
      <point x="100.83500000000001" y="989.755" type="curve" smooth="yes"/>
      <point x="100.83500000000001" y="953.585" type="line" smooth="yes"/>
      <point x="100.83500000000001" y="776.605"/>
      <point x="199.225" y="664.37"/>
    </contour>
    <contour>
      <point x="608.6450000000001" y="0.0" type="line"/>
      <point x="608.6450000000001" y="1278.0" type="line"/>
      <point x="480.635" y="1278.0" type="line"/>
      <point x="480.635" y="0.0" type="line"/>
    </contour>
  </outline>
</glyph>
<glyph name="onesuperior" format="2">
  <advance width="477.745"/>
  <unicode hex="00B9"/>
  <outline>
    <contour>
      <point x="271.315" y="738.03" type="line"/>
      <point x="369.415" y="738.03" type="line"/>
      <point x="369.415" y="1413.295" type="line"/>
      <point x="268.53499999999997" y="1413.295" type="line"/>
      <point x="43.875" y="1292.6100000000001" type="line"/>
      <point x="39.989999999999995" y="1199.96" type="line"/>
      <point x="264.02" y="1318.52" type="line"/>
      <point x="271.315" y="1318.52" type="line"/>
    </contour>
  </outline>
</glyph>
<glyph name="ordmasculine" format="2">
  <advance width="798.35"/>
  <unicode hex="00BA"/>
  <outline>
    <contour>
      <point x="399.40999999999997" y="630.615" type="curve" smooth="yes"/>
      <point x="603.7449999999999" y="630.615"/>
      <point x="717.25" y="736.53"/>
      <point x="717.25" y="934.4449999999999" type="curve" smooth="yes"/>
      <point x="717.25" y="991.375" type="line" smooth="yes"/>
      <point x="717.25" y="1188.525"/>
      <point x="604.51" y="1294.47"/>
      <point x="399.40999999999997" y="1294.47" type="curve" smooth="yes"/>
      <point x="194.84" y="1294.47"/>
      <point x="81.1" y="1188.525"/>
      <point x="81.1" y="991.375" type="curve" smooth="yes"/>
      <point x="81.1" y="934.4449999999999" type="line" smooth="yes"/>
      <point x="81.1" y="737.03"/>
      <point x="194.10500000000002" y="630.615"/>
    </contour>
    <contour>
      <point x="399.40999999999997" y="711.405" type="curve" smooth="yes"/>
      <point x="257.915" y="711.405"/>
      <point x="180.20000000000002" y="788.7399999999999"/>
      <point x="180.20000000000002" y="932.885" type="curve" smooth="yes"/>
      <point x="180.20000000000002" y="993.4649999999999" type="line" smooth="yes"/>
      <point x="180.20000000000002" y="1137.0800000000002"/>
      <point x="257.915" y="1213.68"/>
      <point x="399.40999999999997" y="1213.68" type="curve" smooth="yes"/>
      <point x="540.9050000000001" y="1213.68"/>
      <point x="618.15" y="1137.315"/>
      <point x="618.15" y="993.4649999999999" type="curve" smooth="yes"/>
      <point x="618.15" y="932.885" type="line" smooth="yes"/>
      <point x="618.15" y="788.2399999999999"/>
      <point x="539.6700000000001" y="711.405"/>
    </contour>
  </outline>
</glyph>
<glyph name="guillemetright" format="2">
  <advance width="1140.59"/>
  <unicode hex="00BB"/>
  <outline>
    <contour>
      <point x="431.08" y="480.855" type="line"/>
      <point x="60.41499999999999" y="88.315" type="line"/>
      <point x="198.57" y="88.315" type="line"/>
      <point x="554.24" y="460.41499999999996" type="line"/>
      <point x="554.24" y="504.47499999999997" type="line"/>
      <point x="198.57" y="871.8050000000001" type="line"/>
      <point x="60.41499999999999" y="871.8050000000001" type="line"/>
    </contour>
    <contour>
      <point x="927.895" y="480.855" type="line"/>
      <point x="557.23" y="88.315" type="line"/>
      <point x="695.385" y="88.315" type="line"/>
      <point x="1051.055" y="460.41499999999996" type="line"/>
      <point x="1051.055" y="504.47499999999997" type="line"/>
      <point x="695.385" y="871.8050000000001" type="line"/>
      <point x="557.23" y="871.8050000000001" type="line"/>
    </contour>
  </outline>
</glyph>
<glyph name="questiondown" format="2">
  <advance width="1084.715"/>
  <unicode hex="00BF"/>
  <outline>
    <contour>
      <point x="717.9849999999999" y="552.1600000000001" type="line"/>
      <point x="615.41" y="536.865" type="line" smooth="yes"/>
      <point x="280.265" y="490.045"/>
      <point x="107.45" y="360.225"/>
      <point x="107.45" y="100.52499999999999" type="curve" smooth="yes"/>
      <point x="107.45" y="43.245" type="line" smooth="yes"/>
      <point x="107.45" y="-199.70499999999998"/>
      <point x="246.70499999999998" y="-334.06"/>
      <point x="558.4" y="-334.06" type="curve" smooth="yes"/>
      <point x="758.1899999999999" y="-334.06"/>
      <point x="914.7199999999999" y="-268.6"/>
      <point x="998.605" y="-214.755" type="curve"/>
      <point x="1013.91" y="-97.495" type="line"/>
      <point x="902.78" y="-164.605"/>
      <point x="745.93" y="-224.125"/>
      <point x="570.825" y="-224.125" type="curve" smooth="yes"/>
      <point x="328.3" y="-224.125"/>
      <point x="237.435" y="-124.5"/>
      <point x="237.435" y="49.045" type="curve" smooth="yes"/>
      <point x="237.435" y="101.35" type="line" smooth="yes"/>
      <point x="237.435" y="291.72499999999997"/>
      <point x="365.26" y="391.34999999999997"/>
      <point x="631.005" y="430.255" type="curve" smooth="yes"/>
      <point x="717.9849999999999" y="443.285" type="line"/>
    </contour>
    <contour>
      <point x="650.595" y="982.715" type="curve" smooth="yes"/>
      <point x="588.505" y="982.715"/>
      <point x="558.05" y="949.6400000000001"/>
      <point x="558.05" y="891.41" type="curve" smooth="yes"/>
      <point x="558.05" y="884.41" type="line" smooth="yes"/>
      <point x="558.05" y="826.915"/>
      <point x="588.505" y="794.3100000000001"/>
      <point x="650.595" y="794.3100000000001" type="curve" smooth="yes"/>
      <point x="711.245" y="794.3100000000001"/>
      <point x="741.935" y="826.915"/>
      <point x="741.935" y="884.41" type="curve" smooth="yes"/>
      <point x="741.935" y="891.41" type="line" smooth="yes"/>
      <point x="741.935" y="949.6400000000001"/>
      <point x="711.245" y="982.715"/>
    </contour>
  </outline>
</glyph>
<glyph name="AE" format="2">
  <advance width="2098.6650000000004"/>
  <unicode hex="00C6"/>
  <anchor x="1048.76" y="0.0" name="bottom"/>
  <anchor x="1048.76" y="1278.0" name="top"/>
  <outline>
    <contour>
      <point x="62.86" y="0.0" type="line"/>
      <point x="207.0" y="0.0" type="line"/>
      <point x="970.925" y="1190.3500000000001" type="line"/>
      <point x="1063.8750000000002" y="1190.3500000000001" type="line"/>
      <point x="1064.4050000000002" y="1278.0" type="line"/>
      <point x="884.7099999999999" y="1278.0" type="line"/>
    </contour>
    <contour>
      <point x="416.32" y="402.65" type="line"/>
      <point x="1059.875" y="402.65" type="line"/>
      <point x="1059.875" y="510.55499999999995" type="line"/>
      <point x="416.32" y="510.55499999999995" type="line"/>
    </contour>
    <contour>
      <point x="1059.25" y="0.0" type="line"/>
      <point x="1976.9150000000002" y="0.0" type="line"/>
      <point x="1976.9150000000002" y="108.7" type="line"/>
      <point x="1059.25" y="108.7" type="line"/>
    </contour>
    <contour>
      <point x="1032.4750000000001" y="0.0" type="line"/>
      <point x="1161.31" y="0.0" type="line"/>
      <point x="1161.31" y="1278.0" type="line"/>
      <point x="1032.4750000000001" y="1278.0" type="line"/>
    </contour>
    <contour>
      <point x="1102.7649999999999" y="598.31" type="line"/>
      <point x="1948.59" y="598.31" type="line"/>
      <point x="1948.59" y="705.6850000000001" type="line"/>
      <point x="1102.7649999999999" y="705.6850000000001" type="line"/>
    </contour>
    <contour>
      <point x="1058.515" y="1169.565" type="line"/>
      <point x="1967.8249999999998" y="1169.565" type="line"/>
      <point x="1967.8249999999998" y="1278.0" type="line"/>
      <point x="1058.515" y="1278.0" type="line"/>
    </contour>
  </outline>
</glyph>
<glyph name="Eth" format="2">
  <advance width="1396.905"/>
  <unicode hex="00D0"/>
  <anchor x="686.685" y="0.0" name="bottom"/>
  <anchor x="702.835" y="639.0" name="center"/>
  <anchor x="686.685" y="1278.0" name="top"/>
  <outline>
    <contour>
      <point x="2.4100000000000006" y="607.9" type="line"/>
      <point x="738.45" y="607.635" type="line"/>
      <point x="738.45" y="706.825" type="line"/>
      <point x="2.4100000000000006" y="707.09" type="line"/>
    </contour>
    <component base="D"/>
  </outline>
</glyph>
<glyph name="multiply" format="2">
  <advance width="1153.67"/>
  <unicode hex="00D7"/>
  <outline>
    <contour>
      <point x="997.645" y="264.555" type="line"/>
      <point x="235.815" y="1033.7800000000002" type="line"/>
      <point x="161.02499999999998" y="963.9050000000001" type="line"/>
      <point x="922.62" y="194.41500000000002" type="line"/>
    </contour>
    <contour>
      <point x="156.02499999999998" y="264.555" type="line"/>
      <point x="231.05" y="194.41500000000002" type="line"/>
      <point x="992.645" y="963.9050000000001" type="line"/>
      <point x="917.855" y="1033.7800000000002" type="line"/>
    </contour>
  </outline>
</glyph>
<glyph name="Oslash" format="2">
  <advance width="1425.3300000000002"/>
  <unicode hex="00D8"/>
  <anchor x="712.9000000000001" y="0.0" name="bottom"/>
  <anchor x="712.9000000000001" y="639.53" name="center"/>
  <anchor x="1288.15" y="10.53" name="ogonek"/>
  <anchor x="712.9000000000001" y="1278.0" name="top"/>
  <anchor x="13.235" y="1278.53" name="topleft"/>
  <anchor x="1411.8300000000002" y="1278.53" name="topright"/>
  <outline>
    <contour>
      <point x="712.4300000000001" y="-24.8" type="curve" smooth="yes"/>
      <point x="1097.72" y="-24.8"/>
      <point x="1306.465" y="185.03"/>
      <point x="1306.465" y="556.805" type="curve" smooth="yes"/>
      <point x="1306.465" y="722.49" type="line" smooth="yes"/>
      <point x="1306.7" y="1086.73"/>
      <point x="1090.7150000000001" y="1302.8"/>
      <point x="712.4300000000001" y="1302.8" type="curve" smooth="yes"/>
      <point x="327.11" y="1302.8"/>
      <point x="118.865" y="1093.735"/>
      <point x="118.865" y="722.49" type="curve" smooth="yes"/>
      <point x="118.865" y="556.805" type="line" smooth="yes"/>
      <point x="118.865" y="192.035"/>
      <point x="334.11499999999995" y="-24.8"/>
    </contour>
    <contour>
      <point x="133.5" y="-60.035000000000004" type="line"/>
      <point x="265.565" y="-60.035000000000004" type="line"/>
      <point x="385.625" y="100.91" type="line"/>
      <point x="401.16" y="122.565" type="line"/>
      <point x="1097.13" y="1083.295" type="line"/>
      <point x="1127.445" y="1122.645" type="line"/>
      <point x="1292.065" y="1337.565" type="line"/>
      <point x="1160.8249999999998" y="1337.565" type="line"/>
      <point x="1047.2099999999998" y="1187.8049999999998" type="line"/>
      <point x="1030.145" y="1161.47" type="line"/>
      <point x="330.525" y="196.325" type="line"/>
      <point x="298.295" y="156.62" type="line"/>
    </contour>
    <contour>
      <point x="712.4300000000001" y="85.37" type="curve" smooth="yes"/>
      <point x="412.0" y="85.37"/>
      <point x="253.20500000000004" y="257.66999999999996"/>
      <point x="253.20500000000004" y="554.42" type="curve" smooth="yes"/>
      <point x="253.20500000000004" y="725.11" type="line" smooth="yes"/>
      <point x="253.20500000000004" y="1024.8600000000001"/>
      <point x="412.15" y="1193.425"/>
      <point x="712.4300000000001" y="1193.425" type="curve" smooth="yes"/>
      <point x="1012.8000000000001" y="1193.425"/>
      <point x="1172.125" y="1022.3600000000001"/>
      <point x="1172.125" y="725.11" type="curve" smooth="yes"/>
      <point x="1172.125" y="554.42" type="line" smooth="yes"/>
      <point x="1172.125" y="255.17"/>
      <point x="1012.65" y="85.37"/>
    </contour>
  </outline>
</glyph>
<glyph name="Thorn" format="2">
  <advance width="1312.1399999999999"/>
  <unicode hex="00DE"/>
  <anchor x="655.0699999999999" y="0.0" name="bottom"/>
  <anchor x="655.0699999999999" y="1278.0" name="top"/>
  <outline>
    <contour>
      <point x="275.25" y="225.48" type="line"/>
      <point x="775.26" y="225.48" type="line" smooth="yes"/>
      <point x="1076.5850000000003" y="225.48"/>
      <point x="1212.1" y="376.33500000000004"/>
      <point x="1212.1" y="613.9699999999999" type="curve" smooth="yes"/>
      <point x="1212.1" y="671.4699999999999" type="line" smooth="yes"/>
      <point x="1212.1" y="908.9300000000001"/>
      <point x="1077.0850000000003" y="1058.3149999999998"/>
      <point x="776.23" y="1058.3149999999998" type="curve" smooth="yes"/>
      <point x="270.34000000000003" y="1058.3149999999998" type="line"/>
      <point x="270.34000000000003" y="950.91" type="line"/>
      <point x="774.23" y="950.91" type="line" smooth="yes"/>
      <point x="988.865" y="950.91"/>
      <point x="1079.585" y="844.055"/>
      <point x="1079.585" y="669.205" type="curve" smooth="yes"/>
      <point x="1079.585" y="616.265" type="line" smooth="yes"/>
      <point x="1079.585" y="441.505"/>
      <point x="988.63" y="333.65"/>
      <point x="772.995" y="333.65" type="curve" smooth="yes"/>
      <point x="275.25" y="333.65" type="line"/>
    </contour>
    <contour>
      <point x="185.59" y="0.0" type="line"/>
      <point x="314.65999999999997" y="0.0" type="line"/>
      <point x="314.65999999999997" y="257.445" type="line"/>
      <point x="314.65999999999997" y="297.59000000000003" type="line"/>
      <point x="314.65999999999997" y="981.875" type="line"/>
      <point x="314.65999999999997" y="1029.2350000000001" type="line"/>
      <point x="314.65999999999997" y="1278.0" type="line"/>
      <point x="185.59" y="1278.0" type="line"/>
    </contour>
  </outline>
</glyph>
<glyph name="germandbls" format="2">
  <advance width="1286.03"/>
  <unicode hex="00DF"/>
  <anchor x="614.605" y="0.0" name="bottom"/>
  <anchor x="614.605" y="964.945" name="top"/>
  <outline>
    <contour>
      <point x="160.8" y="959.015" type="curve" smooth="yes"/>
      <point x="160.8" y="0.0" type="line"/>
      <point x="286.84000000000003" y="0.0" type="line"/>
      <point x="286.84000000000003" y="954.6600000000001" type="line" smooth="yes"/>
      <point x="286.84000000000003" y="1139.005"/>
      <point x="352.3" y="1248.16"/>
      <point x="571.75" y="1248.16" type="curve" smooth="yes"/>
      <point x="745.825" y="1248.16"/>
      <point x="828.135" y="1179.565"/>
      <point x="828.135" y="1087.06" type="curve" smooth="yes"/>
      <point x="828.135" y="931.13"/>
      <point x="552.0849999999999" y="890.135"/>
      <point x="551.5849999999999" y="693.435" type="curve" smooth="yes"/>
      <point x="551.5849999999999" y="685.73" type="line" smooth="yes"/>
      <point x="551.5849999999999" y="550.9000000000001"/>
      <point x="631.03" y="499.715"/>
      <point x="830.5550000000001" y="452.385" type="curve" smooth="yes"/>
      <point x="1001.495" y="412.38500000000005"/>
      <point x="1064.805" y="374.605"/>
      <point x="1064.805" y="263.7" type="curve" smooth="yes"/>
      <point x="1064.805" y="253.585" type="line" smooth="yes"/>
      <point x="1064.805" y="143.795"/>
      <point x="981.38" y="84.315"/>
      <point x="820.17" y="84.315" type="curve" smooth="yes"/>
      <point x="703.925" y="84.315"/>
      <point x="619.0050000000001" y="109.02000000000001"/>
      <point x="525.305" y="147.28" type="curve"/>
      <point x="538.725" y="31.55" type="line"/>
      <point x="613.9300000000001" y="3.26"/>
      <point x="703.6700000000001" y="-21.205"/>
      <point x="831.565" y="-21.205" type="curve" smooth="yes"/>
      <point x="1057.5849999999998" y="-21.205"/>
      <point x="1189.7849999999999" y="73.17999999999999"/>
      <point x="1189.7849999999999" y="253.79" type="curve" smooth="yes"/>
      <point x="1189.7849999999999" y="265.26000000000005" type="line" smooth="yes"/>
      <point x="1189.7849999999999" y="434.15000000000003"/>
      <point x="1100.07" y="493.12"/>
      <point x="890.5849999999999" y="542.8" type="curve" smooth="yes"/>
      <point x="734.64" y="580.4749999999999"/>
      <point x="677.155" y="607.765"/>
      <point x="677.155" y="693.4449999999999" type="curve" smooth="yes"/>
      <point x="677.155" y="699.265" type="line" smooth="yes"/>
      <point x="677.155" y="843.755"/>
      <point x="954.675" y="883.98"/>
      <point x="954.675" y="1088.355" type="curve"/>
      <point x="954.675" y="1252.945"/>
      <point x="808.935" y="1350.53"/>
      <point x="572.015" y="1350.53" type="curve" smooth="yes"/>
      <point x="265.7" y="1350.53"/>
      <point x="160.8" y="1205.62"/>
    </contour>
  </outline>
</glyph>
<glyph name="ae" format="2">
  <advance width="1922.375"/>
  <unicode hex="00E6"/>
  <anchor x="960.76" y="0.0" name="bottom"/>
  <anchor x="960.76" y="964.945" name="top"/>
  <outline>
    <contour>
      <point x="1380.52" y="-24.915000000000003" type="curve" smooth="yes"/>
      <point x="1548.76" y="-24.915000000000003"/>
      <point x="1684.9399999999998" y="17.14"/>
      <point x="1789.3249999999998" y="87.13" type="curve"/>
      <point x="1802.805" y="200.06" type="line"/>
      <point x="1684.215" y="123.33999999999999"/>
      <point x="1554.27" y="82.19500000000001"/>
      <point x="1399.275" y="82.19500000000001" type="curve" smooth="yes"/>
      <point x="1124.69" y="82.19500000000001"/>
      <point x="1000.7850000000001" y="212.41"/>
      <point x="1000.7850000000001" y="414.09000000000003" type="curve" smooth="yes"/>
      <point x="1000.7850000000001" y="475.35499999999996" type="line"/>
      <point x="1000.7850000000001" y="488.745" type="line"/>
      <point x="1000.7850000000001" y="546.275" type="line" smooth="yes"/>
      <point x="1000.7850000000001" y="759.895"/>
      <point x="1120.64" y="888.4"/>
      <point x="1350.1850000000002" y="888.4" type="curve" smooth="yes"/>
      <point x="1580.38" y="888.4"/>
      <point x="1700.5900000000001" y="762.11"/>
      <point x="1700.5900000000001" y="555.0649999999999" type="curve" smooth="yes"/>
      <point x="1700.5900000000001" y="518.67"/>
      <point x="1699.7949999999998" y="476.92"/>
      <point x="1697.705" y="435.46500000000003" type="curve"/>
      <point x="1815.915" y="435.46500000000003" type="line"/>
      <point x="1820.5349999999999" y="466.795"/>
      <point x="1822.92" y="499.28"/>
      <point x="1822.92" y="530.9399999999999" type="curve" smooth="yes"/>
      <point x="1822.92" y="551.265" type="line" smooth="yes"/>
      <point x="1822.92" y="818.915"/>
      <point x="1662.475" y="991.5949999999999"/>
      <point x="1361.3149999999998" y="991.5949999999999" type="curve" smooth="yes"/>
      <point x="1127.9150000000002" y="991.5949999999999"/>
      <point x="982.245" y="887.375"/>
      <point x="937.62" y="710.795" type="curve"/>
      <point x="938.785" y="711.735" type="line"/>
      <point x="911.035" y="881.6999999999999"/>
      <point x="794.19" y="989.595"/>
      <point x="558.2900000000001" y="989.595" type="curve" smooth="yes"/>
      <point x="364.65500000000003" y="989.595"/>
      <point x="228.86" y="925.605"/>
      <point x="149.85" y="874.4300000000001" type="curve"/>
      <point x="136.36999999999998" y="763.765" type="line"/>
      <point x="236.94" y="823.935"/>
      <point x="375.675" y="883.25"/>
      <point x="552.1949999999999" y="883.25" type="curve" smooth="yes"/>
      <point x="770.0799999999999" y="883.25"/>
      <point x="874.48" y="785.13"/>
      <point x="874.48" y="601.875" type="curve"/>
      <point x="874.745" y="479.685" type="line"/>
      <point x="873.98" y="423.34999999999997"/>
      <point x="876.245" y="360.47999999999996"/>
      <point x="884.865" y="308.52500000000003" type="curve"/>
      <point x="895.285" y="285.95500000000004" type="line"/>
      <point x="942.615" y="92.7"/>
      <point x="1102.65" y="-24.915000000000003"/>
    </contour>
    <contour>
      <point x="449.91999999999996" y="-23.855" type="curve" smooth="yes"/>
      <point x="729.32" y="-23.855"/>
      <point x="861.915" y="108.75999999999999"/>
      <point x="909.79" y="257.64" type="curve"/>
      <point x="936.16" y="257.64" type="line"/>
      <point x="888.25" y="347.615" type="line"/>
      <point x="847.98" y="199.54500000000002"/>
      <point x="710.21" y="82.255"/>
      <point x="482.185" y="82.255" type="curve" smooth="yes"/>
      <point x="313.815" y="82.255"/>
      <point x="219.435" y="145.325"/>
      <point x="219.435" y="264.02" type="curve" smooth="yes"/>
      <point x="219.435" y="277.575" type="line" smooth="yes"/>
      <point x="219.435" y="396.54"/>
      <point x="301.32" y="446.23"/>
      <point x="517.62" y="467.99" type="curve" smooth="yes"/>
      <point x="897.605" y="507.28" type="line"/>
      <point x="893.395" y="598.905" type="line"/>
      <point x="504.465" y="559.115" type="line" smooth="yes"/>
      <point x="217.495" y="529.85"/>
      <point x="92.365" y="451.90500000000003"/>
      <point x="92.365" y="269.36" type="curve" smooth="yes"/>
      <point x="92.365" y="250.095" type="line" smooth="yes"/>
      <point x="92.365" y="73.24"/>
      <point x="222.625" y="-23.855"/>
    </contour>
    <contour>
      <point x="937.0600000000001" y="435.46500000000003" type="line"/>
      <point x="1788.105" y="435.46500000000003" type="line"/>
      <point x="1788.105" y="532.89" type="line"/>
      <point x="937.0600000000001" y="532.89" type="line"/>
    </contour>
  </outline>
</glyph>
<glyph name="eth" format="2">
  <advance width="1211.6399999999999"/>
  <unicode hex="00F0"/>
  <outline>
    <contour>
      <point x="606.0699999999999" y="-25.855" type="curve" smooth="yes"/>
      <point x="926.18" y="-25.855"/>
      <point x="1102.865" y="136.21"/>
      <point x="1102.865" y="431.035" type="curve"/>
      <point x="1102.865" y="510.78" type="line"/>
      <point x="1102.865" y="900.02"/>
      <point x="841.3000000000001" y="1089.165"/>
      <point x="474.09999999999997" y="1323.85" type="curve"/>
      <point x="297.33000000000004" y="1323.85" type="line"/>
      <point x="297.33000000000004" y="1322.82" type="line"/>
      <point x="690.7700000000001" y="1083.2199999999998"/>
      <point x="938.4699999999999" y="904.17"/>
      <point x="970.82" y="634.675" type="curve"/>
      <point x="971.44" y="599.91"/>
      <point x="973.2349999999999" y="578.72"/>
      <point x="974.795" y="536.2700000000001" type="curve"/>
      <point x="974.795" y="496.25499999999994"/>
      <point x="974.795" y="461.805"/>
      <point x="974.795" y="424.44" type="curve" smooth="yes"/>
      <point x="974.795" y="198.99"/>
      <point x="840.585" y="77.87"/>
      <point x="606.0699999999999" y="77.87" type="curve" smooth="yes"/>
      <point x="370.585" y="77.87"/>
      <point x="236.64000000000001" y="198.02"/>
      <point x="236.64000000000001" y="422.325" type="curve" smooth="yes"/>
      <point x="236.64000000000001" y="480.99" type="line" smooth="yes"/>
      <point x="236.64000000000001" y="704.295"/>
      <point x="369.76" y="822.09"/>
      <point x="600.015" y="822.09" type="curve" smooth="yes"/>
      <point x="802.5" y="822.09"/>
      <point x="964.8299999999999" y="718.575"/>
      <point x="974.795" y="492.355" type="curve"/>
      <point x="986.49" y="668.46" type="line"/>
      <point x="950.465" y="658.86" type="line"/>
      <point x="917.87" y="827.1850000000001"/>
      <point x="770.14" y="924.49"/>
      <point x="564.4150000000001" y="924.49" type="curve" smooth="yes"/>
      <point x="281.395" y="924.49"/>
      <point x="108.77499999999999" y="765.985"/>
      <point x="108.77499999999999" y="480.90000000000003" type="curve" smooth="yes"/>
      <point x="108.77499999999999" y="425.77" type="line" smooth="yes"/>
      <point x="108.77499999999999" y="132.76500000000001"/>
      <point x="285.02" y="-25.855"/>
    </contour>
    <contour>
      <point x="245.28" y="1010.785" type="line"/>
      <point x="1034.6550000000002" y="1191.545" type="line"/>
      <point x="1034.6550000000002" y="1276.69" type="line"/>
      <point x="245.28" y="1096.195" type="line"/>
    </contour>
  </outline>
</glyph>
<glyph name="divide" format="2">
  <advance width="1170.97"/>
  <unicode hex="00F7"/>
  <outline>
    <contour>
      <point x="130.81" y="564.34" type="line"/>
      <point x="1040.16" y="564.34" type="line"/>
      <point x="1040.16" y="668.0649999999999" type="line"/>
      <point x="130.81" y="668.0649999999999" type="line"/>
    </contour>
    <contour>
      <point x="588.735" y="143.08" type="curve" smooth="yes"/>
      <point x="648.175" y="143.08"/>
      <point x="677.3050000000001" y="175.095"/>
      <point x="677.3050000000001" y="230.67499999999998" type="curve" smooth="yes"/>
      <point x="677.3050000000001" y="237.41000000000003" type="line" smooth="yes"/>
      <point x="677.3050000000001" y="292.255"/>
      <point x="648.175" y="323.53499999999997"/>
      <point x="588.735" y="323.53499999999997" type="curve" smooth="yes"/>
      <point x="530.735" y="323.53499999999997"/>
      <point x="501.37" y="292.255"/>
      <point x="501.37" y="237.41000000000003" type="curve" smooth="yes"/>
      <point x="501.37" y="230.67499999999998" type="line" smooth="yes"/>
      <point x="501.37" y="175.095"/>
      <point x="530.735" y="143.08"/>
    </contour>
    <contour>
      <point x="588.735" y="911.52" type="curve" smooth="yes"/>
      <point x="648.175" y="911.52"/>
      <point x="677.3050000000001" y="943.5350000000001"/>
      <point x="677.3050000000001" y="999.1149999999999" type="curve" smooth="yes"/>
      <point x="677.3050000000001" y="1005.85" type="line" smooth="yes"/>
      <point x="677.3050000000001" y="1060.695"/>
      <point x="648.175" y="1091.975"/>
      <point x="588.735" y="1091.975" type="curve" smooth="yes"/>
      <point x="530.735" y="1091.975"/>
      <point x="501.37" y="1060.695"/>
      <point x="501.37" y="1005.85" type="curve" smooth="yes"/>
      <point x="501.37" y="999.1149999999999" type="line" smooth="yes"/>
      <point x="501.37" y="943.5350000000001"/>
      <point x="530.735" y="911.52"/>
    </contour>
  </outline>
</glyph>
<glyph name="oslash" format="2">
  <advance width="1213.55"/>
  <unicode hex="00F8"/>
  <anchor x="606.775" y="0.0" name="bottom"/>
  <anchor x="606.775" y="482.855" name="center"/>
  <anchor x="1093.0200000000002" y="10.0" name="ogonek"/>
  <anchor x="606.775" y="964.945" name="top"/>
  <anchor x="1194.405" y="964.945" name="topright"/>
  <outline>
    <contour>
      <point x="607.01" y="-25.59" type="curve" smooth="yes"/>
      <point x="931.5" y="-25.59"/>
      <point x="1104.7749999999999" y="136.41500000000002"/>
      <point x="1104.7749999999999" y="437.215" type="curve"/>
      <point x="1104.7749999999999" y="529.465" type="line"/>
      <point x="1104.7749999999999" y="826.765"/>
      <point x="925.525" y="991.0649999999999"/>
      <point x="607.01" y="991.0649999999999" type="curve" smooth="yes"/>
      <point x="282.815" y="991.0649999999999"/>
      <point x="108.77499999999999" y="829.295"/>
      <point x="108.77499999999999" y="530.26" type="curve"/>
      <point x="108.77499999999999" y="438.01" type="line"/>
      <point x="108.77499999999999" y="140.44500000000002"/>
      <point x="287.555" y="-25.59"/>
    </contour>
    <contour>
      <point x="125.795" y="-60.035000000000004" type="line"/>
      <point x="247.175" y="-60.035000000000004" type="line"/>
      <point x="347.29499999999996" y="67.0" type="line"/>
      <point x="369.21999999999997" y="97.19500000000001" type="line"/>
      <point x="921.68" y="818.365" type="line"/>
      <point x="950.7" y="854.0949999999999" type="line"/>
      <point x="1087.755" y="1024.98" type="line"/>
      <point x="967.375" y="1024.98" type="line"/>
      <point x="874.145" y="906.19" type="line"/>
      <point x="852.015" y="877.2900000000001" type="line"/>
      <point x="295.78499999999997" y="152.585" type="line"/>
      <point x="267.06" y="118.18" type="line"/>
    </contour>
    <contour>
      <point x="607.01" y="74.69" type="curve" smooth="yes"/>
      <point x="367.28999999999996" y="74.69"/>
      <point x="234.52" y="202.25500000000002"/>
      <point x="234.52" y="434.035" type="curve" smooth="yes"/>
      <point x="234.52" y="533.44" type="line" smooth="yes"/>
      <point x="234.52" y="765.9549999999999"/>
      <point x="365.82" y="891.05"/>
      <point x="607.01" y="891.05" type="curve" smooth="yes"/>
      <point x="847.26" y="891.05"/>
      <point x="979.295" y="764.2199999999999"/>
      <point x="979.295" y="533.44" type="curve" smooth="yes"/>
      <point x="979.295" y="434.035" type="line" smooth="yes"/>
      <point x="979.295" y="200.52"/>
      <point x="847.495" y="74.69"/>
    </contour>
  </outline>
</glyph>
